{
.appVersion = "1184";
copyright = "Copyright (c) 2011, Dan Sayers (i@iotic.com), with Reserved Font Name 'Averia' and 'Averia Libre'.";
customParameters = (
{
name = licenseURL;
value = "http://scripts.sil.org/OFL";
},
{
name = license;
value = "This Font Software is licensed under the SIL Open Font License, Version 1.1. This license is copied below, and is also available with a FAQ at: http://scripts.sil.org/OFL";
},
{
name = vendorID;
value = PfEd;
},
{
name = panose;
value = (
2,
0,
6,
3,
0,
0,
0,
0,
0,
4
);
},
{
name = unicodeRanges;
value = (
0,
1,
2,
3,
5,
31,
33,
35,
38
);
},
{
name = codePageRanges;
value = (
1252
);
},
{
name = glyphOrder;
value = (
uni0000,
glyph00001,
glyph00002,
space,
exclam,
quotedbl,
numbersign,
dollar,
percent,
ampersand,
quotesingle,
parenleft,
parenright,
asterisk,
plus,
comma,
hyphen,
period,
slash,
zero,
one,
two,
three,
four,
five,
six,
seven,
eight,
nine,
colon,
semicolon,
less,
equal,
greater,
question,
at,
A,
B,
C,
D,
E,
F,
G,
H,
I,
J,
K,
L,
M,
N,
O,
P,
Q,
R,
S,
T,
U,
V,
W,
X,
Y,
Z,
bracketleft,
backslash,
bracketright,
asciicircum,
underscore,
grave,
a,
b,
c,
d,
e,
f,
g,
h,
i,
j,
k,
l,
m,
n,
o,
p,
q,
r,
s,
t,
u,
v,
w,
x,
y,
z,
braceleft,
bar,
braceright,
asciitilde,
nbspace,
exclamdown,
cent,
sterling,
currency,
yen,
brokenbar,
section,
dieresis,
copyright,
ordfeminine,
guillemetleft,
logicalnot,
softhyphen,
registered,
macron,
degree,
plusminus,
twosuperior,
threesuperior,
acute,
micro,
paragraph,
periodcentered,
cedilla,
onesuperior,
ordmasculine,
guillemetright,
onequarter,
onehalf,
threequarters,
questiondown,
Agrave,
Aacute,
Acircumflex,
Atilde,
Adieresis,
Aring,
AE,
Ccedilla,
Egrave,
Eacute,
Ecircumflex,
Edieresis,
Igrave,
Iacute,
Icircumflex,
Idieresis,
Eth,
Ntilde,
Ograve,
Oacute,
Ocircumflex,
Otilde,
Odieresis,
multiply,
Oslash,
Ugrave,
Uacute,
Ucircumflex,
Udieresis,
Yacute,
Thorn,
germandbls,
agrave,
aacute,
acircumflex,
atilde,
adieresis,
aring,
ae,
ccedilla,
egrave,
eacute,
ecircumflex,
edieresis,
igrave,

glyphs = (
{
glyphname = uni0000;
lastChange = "2018-12-06 23:43:23 +0000";
layers = (
{
layerId = "5CBF0BAD-1756-4F16-9711-93DC239D102B";
paths = (
{
closed = 1;
nodes = (
"327 65 LINE",
"258 67 LINE",
"249 68 LINE",
"239 69 LINE",
"221 69 OFFCURVE",
"221 70 QCURVE SMOOTH",
"221 93 OFFCURVE",
"468 452 QCURVE SMOOTH",
"475 462 OFFCURVE",
"479 469 QCURVE",
"517 527 LINE",
"522 536 LINE",
"571 611 LINE",
"575 611 OFFCURVE",
"667 469 OFFCURVE",
"675 457 QCURVE SMOOTH",
"923 96 OFFCURVE",
"923 75 QCURVE SMOOTH",
"923 65 OFFCURVE",
"814 65 QCURVE SMOOTH"
);
},
{
closed = 1;
nodes = (
"150 1231 OFFCURVE",
"154 1231 QCURVE",
"240 1104 LINE SMOOTH",
"247 1093 OFFCURVE",
"511 707 OFFCURVE",
"511 699 QCURVE SMOOTH",
"511 689 LINE SMOOTH",
"511 683 OFFCURVE",
"417 549 OFFCURVE",
"374 483 OFFCURVE",
"348 446 OFFCURVE",
"326 412 QCURVE SMOOTH",
"265 322 LINE SMOOTH",
"160 161 OFFCURVE",
"150 161 OFFCURVE",
"150 357 QCURVE SMOOTH",
"150 725 LINE SMOOTH"
);
},
{
closed = 1;
nodes = (
"993 165 OFFCURVE",
"982 165 OFFCURVE",
"785 467 OFFCURVE",
"632 686 OFFCURVE",
"632 720 OFFCURVE",
"885 1082 OFFCURVE",
"983 1232 OFFCURVE",
"993 1232 OFFCURVE",
"993 754 QCURVE SMOOTH",
"993 635 LINE SMOOTH"
);
},
{
closed = 1;
nodes = (
"931 1331 OFFCURVE",
"931 1313 OFFCURVE",
"851 1199 QCURVE SMOOTH",
"728 1013 LINE SMOOTH",
"714 993 OFFCURVE",
"696 965 OFFCURVE",
"580 786 OFFCURVE",
"570 786 OFFCURVE",
"422 1015 OFFCURVE",
"378 1077 OFFCURVE",
"323 1162 OFFCURVE",
"219 1313 OFFCURVE",
"219 1330 OFFCURVE",
"575 1330 QCURVE SMOOTH",
"636 1330 LINE",
"646 1331 LINE",
"677 1331 LINE SMOOTH"
);
},
{
closed = 1;
nodes = (
"53 -17 OFFCURVE",
"74 -29 OFFCURVE",
"335 -29 QCURVE SMOOTH",
"784 -29 LINE SMOOTH",
"1029 -29 OFFCURVE",
"1092 -22 OFFCURVE",
"1092 13 QCURVE SMOOTH",
"1092 488 LINE",
"1091 588 LINE",
"1091 1012 LINE SMOOTH",
"1091 1398 OFFCURVE",
"1083 1431 OFFCURVE",
"984 1431 QCURVE SMOOTH",
"139 1431 LINE SMOOTH",
"63 1431 OFFCURVE",
"56 1413 QCURVE SMOOTH",
"54 1408 OFFCURVE",
"54 716 QCURVE SMOOTH",
"54 265 LINE",
"53 240 LINE",
"53 40 LINE SMOOTH"
);
}
);
width = 1152;
},
{
layerId = "92A672BF-229C-4BEC-8D25-4DDBB2A38145";
paths = (
{
closed = 1;
nodes = (
"327 65 LINE",
"258 67 LINE",
"249 68 LINE",
"239 69 LINE",
"221 69 OFFCURVE",
"221 70 QCURVE SMOOTH",
"221 93 OFFCURVE",
"468 452 QCURVE SMOOTH",
"475 462 OFFCURVE",
"479 469 QCURVE",
"517 527 LINE",
"522 536 LINE",
"571 611 LINE",
"575 611 OFFCURVE",
"667 469 OFFCURVE",
"675 457 QCURVE SMOOTH",
"923 96 OFFCURVE",
"923 75 QCURVE SMOOTH",
"923 65 OFFCURVE",
"814 65 QCURVE SMOOTH"
);
},
{
closed = 1;
nodes = (
"150 1231 OFFCURVE",
"154 1231 QCURVE",
"240 1104 LINE SMOOTH",
"247 1093 OFFCURVE",
"511 707 OFFCURVE",
"511 699 QCURVE SMOOTH",
"511 689 LINE SMOOTH",
"511 683 OFFCURVE",
"417 549 OFFCURVE",
"374 483 OFFCURVE",
"348 446 OFFCURVE",
"326 412 QCURVE SMOOTH",
"265 322 LINE SMOOTH",
"160 161 OFFCURVE",
"150 161 OFFCURVE",
"150 357 QCURVE SMOOTH",
"150 725 LINE SMOOTH"
);
},
{
closed = 1;
nodes = (
"993 165 OFFCURVE",
"982 165 OFFCURVE",
"785 467 OFFCURVE",
"632 686 OFFCURVE",
"632 720 OFFCURVE",
"885 1082 OFFCURVE",
"983 1232 OFFCURVE",
"993 1232 OFFCURVE",
"993 754 QCURVE SMOOTH",
"993 635 LINE SMOOTH"
);
},
{
closed = 1;
nodes = (
"931 1331 OFFCURVE",
"931 1313 OFFCURVE",
"851 1199 QCURVE SMOOTH",
"728 1013 LINE SMOOTH",
"714 993 OFFCURVE",
"696 965 OFFCURVE",
"580 786 OFFCURVE",
"570 786 OFFCURVE",
"422 1015 OFFCURVE",
"378 1077 OFFCURVE",
"323 1162 OFFCURVE",
"219 1313 OFFCURVE",
"219 1330 OFFCURVE",
"575 1330 QCURVE SMOOTH",
"636 1330 LINE",
"646 1331 LINE",
"677 1331 LINE SMOOTH"
);
},
{
closed = 1;
nodes = (
"53 -17 OFFCURVE",
"74 -29 OFFCURVE",
"335 -29 QCURVE SMOOTH",
"784 -29 LINE SMOOTH",
"1029 -29 OFFCURVE",
"1092 -22 OFFCURVE",
"1092 13 QCURVE SMOOTH",
"1092 488 LINE",
"1091 588 LINE",
"1091 1012 LINE SMOOTH",
"1091 1398 OFFCURVE",
"1083 1431 OFFCURVE",
"984 1431 QCURVE SMOOTH",
"139 1431 LINE SMOOTH",
"63 1431 OFFCURVE",
"56 1413 QCURVE SMOOTH",
"54 1408 OFFCURVE",
"54 716 QCURVE SMOOTH",
"54 265 LINE",
"53 240 LINE",
"53 40 LINE SMOOTH"
);
}
);
width = 1152;
}
);
note = uni0000;
},
{
glyphname = exclam;
lastChange = "2018-12-06 23:43:23 +0000";
layers = (
{
layerId = "5CBF0BAD-1756-4F16-9711-93DC239D102B";
paths = (
{
closed = 1;
nodes = (
"193 1285 LINE SMOOTH",
"193 1069 OFFCURVE",
"267 477 QCURVE SMOOTH",
"276 406 OFFCURVE",
"329 406 QCURVE SMOOTH",
"342 406 LINE SMOOTH",
"410 406 OFFCURVE",
"428 484 OFFCURVE",
"449 731 OFFCURVE",
"487 1051 OFFCURVE",
"487 1163 OFFCURVE",
"489 1187 QCURVE SMOOTH",
"491 1211 LINE",
"491 1222 OFFCURVE",
"492 1234 QCURVE",
"493 1258 LINE",
"494 1269 LINE",
"494 1316 LINE SMOOTH",
"494 1378 OFFCURVE",
"445 1435 OFFCURVE",
"386 1435 QCURVE",
"374 1436 LINE",
"193 1436 OFFCURVE",
"193 1330 QCURVE SMOOTH"
);
},
{
closed = 1;
nodes = (
"273 275 OFFCURVE",
"181 183 OFFCURVE",
"181 128 QCURVE",
"180 123 LINE",
"180 117 LINE SMOOTH",
"180 56 OFFCURVE",
"268 -32 OFFCURVE",
"317 -32 QCURVE SMOOTH",
"322 -32 OFFCURVE",
"332 -34 QCURVE",
"359 -34 LINE",
"369 -32 LINE",
"421 -32 OFFCURVE",
"510 57 OFFCURVE",
"510 98 QCURVE SMOOTH",
"510 103 OFFCURVE",
"512 113 QCURVE",
"512 129 LINE SMOOTH",
"512 192 OFFCURVE",
"415 275 OFFCURVE",
"355 275 QCURVE SMOOTH",
"339 275 LINE SMOOTH"
);
}
);
width = 646;
},
{
layerId = "92A672BF-229C-4BEC-8D25-4DDBB2A38145";
paths = (
{
closed = 1;
nodes = (
"415 1370 OFFCURVE",
"366 1423 OFFCURVE",
"317 1423 QCURVE SMOOTH",
"305 1423 LINE SMOOTH",
"242 1423 OFFCURVE",
"186 1371 OFFCURVE",
"186 1289 QCURVE SMOOTH",
"189 1180 LINE",
"193 1111 LINE",
"194 1076 LINE",
"196 1052 LINE",
"196 1029 OFFCURVE",
"200 981 QCURVE SMOOTH",
"202 957 LINE",
"202 945 OFFCURVE",
"205 909 QCURVE SMOOTH",
"208 873 LINE",
"208 861 OFFCURVE",
"213 801 QCURVE SMOOTH",
"236 515 LINE",
"236 391 OFFCURVE",
"290 391 QCURVE SMOOTH",
"301 391 LINE SMOOTH",
"333 391 OFFCURVE",
"342 441 QCURVE SMOOTH",
"409 809 OFFCURVE",
"409 1135 QCURVE",
"412 1181 LINE",
"412 1191 OFFCURVE",
"413 1203 QCURVE",
"414 1226 LINE",
"415 1237 LINE",
"415 1304 LINE SMOOTH"
);
},
{
closed = 1;
nodes = (
"295 -21 LINE",
"316 -18 LINE",
"351 -18 OFFCURVE",
"422 53 OFFCURVE",
"422 93 QCURVE SMOOTH",
"422 113 LINE SMOOTH",
"422 158 OFFCURVE",
"347 220 OFFCURVE",
"316 220 OFFCURVE",
"301 223 QCURVE",
"289 223 LINE",
"268 220 LINE",
"226 220 OFFCURVE",
"162 143 OFFCURVE",
"162 109 QCURVE SMOOTH",
"162 89 LINE SMOOTH",
"162 38 OFFCURVE",
"244 -21 OFFCURVE",
"283 -21 QCURVE SMOOTH"
);
}
);
width = 590;
}
);
note = uni0021;
unicode = 0021;
},
{
glyphname = quotedbl;
lastChange = "2018-12-06 23:43:23 +0000";
layers = (
{
layerId = "5CBF0BAD-1756-4F16-9711-93DC239D102B";
paths = (
{
closed = 1;
nodes = (
"125 1444 OFFCURVE",
"125 1367 QCURVE",
"124 1360 LINE",
"124 1347 LINE",
"125 1340 LINE",
"126 1326 LINE",
"131 1283 LINE",
"131 1269 OFFCURVE",
"160 1066 QCURVE",
"168 949 LINE",
"170 935 LINE",
"170 885 OFFCURVE",
"215 885 QCURVE SMOOTH",
"244 885 LINE",
"258 887 LINE",
"304 887 OFFCURVE",
"317 917 QCURVE SMOOTH",
"357 1013 OFFCURVE",
"357 1155 QCURVE SMOOTH",
"357 1161 OFFCURVE",
"361 1191 QCURVE SMOOTH",
"365 1221 LINE",
"373 1315 LINE",
"373 1326 OFFCURVE",
"373 1337 QCURVE",
"374 1345 LINE",
"374 1352 LINE SMOOTH",
"374 1404 OFFCURVE",
"338 1444 OFFCURVE",
"287 1444 QCURVE SMOOTH",
"273 1444 LINE SMOOTH"
);
},
{
closed = 1;
nodes = (
"493 1338 LINE",
"495 1324 LINE",
"495 1310 OFFCURVE",
"499 1282 QCURVE SMOOTH",
"526 1087 LINE",
"526 1080 OFFCURVE",
"527 1072 QCURVE",
"532 1006 LINE",
"532 884 OFFCURVE",
"582 884 QCURVE SMOOTH",
"611 884 LINE SMOOTH",
"671 884 OFFCURVE",
"684 916 QCURVE SMOOTH",
"730 1026 OFFCURVE",
"730 1197 QCURVE SMOOTH",
"730 1206 OFFCURVE",
"734 1234 QCURVE",
"737 1271 LINE",
"740 1314 LINE",
"741 1321 LINE",
"741 1365 LINE SMOOTH",
"741 1406 OFFCURVE",
"704 1443 OFFCURVE",
"656 1443 QCURVE SMOOTH",
"648 1443 LINE",
"619 1442 LINE",
"611 1441 LINE",
"604 1440 LINE",
"546 1440 OFFCURVE",
"493 1398 OFFCURVE",
"493 1373 QCURVE SMOOTH"
);
}
);
width = 862;
},
{
layerId = "92A672BF-229C-4BEC-8D25-4DDBB2A38145";
paths = (
{
closed = 1;
nodes = (
"111 1355 LINE",
"137 1195 LINE",
"137 1183 OFFCURVE",
"140 1162 QCURVE",
"144 1115 LINE",
"144 1105 OFFCURVE",
"144 1095 QCURVE",
"145 1082 LINE",
"145 1069 OFFCURVE",
"145 1056 QCURVE SMOOTH",
"145 921 OFFCURVE",
"178 921 QCURVE SMOOTH",
"191 921 LINE SMOOTH",
"230 921 OFFCURVE",
"243 958 QCURVE SMOOTH",
"294 1098 OFFCURVE",
"294 1210 QCURVE SMOOTH",
"294 1226 OFFCURVE",
"301 1268 QCURVE",
"304 1307 LINE",
"304 1313 OFFCURVE",
"304 1319 QCURVE",
"305 1326 LINE",
"305 1364 LINE",
"303 1376 LINE",
"303 1447 OFFCURVE",
"231 1447 QCURVE SMOOTH",
"204 1447 LINE SMOOTH",
"111 1447 OFFCURVE",
"111 1380 QCURVE SMOOTH"
);
},
{
closed = 1;
nodes = (
"470 1131 LINE",
"472 1098 LINE",
"472 1059 LINE SMOOTH",
"472 921 OFFCURVE",
"503 921 QCURVE SMOOTH",
"516 921 LINE SMOOTH",
"556 921 OFFCURVE",
"569 956 QCURVE SMOOTH",
"620 1096 OFFCURVE",
"620 1194 QCURVE",
"627 1247 LINE",
"630 1279 LINE",
"632 1304 LINE",
"633 1311 LINE",
"633 1368 LINE SMOOTH",
"633 1447 OFFCURVE",
"555 1447 QCURVE SMOOTH",
"529 1447 LINE SMOOTH",
"439 1447 OFFCURVE",
"439 1370 QCURVE SMOOTH",
"439 1363 LINE SMOOTH",
"439 1306 OFFCURVE",
"465 1207 OFFCURVE",
"465 1194 OFFCURVE",
"470 1144 QCURVE"
);
}
);
width = 758;
}
);
note = uni0022;
unicode = 0022;
},
{
glyphname = numbersign;
lastChange = "2018-12-06 23:43:23 +0000";
layers = (
{
layerId = "5CBF0BAD-1756-4F16-9711-93DC239D102B";
paths = (
{
closed = 1;
nodes = (
"757 815 OFFCURVE",
"757 802 QCURVE SMOOTH",
"757 797 OFFCURVE",
"752 767 OFFCURVE",
"747 737 OFFCURVE",
"741 696 OFFCURVE",
"730 641 QCURVE",
"725 610 LINE",
"725 605 OFFCURVE",
"719 575 QCURVE",
"719 541 OFFCURVE",
"593 541 QCURVE SMOOTH",
"573 541 LINE",
"568 540 LINE",
"506 540 LINE SMOOTH",
"480 540 OFFCURVE",
"480 549 QCURVE SMOOTH",
"480 562 LINE",
"484 582 LINE",
"484 587 OFFCURVE",
"492 633 OFFCURVE",
"497 665 QCURVE SMOOTH",
"500 683 OFFCURVE",
"505 714 OFFCURVE",
"512 749 QCURVE",
"512 815 OFFCURVE",
"566 815 QCURVE SMOOTH",
"740 815 LINE SMOOTH"
);
},
{
closed = 1;
nodes = (
"1007 1335 OFFCURVE",
"928 1335 QCURVE SMOOTH",
"871 1335 OFFCURVE",
"834 1265 OFFCURVE",
"792 1021 OFFCURVE",
"784 1006 QCURVE SMOOTH",
"766 973 OFFCURVE",
"707 973 QCURVE SMOOTH",
"561 973 OFFCURVE",
"561 996 QCURVE",
"595 1274 LINE",
"595 1304 OFFCURVE",
"562 1336 OFFCURVE",
"492 1336 QCURVE SMOOTH",
"447 1336 OFFCURVE",
"429 1285 QCURVE SMOOTH",
"422 1266 OFFCURVE",
"380 1023 OFFCURVE",
"332 979 OFFCURVE",
"187 965 OFFCURVE",
"172 959 QCURVE SMOOTH",
"126 939 OFFCURVE",
"126 860 QCURVE SMOOTH",
"126 819 OFFCURVE",
"306 811 OFFCURVE",
"330 795 OFFCURVE",
"330 758 QCURVE SMOOTH",
"330 627 OFFCURVE",
"290 569 QCURVE SMOOTH",
"271 542 OFFCURVE",
"133 536 OFFCURVE",
"114 524 QCURVE SMOOTH",
"75 500 OFFCURVE",
"75 421 OFFCURVE",
"106 392 OFFCURVE",
"215 378 OFFCURVE",
"252 347 OFFCURVE",
"252 297 QCURVE",
"228 63 LINE",
"228 17 OFFCURVE",
"361 17 OFFCURVE",
"403 86 OFFCURVE",
"442 337 OFFCURVE",
"471 383 OFFCURVE",
"534 383 QCURVE SMOOTH",
"675 383 OFFCURVE",
"675 354 QCURVE SMOOTH",
"675 315 OFFCURVE",
"646 143 OFFCURVE",
"646 14 OFFCURVE",
"791 14 OFFCURVE",
"810 65 QCURVE",
"815 77 OFFCURVE",
"854 317 OFFCURVE",
"901 377 OFFCURVE",
"1063 392 OFFCURVE",
"1112 429 OFFCURVE",
"1112 490 QCURVE SMOOTH",
"1112 542 OFFCURVE",
"1023 542 QCURVE SMOOTH",
"902 542 OFFCURVE",
"902 587 QCURVE SMOOTH",
"902 720 OFFCURVE",
"941 784 QCURVE SMOOTH",
"958 812 OFFCURVE",
"1106 821 OFFCURVE",
"1119 826 QCURVE SMOOTH",
"1164 843 OFFCURVE",
"1164 895 QCURVE SMOOTH",
"1164 925 LINE SMOOTH",
"1164 963 OFFCURVE",
"1007 980 OFFCURVE",
"985 1012 OFFCURVE",
"985 1046 QCURVE",
"1007 1277 LINE"
);
}
);
width = 1251;
},
{
layerId = "92A672BF-229C-4BEC-8D25-4DDBB2A38145";
paths = (
{
closed = 1;
nodes = (
"483 795 OFFCURVE",
"523 825 OFFCURVE",
"638 825 QCURVE",
"644 826 LINE",
"692 826 LINE",
"715 824 LINE",
"726 824 LINE",
"754 821 LINE",
"768 821 OFFCURVE",
"768 810 QCURVE SMOOTH",
"768 805 LINE",
"717 568 LINE",
"717 526 OFFCURVE",
"667 511 OFFCURVE",
"569 511 QCURVE",
"551 509 LINE",
"497 509 LINE SMOOTH",
"438 509 OFFCURVE",
"438 523 QCURVE SMOOTH",
"438 528 LINE SMOOTH",
"438 548 OFFCURVE",
"456 598 OFFCURVE",
"463 643 OFFCURVE",
"483 721 OFFCURVE",
"483 730 QCURVE SMOOTH"
);
},
{
closed = 1;
nodes = (
"92 414 OFFCURVE",
"228 389 OFFCURVE",
"267 343 OFFCURVE",
"267 302 QCURVE",
"235 74 LINE",
"235 32 OFFCURVE",
"284 32 QCURVE SMOOTH",
"318 32 OFFCURVE",
"354 107 OFFCURVE",
"402 359 OFFCURVE",
"436 405 OFFCURVE",
"647 405 OFFCURVE",
"673 383 OFFCURVE",
"673 342 OFFCURVE",
"628 120 OFFCURVE",
"628 32 OFFCURVE",
"713 32 OFFCURVE",
"734 77 QCURVE SMOOTH",
"738 85 OFFCURVE",
"796 326 OFFCURVE",
"853 395 OFFCURVE",
"1055 417 OFFCURVE",
"1055 454 QCURVE SMOOTH",
"1055 500 OFFCURVE",
"1024 510 QCURVE SMOOTH",
"1007 515 OFFCURVE",
"883 523 OFFCURVE",
"871 529 QCURVE SMOOTH",
"845 542 OFFCURVE",
"845 594 QCURVE SMOOTH",
"845 722 OFFCURVE",
"897 787 QCURVE SMOOTH",
"909 802 OFFCURVE",
"1042 822 QCURVE SMOOTH",
"1112 832 OFFCURVE",
"1112 877 QCURVE SMOOTH",
"1112 910 OFFCURVE",
"990 947 OFFCURVE",
"947 988 OFFCURVE",
"947 1053 QCURVE",
"969 1245 LINE",
"969 1293 OFFCURVE",
"885 1293 OFFCURVE",
"860 1229 QCURVE SMOOTH",
"848 1198 OFFCURVE",
"802 974 OFFCURVE",
"795 961 QCURVE SMOOTH",
"776 928 OFFCURVE",
"571 928 OFFCURVE",
"534 948 OFFCURVE",
"534 990 OFFCURVE",
"579 1215 OFFCURVE",
"579 1299 OFFCURVE",
"495 1299 OFFCURVE",
"462 1230 OFFCURVE",
"415 1004 OFFCURVE",
"355 939 OFFCURVE",
"200 918 OFFCURVE",
"188 912 QCURVE SMOOTH",
"153 896 OFFCURVE",
"153 851 QCURVE SMOOTH",
"153 822 OFFCURVE",
"282 812 QCURVE SMOOTH",
"360 806 OFFCURVE",
"360 760 QCURVE SMOOTH",
"360 596 OFFCURVE",
"306 541 QCURVE SMOOTH",
"284 519 OFFCURVE",
"142 510 OFFCURVE",
"128 504 QCURVE",
"92 487 OFFCURVE",
"92 448 QCURVE SMOOTH"
);
}
);
width = 1227;
}
);
note = uni0023;
unicode = 0023;
},
{
glyphname = dollar;
lastChange = "2018-12-06 23:43:23 +0000";
layers = (
{
layerId = "5CBF0BAD-1756-4F16-9711-93DC239D102B";
paths = (
{
closed = 1;
nodes = (
"388 1133 OFFCURVE",
"476 1236 OFFCURVE",
"499 1236 QCURVE",
"503 1237 LINE",
"507 1237 LINE SMOOTH",
"528 1237 OFFCURVE",
"528 1126 QCURVE SMOOTH",
"528 1116 LINE",
"527 1100 LINE",
"527 1095 OFFCURVE",
"527 1090 QCURVE",
"526 1080 LINE",
"526 1070 OFFCURVE",
"526 1060 QCURVE",
"525 1049 LINE",
"525 932 LINE SMOOTH",
"525 824 OFFCURVE",
"522 824 QCURVE SMOOTH",
"519 824 LINE SMOOTH",
"485 824 OFFCURVE",
"388 960 OFFCURVE",
"388 1026 QCURVE SMOOTH",
"388 1062 LINE SMOOTH"
);
},
{
closed = 1;
nodes = (
"637 132 LINE",
"637 135 OFFCURVE",
"637 138 QCURVE",
"639 148 LINE",
"639 158 OFFCURVE",
"668 228 OFFCURVE",
"668 258 OFFCURVE",
"670 272 QCURVE",
"670 302 LINE SMOOTH",
"670 324 OFFCURVE",
"658 363 QCURVE",
"637 423 LINE",
"630 485 LINE",
"630 521 LINE",
"636 565 LINE",
"636 590 OFFCURVE",
"645 590 QCURVE SMOOTH",
"648 590 LINE SMOOTH",
"701 590 OFFCURVE",
"744 536 QCURVE",
"747 533 OFFCURVE",
"761 449 OFFCURVE",
"805 335 OFFCURVE",
"805 321 QCURVE SMOOTH",
"805 281 LINE SMOOTH",
"805 229 OFFCURVE",
"751 155 OFFCURVE",
"663 155 OFFCURVE",
"639 131 QCURVE"
);
},
{
closed = 1;
nodes = (
"952 1230 OFFCURVE",
"911 1262 QCURVE SMOOTH",
"890 1278 OFFCURVE",
"728 1311 OFFCURVE",
"656 1352 OFFCURVE",
"629 1459 OFFCURVE",
"532 1459 OFFCURVE",
"506 1396 QCURVE SMOOTH",
"492 1361 OFFCURVE",
"478 1346 QCURVE",
"465 1331 OFFCURVE",
"288 1242 OFFCURVE",
"241 1193 QCURVE SMOOTH",
"156 1104 OFFCURVE",
"156 852 OFFCURVE",
"227 766 QCURVE SMOOTH",
"270 714 OFFCURVE",
"450 592 OFFCURVE",
"500 508 OFFCURVE",
"500 377 QCURVE SMOOTH",
"500 164 OFFCURVE",
"455 164 QCURVE SMOOTH",
"393 164 OFFCURVE",
"237 367 OFFCURVE",
"215 367 QCURVE SMOOTH",
"176 367 OFFCURVE",
"142 325 OFFCURVE",
"142 273 QCURVE SMOOTH",
"142 242 LINE SMOOTH",
"142 122 OFFCURVE",
"214 46 OFFCURVE",
"412 -12 OFFCURVE",
"440 -27 QCURVE SMOOTH",
"497 -59 OFFCURVE",
"523 -176 OFFCURVE",
"615 -176 OFFCURVE",
"633 -146 QCURVE SMOOTH",
"639 -136 OFFCURVE",
"662 -41 OFFCURVE",
"682 -28 QCURVE",
"757 10 LINE",
"758 10 OFFCURVE",
"883 74 OFFCURVE",
"932 128 QCURVE SMOOTH",
"1022 227 OFFCURVE",
"1022 356 QCURVE SMOOTH",
"1022 568 OFFCURVE",
"822 686 QCURVE SMOOTH",
"798 700 OFFCURVE",
"680 759 OFFCURVE",
"639 808 OFFCURVE",
"639 887 QCURVE SMOOTH",
"639 1126 OFFCURVE",
"690 1126 QCURVE SMOOTH",
"710 1126 OFFCURVE",
"851 989 OFFCURVE",
"882 989 QCURVE SMOOTH",
"952 989 OFFCURVE",
"952 1128 QCURVE SMOOTH"
);
}
);
width = 1153;
},
{
layerId = "92A672BF-229C-4BEC-8D25-4DDBB2A38145";
paths = (
{
closed = 1;
nodes = (
"514 1254 OFFCURVE",
"514 1229 QCURVE",
"513 1224 LINE",
"513 1218 OFFCURVE",
"513 1212 QCURVE",
"509 1183 LINE",
"509 1177 OFFCURVE",
"505 1153 QCURVE",
"503 1128 LINE",
"502 1109 LINE",
"502 1071 LINE",
"504 1058 LINE",
"504 1052 OFFCURVE",
"505 1046 QCURVE SMOOTH",
"514 994 LINE",
"514 943 LINE",
"512 926 LINE",
"512 920 OFFCURVE",
"508 900 QCURVE",
"499 842 LINE",
"499 792 OFFCURVE",
"488 792 QCURVE SMOOTH",
"481 792 LINE SMOOTH",
"424 792 OFFCURVE",
"327 947 OFFCURVE",
"327 1022 QCURVE SMOOTH",
"327 1028 OFFCURVE",
"323 1052 QCURVE",
"323 1076 LINE SMOOTH",
"323 1115 OFFCURVE",
"447 1254 OFFCURVE",
"497 1254 QCURVE SMOOTH",
"506 1254 LINE SMOOTH"
);
},
{
closed = 1;
nodes = (
"810 345 OFFCURVE",
"812 331 QCURVE",
"812 325 LINE SMOOTH",
"812 219 OFFCURVE",
"690 112 OFFCURVE",
"607 112 QCURVE SMOOTH",
"598 112 LINE SMOOTH",
"589 112 OFFCURVE",
"589 143 OFFCURVE",
"586 158 QCURVE",
"586 180 LINE",
"590 243 LINE",
"590 322 LINE",
"587 379 LINE",
"586 385 LINE",
"586 457 LINE SMOOTH",
"586 593 OFFCURVE",
"597 593 QCURVE SMOOTH",
"601 593 LINE SMOOTH",
"665 593 OFFCURVE",
"752 506 QCURVE SMOOTH",
"810 448 OFFCURVE",
"810 351 QCURVE SMOOTH"
);
},
{
closed = 1;
nodes = (
"226 46 OFFCURVE",
"424 5 OFFCURVE",
"486 -47 OFFCURVE",
"506 -174 OFFCURVE",
"535 -174 QCURVE SMOOTH",
"558 -174 LINE SMOOTH",
"579 -174 OFFCURVE",
"602 -44 OFFCURVE",
"649 -8 OFFCURVE",
"743 27 OFFCURVE",
"762 36 QCURVE SMOOTH",
"974 134 OFFCURVE",
"974 342 QCURVE SMOOTH",
"974 468 OFFCURVE",
"858 619 OFFCURVE",
"713 697 QCURVE SMOOTH",
"684 712 LINE SMOOTH",
"647 732 OFFCURVE",
"634 745 QCURVE SMOOTH",
"599 781 OFFCURVE",
"599 882 QCURVE SMOOTH",
"599 1090 OFFCURVE",
"625 1165 OFFCURVE",
"718 1165 OFFCURVE",
"831 993 OFFCURVE",
"851 993 QCURVE SMOOTH",
"909 993 OFFCURVE",
"909 1124 QCURVE SMOOTH",
"909 1197 OFFCURVE",
"854 1246 OFFCURVE",
"716 1272 OFFCURVE",
"628 1321 OFFCURVE",
"594 1435 OFFCURVE",
"561 1435 QCURVE SMOOTH",
"537 1435 OFFCURVE",
"494 1332 OFFCURVE",
"452 1295 OFFCURVE",
"349 1250 OFFCURVE",
"341 1246 QCURVE SMOOTH",
"269 1210 OFFCURVE",
"164 1076 OFFCURVE",
"164 858 OFFCURVE",
"226 774 QCURVE SMOOTH",
"265 721 OFFCURVE",
"472 598 OFFCURVE",
"507 542 OFFCURVE",
"507 208 OFFCURVE",
"489 106 OFFCURVE",
"457 106 QCURVE SMOOTH",
"388 106 OFFCURVE",
"331 159 QCURVE SMOOTH",
"305 183 OFFCURVE",
"226 345 OFFCURVE",
"202 345 QCURVE SMOOTH",
"150 345 OFFCURVE",
"150 109 OFFCURVE",
"196 71 QCURVE SMOOTH"
);
}
);
width = 1101;
}
);
note = uni0024;
unicode = 0024;
},
{
glyphname = percent;
lastChange = "2018-12-06 23:43:23 +0000";
layers = (
{
layerId = "5CBF0BAD-1756-4F16-9711-93DC239D102B";
paths = (
{
closed = 1;
nodes = (
"446 1267 OFFCURVE",
"519 1163 OFFCURVE",
"519 1089 QCURVE",
"521 1063 LINE",
"523 1042 LINE",
"523 971 LINE SMOOTH",
"523 892 OFFCURVE",
"466 777 OFFCURVE",
"423 777 QCURVE SMOOTH",
"407 777 LINE SMOOTH",
"373 777 OFFCURVE",
"292 882 OFFCURVE",
"292 961 QCURVE",
"290 988 LINE",
"289 1009 LINE",
"288 1016 LINE",
"288 1053 LINE SMOOTH",
"288 1149 OFFCURVE",
"353 1267 OFFCURVE",
"395 1267 QCURVE SMOOTH",
"411 1267 LINE SMOOTH"
);
},
{
closed = 1;
nodes = (
"1099 402 LINE",
"1101 441 LINE",
"1101 448 OFFCURVE",
"1105 472 QCURVE",
"1105 533 OFFCURVE",
"1169 615 OFFCURVE",
"1200 615 QCURVE",
"1205 616 LINE",
"1216 616 LINE SMOOTH",
"1260 616 OFFCURVE",
"1334 484 OFFCURVE",
"1334 390 QCURVE SMOOTH",
"1334 332 LINE",
"1332 305 LINE",
"1332 298 OFFCURVE",
"1330 286 QCURVE",
"1330 222 OFFCURVE",
"1263 126 OFFCURVE",
"1227 126 QCURVE SMOOTH",
"1211 126 LINE SMOOTH",
"1167 126 OFFCURVE",
"1099 261 OFFCURVE",
"1099 366 QCURVE SMOOTH"
);
},
{
closed = 1;
nodes = (
"309 1374 OFFCURVE",
"204 1269 QCURVE SMOOTH",
"163 1228 OFFCURVE",
"101 1083 OFFCURVE",
"101 1006 QCURVE SMOOTH",
"101 960 LINE SMOOTH",
"101 814 OFFCURVE",
"269 646 OFFCURVE",
"390 646 QCURVE SMOOTH",
"401 646 LINE SMOOTH",
"472 646 OFFCURVE",
"604 705 OFFCURVE",
"641 745 QCURVE SMOOTH",
"752 863 OFFCURVE",
"752 1015 QCURVE SMOOTH",
"752 1061 LINE SMOOTH",
"752 1207 OFFCURVE",
"585 1374 OFFCURVE",
"474 1374 QCURVE SMOOTH",
"429 1374 LINE SMOOTH"
);
},
{
closed = 1;
nodes = (
"492 -6 OFFCURVE",
"579 127 QCURVE SMOOTH",
"1324 1264 OFFCURVE",
"1324 1326 QCURVE SMOOTH",
"1324 1364 OFFCURVE",
"1247 1364 QCURVE SMOOTH",
"1230 1364 LINE SMOOTH",
"1177 1364 OFFCURVE",
"1108 1258 QCURVE SMOOTH",
"342 89 OFFCURVE",
"342 30 QCURVE SMOOTH",
"342 -6 OFFCURVE",
"421 -6 QCURVE SMOOTH",
"438 -6 LINE SMOOTH"
);
},
{
closed = 1;
nodes = (
"1171 708 OFFCURVE",
"1039 645 OFFCURVE",
"1000 594 QCURVE SMOOTH",
"921 491 OFFCURVE",
"921 350 QCURVE SMOOTH",
"921 339 LINE SMOOTH",
"921 193 OFFCURVE",
"1001 96 QCURVE SMOOTH",
"1041 48 OFFCURVE",
"1162 -10 OFFCURVE",
"1225 -10 QCURVE SMOOTH",
"1237 -10 LINE SMOOTH",
"1370 -10 OFFCURVE",
"1564 184 OFFCURVE",
"1564 325 QCURVE SMOOTH",
"1564 382 LINE SMOOTH",
"1564 521 OFFCURVE",
"1377 708 OFFCURVE",
"1253 708 QCURVE SMOOTH",
"1231 708 LINE SMOOTH"
);
}
);
width = 1663;
},
{
layerId = "92A672BF-229C-4BEC-8D25-4DDBB2A38145";
paths = (
{
closed = 1;
nodes = (
"524 890 OFFCURVE",
"448 750 OFFCURVE",
"387 750 QCURVE SMOOTH",
"374 750 LINE SMOOTH",
"318 750 OFFCURVE",
"237 877 OFFCURVE",
"237 946 QCURVE",
"235 976 LINE",
"234 1000 LINE",
"233 1008 LINE",
"233 1024 LINE SMOOTH",
"233 1151 OFFCURVE",
"316 1282 OFFCURVE",
"374 1282 QCURVE",
"380 1283 LINE",
"438 1283 OFFCURVE",
"521 1164 OFFCURVE",
"521 1080 QCURVE SMOOTH",
"521 1066 OFFCURVE",
"524 1042 QCURVE",
"524 993 LINE SMOOTH"
);
},
{
closed = 1;
nodes = (
"1313 222 OFFCURVE",
"1223 81 OFFCURVE",
"1168 81 QCURVE SMOOTH",
"1143 81 LINE SMOOTH",
"1087 81 OFFCURVE",
"1009 224 OFFCURVE",
"1009 332 QCURVE",
"1008 341 LINE",
"1008 349 LINE SMOOTH",
"1008 470 OFFCURVE",
"1091 622 OFFCURVE",
"1156 622 QCURVE SMOOTH",
"1168 622 LINE SMOOTH",
"1222 622 OFFCURVE",
"1310 501 OFFCURVE",
"1310 419 QCURVE SMOOTH",
"1310 404 OFFCURVE",
"1313 380 QCURVE",
"1313 338 LINE SMOOTH"
);
},
{
closed = 1;
nodes = (
"711 1159 OFFCURVE",
"569 1348 OFFCURVE",
"447 1348 QCURVE SMOOTH",
"403 1348 LINE SMOOTH",
"279 1348 OFFCURVE",
"105 1147 OFFCURVE",
"105 1012 QCURVE SMOOTH",
"105 978 LINE SMOOTH",
"105 831 OFFCURVE",
"264 660 OFFCURVE",
"380 660 QCURVE SMOOTH",
"402 660 LINE SMOOTH",
"530 660 OFFCURVE",
"711 854 OFFCURVE",
"711 997 QCURVE SMOOTH",
"711 1031 LINE SMOOTH"
);
},
{
closed = 1;
nodes = (
"812 875 OFFCURVE",
"341 100 QCURVE SMOOTH",
"301 34 OFFCURVE",
"301 17 QCURVE SMOOTH",
"301 -8 OFFCURVE",
"400 -8 OFFCURVE",
"447 63 QCURVE SMOOTH",
"1239 1272 OFFCURVE",
"1239 1337 QCURVE SMOOTH",
"1239 1362 OFFCURVE",
"1142 1362 OFFCURVE",
"1085 1278 QCURVE SMOOTH"
);
},
{
closed = 1;
nodes = (
"890 197 OFFCURVE",
"957 106 QCURVE SMOOTH",
"988 63 OFFCURVE",
"1097 2 OFFCURVE",
"1159 2 QCURVE SMOOTH",
"1190 2 LINE SMOOTH",
"1314 2 OFFCURVE",
"1471 198 OFFCURVE",
"1471 330 QCURVE",
"1472 341 LINE",
"1472 352 LINE SMOOTH",
"1472 498 OFFCURVE",
"1308 675 OFFCURVE",
"1190 675 QCURVE SMOOTH",
"1179 675 LINE SMOOTH",
"1053 675 OFFCURVE",
"890 487 OFFCURVE",
"890 347 QCURVE SMOOTH",
"890 325 LINE SMOOTH"
);
}
);
width = 1585;
}
);
note = uni0025;
unicode = 0025;
},
{
glyphname = ampersand;
lastChange = "2018-12-06 23:43:23 +0000";
layers = (
{
layerId = "5CBF0BAD-1756-4F16-9711-93DC239D102B";
paths = (
{
closed = 1;
nodes = (
"534 1210 OFFCURVE",
"612 1288 OFFCURVE",
"646 1288 QCURVE SMOOTH",
"670 1288 LINE SMOOTH",
"713 1288 OFFCURVE",
"783 1184 OFFCURVE",
"783 1136 QCURVE SMOOTH",
"783 1108 LINE SMOOTH",
"783 1044 OFFCURVE",
"745 987 QCURVE SMOOTH",
"673 879 OFFCURVE",
"633 879 QCURVE SMOOTH",
"616 879 OFFCURVE",
"600 911 QCURVE SMOOTH",
"534 1043 OFFCURVE",
"534 1107 QCURVE SMOOTH",
"534 1139 LINE SMOOTH"
);
},
{
closed = 1;
nodes = (
"357 477 OFFCURVE",
"385 528 QCURVE SMOOTH",
"433 616 OFFCURVE",
"466 616 QCURVE SMOOTH",
"471 616 LINE SMOOTH",
"486 616 OFFCURVE",
"671 372 OFFCURVE",
"804 226 OFFCURVE",
"804 218 QCURVE SMOOTH",
"804 213 LINE SMOOTH",
"804 200 OFFCURVE",
"712 133 OFFCURVE",
"663 133 QCURVE SMOOTH",
"656 133 OFFCURVE",
"642 131 QCURVE",
"591 131 LINE SMOOTH",
"494 131 OFFCURVE",
"357 281 OFFCURVE",
"357 378 QCURVE SMOOTH",
"357 409 LINE SMOOTH"
);
},
{
closed = 1;
nodes = (
"1017 673 OFFCURVE",
"1027 648 QCURVE",
"1027 590 OFFCURVE",
"981 541 OFFCURVE",
"958 541 QCURVE SMOOTH",
"909 541 OFFCURVE",
"826 666 OFFCURVE",
"826 821 OFFCURVE",
"939 1047 OFFCURVE",
"939 1117 QCURVE SMOOTH",
"939 1250 OFFCURVE",
"783 1406 OFFCURVE",
"639 1406 QCURVE SMOOTH",
"556 1406 OFFCURVE",
"486 1375 QCURVE SMOOTH",
"283 1284 OFFCURVE",
"283 1070 QCURVE SMOOTH",
"283 998 OFFCURVE",
"358 810 OFFCURVE",
"358 750 OFFCURVE",
"249 648 QCURVE SMOOTH",
"113 521 OFFCURVE",
"113 377 QCURVE SMOOTH",
"113 345 LINE SMOOTH",
"113 287 OFFCURVE",
"170 147 OFFCURVE",
"232 93 QCURVE SMOOTH",
"354 -13 OFFCURVE",
"549 -13 QCURVE SMOOTH",
"651 -13 OFFCURVE",
"883 56 OFFCURVE",
"953 56 OFFCURVE",
"1117 12 OFFCURVE",
"1159 12 QCURVE SMOOTH",
"1282 12 OFFCURVE",
"1375 60 QCURVE SMOOTH",
"1392 69 OFFCURVE",
"1392 78 QCURVE SMOOTH",
"1392 101 OFFCURVE",
"1254 169 OFFCURVE",
"1164 264 OFFCURVE",
"1164 391 OFFCURVE",
"1207 491 OFFCURVE",
"1306 661 OFFCURVE",
"1360 713 OFFCURVE",
"1360 729 QCURVE SMOOTH",
"1360 774 OFFCURVE",
"1173 774 OFFCURVE",
"1072 737 QCURVE SMOOTH",
"1017 717 OFFCURVE",
"1017 681 QCURVE SMOOTH"
);
}
);
width = 1483;
},
{
layerId = "92A672BF-229C-4BEC-8D25-4DDBB2A38145";
paths = (
{
closed = 1;
nodes = (
"464 1185 OFFCURVE",
"495 1229 QCURVE SMOOTH",
"545 1300 OFFCURVE",
"603 1300 QCURVE SMOOTH",
"614 1300 LINE SMOOTH",
"675 1300 OFFCURVE",
"752 1179 OFFCURVE",
"752 1100 QCURVE SMOOTH",
"752 1072 LINE",
"750 1040 LINE",
"750 1034 OFFCURVE",
"748 1022 QCURVE",
"748 971 OFFCURVE",
"641 834 OFFCURVE",
"612 834 QCURVE SMOOTH",
"576 834 OFFCURVE",
"534 911 QCURVE SMOOTH",
"464 1039 OFFCURVE",
"464 1103 QCURVE SMOOTH",
"464 1124 LINE SMOOTH"
);
},
{
closed = 1;
nodes = (
"281 486 OFFCURVE",
"400 671 OFFCURVE",
"456 671 QCURVE SMOOTH",
"477 671 OFFCURVE",
"835 253 OFFCURVE",
"835 235 QCURVE SMOOTH",
"835 228 LINE SMOOTH",
"835 190 OFFCURVE",
"671 102 OFFCURVE",
"608 102 QCURVE SMOOTH",
"554 102 LINE SMOOTH",
"452 102 OFFCURVE",
"281 260 OFFCURVE",
"281 371 QCURVE SMOOTH",
"281 408 LINE SMOOTH"
);
},
{
closed = 1;
nodes = (
"1047 590 OFFCURVE",
"1000 532 QCURVE SMOOTH",
"978 505 OFFCURVE",
"958 505 QCURVE SMOOTH",
"880 505 OFFCURVE",
"831 557 QCURVE SMOOTH",
"748 645 OFFCURVE",
"748 821 OFFCURVE",
"882 1014 OFFCURVE",
"882 1214 OFFCURVE",
"726 1360 OFFCURVE",
"454 1360 OFFCURVE",
"276 1186 OFFCURVE",
"276 1072 QCURVE SMOOTH",
"276 993 OFFCURVE",
"358 804 OFFCURVE",
"358 745 OFFCURVE",
"250 650 QCURVE SMOOTH",
"95 514 OFFCURVE",
"95 197 OFFCURVE",
"324 -13 OFFCURVE",
"497 -13 QCURVE SMOOTH",
"615 -13 OFFCURVE",
"865 80 OFFCURVE",
"881 80 QCURVE SMOOTH",
"937 80 OFFCURVE",
"1091 10 OFFCURVE",
"1262 10 OFFCURVE",
"1320 46 QCURVE SMOOTH",
"1332 53 OFFCURVE",
"1332 81 OFFCURVE",
"1222 139 OFFCURVE",
"1191 176 QCURVE SMOOTH",
"1130 249 OFFCURVE",
"1130 414 OFFCURVE",
"1206 605 OFFCURVE",
"1289 710 OFFCURVE",
"1289 731 QCURVE SMOOTH",
"1289 767 OFFCURVE",
"1201 767 QCURVE SMOOTH",
"1047 767 OFFCURVE",
"1047 695 QCURVE SMOOTH"
);
}
);
width = 1527;
}
);
note = uni0026;
unicode = 0026;
},
{
glyphname = quotesingle;
lastChange = "2018-12-06 23:43:23 +0000";
layers = (
{
layerId = "5CBF0BAD-1756-4F16-9711-93DC239D102B";
paths = (
{
closed = 1;
nodes = (
"200 1463 OFFCURVE",
"129 1424 OFFCURVE",
"129 1391 QCURVE SMOOTH",
"129 1356 LINE",
"132 1336 LINE",
"132 1328 OFFCURVE",
"140 1272 QCURVE SMOOTH",
"145 1236 LINE",
"148 1221 LINE",
"154 1177 LINE",
"167 1089 LINE",
"167 1076 OFFCURVE",
"170 1052 QCURVE",
"174 1000 LINE",
"174 985 OFFCURVE",
"178 957 QCURVE",
"178 902 OFFCURVE",
"234 902 QCURVE SMOOTH",
"255 902 LINE SMOOTH",
"311 902 OFFCURVE",
"324 931 QCURVE SMOOTH",
"370 1032 OFFCURVE",
"370 1207 QCURVE SMOOTH",
"370 1232 OFFCURVE",
"378 1288 QCURVE",
"382 1338 LINE",
"382 1361 LINE",
"383 1368 LINE",
"383 1375 LINE SMOOTH",
"383 1463 OFFCURVE",
"305 1463 QCURVE SMOOTH",
"268 1463 LINE SMOOTH"
);
}
);
width = 514;
},
{
layerId = "92A672BF-229C-4BEC-8D25-4DDBB2A38145";
paths = (
{
closed = 1;
nodes = (
"128 1349 LINE",
"130 1337 LINE",
"130 1314 OFFCURVE",
"153 1222 OFFCURVE",
"153 1196 OFFCURVE",
"154 1189 QCURVE",
"159 1116 LINE",
"159 1077 LINE SMOOTH",
"159 932 OFFCURVE",
"193 932 QCURVE SMOOTH",
"200 932 LINE SMOOTH",
"243 932 OFFCURVE",
"259 976 QCURVE SMOOTH",
"317 1135 OFFCURVE",
"317 1261 QCURVE",
"321 1300 LINE",
"322 1326 LINE",
"323 1332 LINE",
"323 1376 LINE SMOOTH",
"323 1457 OFFCURVE",
"246 1457 QCURVE SMOOTH",
"226 1457 LINE SMOOTH",
"128 1457 OFFCURVE",
"128 1387 QCURVE SMOOTH"
);
}
);
width = 436;
}
);
note = uni0027;
unicode = 0027;
},
{
glyphname = parenleft;
lastChange = "2018-12-06 23:43:23 +0000";
layers = (
{
layerId = "5CBF0BAD-1756-4F16-9711-93DC239D102B";
paths = (
{
closed = 1;
nodes = (
"532 1522 OFFCURVE",
"433 1420 QCURVE SMOOTH",
"233 1213 OFFCURVE",
"167 912 QCURVE SMOOTH",
"133 756 OFFCURVE",
"133 621 QCURVE SMOOTH",
"133 600 LINE SMOOTH",
"133 461 OFFCURVE",
"163 321 QCURVE SMOOTH",
"231 5 OFFCURVE",
"430 -207 QCURVE SMOOTH",
"528 -312 OFFCURVE",
"650 -312 OFFCURVE",
"650 -254 QCURVE SMOOTH",
"650 -246 OFFCURVE",
"547 -69 QCURVE SMOOTH",
"387 205 OFFCURVE",
"387 586 QCURVE SMOOTH",
"387 830 OFFCURVE",
"484 1192 OFFCURVE",
"604 1379 QCURVE SMOOTH",
"647 1445 OFFCURVE",
"647 1458 QCURVE SMOOTH",
"647 1522 OFFCURVE",
"582 1522 QCURVE SMOOTH"
);
}
);
width = 736;
},
{
layerId = "92A672BF-229C-4BEC-8D25-4DDBB2A38145";
paths = (
{
closed = 1;
nodes = (
"306 865 OFFCURVE",
"379 1084 QCURVE SMOOTH",
"421 1211 OFFCURVE",
"487 1308 QCURVE SMOOTH",
"509 1341 OFFCURVE",
"607 1462 OFFCURVE",
"607 1483 QCURVE SMOOTH",
"607 1516 OFFCURVE",
"572 1516 QCURVE SMOOTH",
"554 1516 LINE SMOOTH",
"509 1516 OFFCURVE",
"372 1354 QCURVE SMOOTH",
"289 1256 OFFCURVE",
"230 1120 QCURVE SMOOTH",
"122 872 OFFCURVE",
"122 601 QCURVE SMOOTH",
"122 579 LINE SMOOTH",
"122 95 OFFCURVE",
"410 -224 QCURVE SMOOTH",
"504 -328 OFFCURVE",
"592 -328 OFFCURVE",
"592 -271 OFFCURVE",
"496 -144 OFFCURVE",
"471 -103 QCURVE SMOOTH",
"306 175 OFFCURVE",
"306 599 QCURVE SMOOTH"
);
}
);
width = 666;
}
);
note = uni0028;
unicode = 0028;
},
{
glyphname = parenright;
lastChange = "2018-12-06 23:43:23 +0000";
layers = (
{
layerId = "5CBF0BAD-1756-4F16-9711-93DC239D102B";
paths = (
{
closed = 1;
nodes = (
"607 760 OFFCURVE",
"546 1043 OFFCURVE",
"411 1313 OFFCURVE",
"216 1522 OFFCURVE",
"92 1522 OFFCURVE",
"92 1467 QCURVE SMOOTH",
"92 1451 OFFCURVE",
"252 1177 OFFCURVE",
"279 1096 QCURVE SMOOTH",
"354 871 OFFCURVE",
"354 368 OFFCURVE",
"263 58 OFFCURVE",
"178 -99 OFFCURVE",
"88 -243 OFFCURVE",
"88 -260 QCURVE SMOOTH",
"88 -314 OFFCURVE",
"209 -314 OFFCURVE",
"408 -94 OFFCURVE",
"470 29 QCURVE SMOOTH",
"607 305 OFFCURVE",
"607 564 QCURVE SMOOTH",
"607 651 LINE SMOOTH"
);
}
);
width = 735;
},
{
layerId = "92A672BF-229C-4BEC-8D25-4DDBB2A38145";
paths = (
{
closed = 1;
nodes = (
"76 1459 OFFCURVE",
"132 1387 QCURVE SMOOTH",
"360 1094 OFFCURVE",
"360 654 QCURVE SMOOTH",
"361 585 LINE",
"359 541 LINE",
"359 309 OFFCURVE",
"277 81 QCURVE SMOOTH",
"239 -24 OFFCURVE",
"60 -301 OFFCURVE",
"60 -302 QCURVE SMOOTH",
"60 -330 OFFCURVE",
"148 -330 OFFCURVE",
"248 -223 QCURVE SMOOTH",
"426 -31 OFFCURVE",
"508 271 QCURVE SMOOTH",
"548 417 OFFCURVE",
"548 553 QCURVE SMOOTH",
"548 641 LINE SMOOTH",
"548 762 OFFCURVE",
"514 917 QCURVE SMOOTH",
"457 1180 OFFCURVE",
"295 1372 QCURVE SMOOTH",
"173 1517 OFFCURVE",
"76 1517 OFFCURVE",
"76 1481 QCURVE SMOOTH"
);
}
);
width = 665;
}
);
note = uni0029;
unicode = 0029;
},
{
glyphname = asterisk;
lastChange = "2018-12-06 23:43:23 +0000";
layers = (
{
layerId = "5CBF0BAD-1756-4F16-9711-93DC239D102B";
paths = (
{
closed = 1;
nodes = (
"231 790 OFFCURVE",
"273 790 QCURVE",
"341 795 LINE",
"374 795 OFFCURVE",
"415 734 QCURVE SMOOTH",
"434 705 OFFCURVE",
"444 705 QCURVE SMOOTH",
"455 705 LINE SMOOTH",
"544 705 OFFCURVE",
"608 793 OFFCURVE",
"615 793 QCURVE SMOOTH",
"627 793 OFFCURVE",
"718 763 OFFCURVE",
"777 763 QCURVE SMOOTH",
"812 763 OFFCURVE",
"812 892 OFFCURVE",
"745 941 QCURVE SMOOTH",
"709 967 OFFCURVE",
"709 1002 QCURVE SMOOTH",
"709 1008 OFFCURVE",
"763 1032 QCURVE SMOOTH",
"894 1092 OFFCURVE",
"894 1148 QCURVE SMOOTH",
"894 1192 OFFCURVE",
"828 1252 OFFCURVE",
"768 1252 OFFCURVE",
"605 1139 OFFCURVE",
"592 1139 QCURVE SMOOTH",
"589 1139 OFFCURVE",
"589 1151 QCURVE SMOOTH",
"589 1171 OFFCURVE",
"596 1222 QCURVE SMOOTH",
"608 1304 OFFCURVE",
"608 1315 QCURVE SMOOTH",
"608 1391 OFFCURVE",
"567 1434 OFFCURVE",
"457 1434 OFFCURVE",
"417 1388 OFFCURVE",
"417 1305 OFFCURVE",
"424 1245 QCURVE SMOOTH",
"430 1203 LINE",
"432 1184 LINE",
"432 1163 OFFCURVE",
"416 1163 QCURVE SMOOTH",
"402 1163 OFFCURVE",
"374 1181 QCURVE SMOOTH",
"278 1243 OFFCURVE",
"217 1243 OFFCURVE",
"150 1186 OFFCURVE",
"150 1132 OFFCURVE",
"220 1047 OFFCURVE",
"281 1012 OFFCURVE",
"281 1009 QCURVE SMOOTH",
"281 993 OFFCURVE",
"231 915 OFFCURVE",
"231 895 QCURVE SMOOTH"
);
}
);
width = 1018;
},
{
layerId = "92A672BF-229C-4BEC-8D25-4DDBB2A38145";
paths = (
{
closed = 1;
nodes = (
"419 1211 LINE",
"419 1164 OFFCURVE",
"409 1164 QCURVE SMOOTH",
"394 1164 OFFCURVE",
"264 1257 OFFCURVE",
"213 1257 QCURVE SMOOTH",
"155 1257 OFFCURVE",
"155 1199 QCURVE SMOOTH",
"155 1172 OFFCURVE",
"235 1095 OFFCURVE",
"294 1064 OFFCURVE",
"294 1053 OFFCURVE",
"244 1010 OFFCURVE",
"239 1005 QCURVE SMOOTH",
"196 959 OFFCURVE",
"196 857 OFFCURVE",
"228 857 QCURVE SMOOTH",
"252 857 OFFCURVE",
"336 885 OFFCURVE",
"379 885 OFFCURVE",
"379 830 QCURVE SMOOTH",
"379 748 OFFCURVE",
"430 748 QCURVE SMOOTH",
"474 748 OFFCURVE",
"502 774 QCURVE",
"511 783 OFFCURVE",
"538 880 OFFCURVE",
"553 880 QCURVE SMOOTH",
"554 880 OFFCURVE",
"603 848 OFFCURVE",
"680 819 OFFCURVE",
"695 819 QCURVE SMOOTH",
"745 819 OFFCURVE",
"745 872 QCURVE SMOOTH",
"745 918 OFFCURVE",
"663 981 QCURVE SMOOTH",
"618 1016 OFFCURVE",
"618 1034 QCURVE SMOOTH",
"618 1040 OFFCURVE",
"733 1089 QCURVE SMOOTH",
"812 1123 OFFCURVE",
"812 1173 QCURVE SMOOTH",
"812 1241 OFFCURVE",
"747 1241 QCURVE SMOOTH",
"711 1241 OFFCURVE",
"547 1140 OFFCURVE",
"529 1140 OFFCURVE",
"529 1159 QCURVE",
"538 1216 LINE SMOOTH",
"552 1305 OFFCURVE",
"552 1338 QCURVE SMOOTH",
"552 1430 OFFCURVE",
"412 1430 OFFCURVE",
"412 1355 QCURVE"
);
}
);
width = 924;
}
);
note = uni002A;
unicode = 002A;
},
{
glyphname = plus;
lastChange = "2018-12-06 23:43:23 +0000";
layers = (
{
layerId = "5CBF0BAD-1756-4F16-9711-93DC239D102B";
paths = (
{
closed = 1;
nodes = (
"663 300 LINE",
"661 427 LINE",
"661 516 OFFCURVE",
"662 519 QCURVE SMOOTH",
"667 534 OFFCURVE",
"720 534 QCURVE SMOOTH",
"866 532 LINE SMOOTH",
"990 532 OFFCURVE",
"1009 541 QCURVE SMOOTH",
"1040 555 OFFCURVE",
"1040 652 QCURVE SMOOTH",
"1040 691 OFFCURVE",
"1014 701 QCURVE SMOOTH",
"1006 704 OFFCURVE",
"671 704 OFFCURVE",
"660 713 OFFCURVE",
"660 1058 OFFCURVE",
"643 1089 OFFCURVE",
"597 1089 QCURVE SMOOTH",
"579 1089 LINE SMOOTH",
"525 1089 OFFCURVE",
"481 1068 OFFCURVE",
"481 993 OFFCURVE",
"480 975 QCURVE SMOOTH",
"477 883 LINE",
"480 792 LINE SMOOTH",
"480 713 OFFCURVE",
"463 703 OFFCURVE",
"399 703 QCURVE SMOOTH",
"326 704 LINE",
"308 705 LINE",
"252 705 LINE SMOOTH",
"147 705 OFFCURVE",
"101 683 OFFCURVE",
"101 601 QCURVE SMOOTH",
"101 583 LINE SMOOTH",
"101 546 OFFCURVE",
"129 537 QCURVE SMOOTH",
"142 533 OFFCURVE",
"469 533 OFFCURVE",
"480 522 OFFCURVE",
"480 190 OFFCURVE",
"482 181 QCURVE SMOOTH",
"489 147 OFFCURVE",
"615 147 OFFCURVE",
"661 169 OFFCURVE",
"661 226 QCURVE SMOOTH"
);
}
);
width = 1141;
},
{
layerId = "92A672BF-229C-4BEC-8D25-4DDBB2A38145";
paths = (
{
closed = 1;
nodes = (
"487 1032 OFFCURVE",
"480 998 QCURVE SMOOTH",
"478 988 OFFCURVE",
"478 667 OFFCURVE",
"459 650 OFFCURVE",
"142 650 OFFCURVE",
"127 646 QCURVE SMOOTH",
"95 637 OFFCURVE",
"95 584 QCURVE SMOOTH",
"95 567 LINE SMOOTH",
"95 529 OFFCURVE",
"456 529 OFFCURVE",
"460 527 QCURVE SMOOTH",
"476 519 OFFCURVE",
"476 192 OFFCURVE",
"479 177 QCURVE SMOOTH",
"485 144 OFFCURVE",
"539 144 QCURVE SMOOTH",
"557 144 LINE SMOOTH",
"591 144 OFFCURVE",
"596 179 QCURVE SMOOTH",
"598 192 OFFCURVE",
"598 513 OFFCURVE",
"613 531 OFFCURVE",
"941 531 OFFCURVE",
"981 550 OFFCURVE",
"981 610 QCURVE SMOOTH",
"981 644 OFFCURVE",
"948 649 QCURVE SMOOTH",
"929 652 OFFCURVE",
"614 652 OFFCURVE",
"599 670 OFFCURVE",
"599 989 OFFCURVE",
"597 999 QCURVE SMOOTH",
"591 1032 OFFCURVE",
"556 1032 QCURVE SMOOTH",
"521 1032 LINE SMOOTH"
);
}
);
width = 1074;
}
);
note = uni002B;
unicode = 002B;
},
{
glyphname = comma;
lastChange = "2018-12-06 23:43:23 +0000";
layers = (
{
layerId = "5CBF0BAD-1756-4F16-9711-93DC239D102B";
paths = (
{
closed = 1;
nodes = (
"299 282 LINE",
"290 283 LINE",
"229 283 OFFCURVE",
"134 196 OFFCURVE",
"134 61 OFFCURVE",
"239 -34 OFFCURVE",
"239 -58 QCURVE SMOOTH",
"239 -123 OFFCURVE",
"196 -183 QCURVE SMOOTH",
"186 -197 OFFCURVE",
"128 -266 OFFCURVE",
"128 -277 QCURVE SMOOTH",
"128 -284 LINE SMOOTH",
"128 -331 OFFCURVE",
"180 -331 QCURVE SMOOTH",
"214 -331 OFFCURVE",
"330 -248 OFFCURVE",
"381 -169 QCURVE SMOOTH",
"465 -38 OFFCURVE",
"465 70 QCURVE SMOOTH",
"465 105 LINE SMOOTH",
"465 282 OFFCURVE",
"308 282 QCURVE SMOOTH"
);
}
);
width = 591;
},
{
layerId = "92A672BF-229C-4BEC-8D25-4DDBB2A38145";
paths = (
{
closed = 1;
nodes = (
"395 151 OFFCURVE",
"324 238 OFFCURVE",
"266 238 QCURVE SMOOTH",
"242 238 LINE SMOOTH",
"195 238 OFFCURVE",
"122 171 OFFCURVE",
"122 74 OFFCURVE",
"237 -41 OFFCURVE",
"237 -63 QCURVE SMOOTH",
"237 -120 OFFCURVE",
"117 -252 OFFCURVE",
"117 -261 QCURVE SMOOTH",
"117 -293 OFFCURVE",
"149 -293 QCURVE SMOOTH",
"155 -293 LINE SMOOTH",
"221 -293 OFFCURVE",
"326 -153 QCURVE SMOOTH",
"395 -61 OFFCURVE",
"395 55 QCURVE SMOOTH",
"395 79 LINE SMOOTH"
);
}
);
width = 511;
}
);
note = uni002C;
unicode = 002C;
},
{
glyphname = hyphen;
lastChange = "2018-12-06 23:43:23 +0000";
layers = (
{
layerId = "5CBF0BAD-1756-4F16-9711-93DC239D102B";
paths = (
{
closed = 1;
nodes = (
"114 475 OFFCURVE",
"154 475 QCURVE SMOOTH",
"186 475 LINE",
"226 477 LINE",
"250 477 LINE",
"267 478 LINE",
"300 478 LINE",
"308 479 LINE",
"358 479 LINE",
"366 480 LINE",
"431 480 LINE",
"440 481 LINE",
"531 481 LINE",
"547 482 LINE",
"620 482 LINE",
"692 486 LINE",
"708 488 LINE",
"760 488 OFFCURVE",
"760 597 QCURVE SMOOTH",
"760 605 LINE",
"761 613 LINE",
"761 629 LINE SMOOTH",
"761 672 OFFCURVE",
"711 672 QCURVE SMOOTH",
"189 664 LINE",
"173 662 LINE",
"115 662 OFFCURVE",
"115 561 QCURVE",
"114 553 LINE",
"114 512 LINE SMOOTH"
);
}
);
width = 875;
},
{
layerId = "92A672BF-229C-4BEC-8D25-4DDBB2A38145";
paths = (
{
closed = 1;
nodes = (
"186 481 LINE",
"207 482 LINE",
"242 482 LINE",
"256 483 LINE",
"292 483 LINE",
"306 484 LINE",
"342 484 LINE",
"356 485 LINE",
"385 485 LINE",
"392 486 LINE",
"640 486 OFFCURVE",
"706 502 OFFCURVE",
"706 556 QCURVE",
"707 564 LINE",
"707 578 LINE SMOOTH",
"707 623 OFFCURVE",
"662 623 QCURVE SMOOTH",
"635 623 LINE",
"429 618 LINE SMOOTH",
"177 618 OFFCURVE",
"115 603 OFFCURVE",
"115 548 QCURVE",
"114 541 LINE",
"114 526 LINE SMOOTH",
"114 481 OFFCURVE",
"152 481 QCURVE SMOOTH"
);
}
);
width = 816;
}
);
note = uni002D;
unicode = 002D;
},
{
glyphname = period;
lastChange = "2018-12-06 23:43:23 +0000";
layers = (
{
layerId = "5CBF0BAD-1756-4F16-9711-93DC239D102B";
paths = (
{
closed = 1;
nodes = (
"218 291 OFFCURVE",
"122 195 OFFCURVE",
"122 136 QCURVE SMOOTH",
"122 125 LINE SMOOTH",
"122 65 OFFCURVE",
"213 -26 OFFCURVE",
"280 -26 QCURVE",
"286 -27 LINE",
"297 -27 LINE SMOOTH",
"365 -27 OFFCURVE",
"460 68 OFFCURVE",
"460 128 QCURVE SMOOTH",
"460 138 LINE SMOOTH",
"460 204 OFFCURVE",
"361 291 OFFCURVE",
"302 291 QCURVE SMOOTH",
"286 291 LINE SMOOTH"
);
}
);
width = 581;
},
{
layerId = "92A672BF-229C-4BEC-8D25-4DDBB2A38145";
paths = (
{
closed = 1;
nodes = (
"299 -23 OFFCURVE",
"382 46 OFFCURVE",
"382 98 QCURVE SMOOTH",
"382 119 LINE SMOOTH",
"382 170 OFFCURVE",
"303 236 OFFCURVE",
"265 236 QCURVE SMOOTH",
"239 236 LINE SMOOTH",
"182 236 OFFCURVE",
"119 148 OFFCURVE",
"119 112 QCURVE",
"118 107 LINE",
"118 58 OFFCURVE",
"186 -23 OFFCURVE",
"245 -23 QCURVE SMOOTH",
"253 -23 LINE SMOOTH"
);
}
);
width = 501;
}
);
note = uni002E;
unicode = 002E;
},
{
glyphname = slash;
lastChange = "2018-12-06 23:43:23 +0000";
layers = (
{
layerId = "5CBF0BAD-1756-4F16-9711-93DC239D102B";
paths = (
{
closed = 1;
nodes = (
"226 -119 OFFCURVE",
"253 -60 QCURVE SMOOTH",
"401 263 OFFCURVE",
"802 1295 QCURVE SMOOTH",
"858 1439 OFFCURVE",
"858 1470 QCURVE SMOOTH",
"858 1492 OFFCURVE",
"780 1492 QCURVE SMOOTH",
"762 1492 LINE SMOOTH",
"689 1492 OFFCURVE",
"647 1395 QCURVE SMOOTH",
"224 407 OFFCURVE",
"69 -33 QCURVE SMOOTH",
"43 -107 OFFCURVE",
"43 -136 QCURVE SMOOTH",
"43 -158 OFFCURVE",
"187 -158 OFFCURVE",
"219 -126 QCURVE SMOOTH"
);
}
);
width = 898;
},
{
layerId = "92A672BF-229C-4BEC-8D25-4DDBB2A38145";
paths = (
{
closed = 1;
nodes = (
"693 1468 OFFCURVE",
"569 1185 OFFCURVE",
"78 -41 QCURVE SMOOTH",
"35 -148 OFFCURVE",
"35 -173 QCURVE SMOOTH",
"35 -192 OFFCURVE",
"132 -192 OFFCURVE",
"167 -152 OFFCURVE",
"208 -56 QCURVE SMOOTH",
"807 1342 OFFCURVE",
"807 1447 QCURVE SMOOTH",
"807 1468 OFFCURVE",
"751 1468 QCURVE SMOOTH",
"733 1468 LINE SMOOTH"
);
}
);
width = 834;
}
);
note = uni002F;
unicode = 002F;
},
{
glyphname = zero;
lastChange = "2018-12-06 23:43:23 +0000";
layers = (
{
layerId = "5CBF0BAD-1756-4F16-9711-93DC239D102B";
paths = (
{
closed = 1;
nodes = (
"797 380 OFFCURVE",
"692 110 OFFCURVE",
"588 110 QCURVE SMOOTH",
"485 111 OFFCURVE",
"421 258 QCURVE SMOOTH",
"357 406 OFFCURVE",
"357 629 QCURVE SMOOTH",
"357 732 LINE SMOOTH",
"357 955 OFFCURVE",
"421 1089 QCURVE SMOOTH",
"451 1152 OFFCURVE",
"534 1206 OFFCURVE",
"565 1206 QCURVE SMOOTH",
"577 1206 LINE SMOOTH",
"673 1206 OFFCURVE",
"797 932 OFFCURVE",
"797 687 QCURVE SMOOTH",
"797 583 LINE SMOOTH"
);
},
{
closed = 1;
nodes = (
"573 1347 LINE SMOOTH",
"475 1347 OFFCURVE",
"374 1290 QCURVE SMOOTH",
"196 1191 OFFCURVE",
"124 944 QCURVE SMOOTH",
"87 819 OFFCURVE",
"87 706 QCURVE SMOOTH",
"87 703 OFFCURVE",
"87 700 QCURVE SMOOTH",
"87 617 LINE SMOOTH",
"87 490 OFFCURVE",
"164 231 OFFCURVE",
"303 50 OFFCURVE",
"480 -33 OFFCURVE",
"567 -33 QCURVE SMOOTH",
"608 -33 LINE SMOOTH",
"707 -33 OFFCURVE",
"808 24 QCURVE SMOOTH",
"994 129 OFFCURVE",
"1066 371 QCURVE SMOOTH",
"1105 501 OFFCURVE",
"1105 630 QCURVE SMOOTH",
"1105 633 OFFCURVE",
"1105 636 QCURVE SMOOTH",
"1105 678 LINE SMOOTH",
"1105 821 OFFCURVE",
"1068 949 QCURVE SMOOTH",
"998 1194 OFFCURVE",
"808 1297 QCURVE SMOOTH",
"716 1347 OFFCURVE",
"614 1347 QCURVE SMOOTH"
);
}
);
width = 1204;
},
{
layerId = "92A672BF-229C-4BEC-8D25-4DDBB2A38145";
paths = (
{
closed = 1;
nodes = (
"299 906 OFFCURVE",
"457 1184 OFFCURVE",
"590 1184 QCURVE SMOOTH",
"724 1184 OFFCURVE",
"870 876 OFFCURVE",
"870 662 QCURVE SMOOTH",
"870 582 LINE SMOOTH",
"870 351 OFFCURVE",
"786 202 QCURVE SMOOTH",
"714 75 OFFCURVE",
"587 75 QCURVE SMOOTH",
"459 75 OFFCURVE",
"299 361 OFFCURVE",
"299 583 QCURVE SMOOTH",
"299 694 LINE SMOOTH"
);
},
{
closed = 1;
nodes = (
"477 1277 OFFCURVE",
"389 1229 QCURVE SMOOTH",
"209 1131 OFFCURVE",
"135 894 QCURVE SMOOTH",
"97 772 OFFCURVE",
"97 636 QCURVE SMOOTH",
"97 615 LINE SMOOTH",
"97 495 OFFCURVE",
"129 371 QCURVE SMOOTH",
"190 135 OFFCURVE",
"373 31 QCURVE SMOOTH",
"461 -19 OFFCURVE",
"561 -19 QCURVE SMOOTH",
"599 -19 LINE SMOOTH",
"696 -19 OFFCURVE",
"792 29 QCURVE SMOOTH",
"968 116 OFFCURVE",
"1048 364 QCURVE SMOOTH",
"1087 484 OFFCURVE",
"1087 623 QCURVE SMOOTH",
"1087 644 LINE SMOOTH",
"1087 761 OFFCURVE",
"1023 1011 OFFCURVE",
"958 1097 QCURVE SMOOTH",
"822 1277 OFFCURVE",
"619 1277 QCURVE SMOOTH",
"580 1277 LINE SMOOTH"
);
}
);
width = 1204;
}
);
note = uni0030;
unicode = 0030;
},
{
glyphname = one;
lastChange = "2018-12-06 23:43:23 +0000";
layers = (
{
layerId = "5CBF0BAD-1756-4F16-9711-93DC239D102B";
paths = (
{
closed = 1;
nodes = (
"626 838 LINE",
"627 859 LINE",
"627 881 OFFCURVE",
"627 903 QCURVE SMOOTH",
"633 1137 LINE SMOOTH",
"633 1288 OFFCURVE",
"629 1301 QCURVE SMOOTH",
"616 1343 OFFCURVE",
"563 1343 QCURVE SMOOTH",
"458 1343 OFFCURVE",
"209 1222 QCURVE SMOOTH",
"136 1187 OFFCURVE",
"136 1137 QCURVE SMOOTH",
"136 1100 OFFCURVE",
"306 1084 OFFCURVE",
"349 988 OFFCURVE",
"349 299 OFFCURVE",
"337 260 QCURVE SMOOTH",
"317 194 OFFCURVE",
"170 103 OFFCURVE",
"170 27 OFFCURVE",
"221 -1 OFFCURVE",
"330 -1 QCURVE SMOOTH",
"352 -1 LINE",
"438 0 LINE",
"481 0 LINE SMOOTH",
"688 0 OFFCURVE",
"754 10 QCURVE SMOOTH",
"799 17 OFFCURVE",
"799 57 QCURVE SMOOTH",
"799 117 OFFCURVE",
"656 200 OFFCURVE",
"637 260 QCURVE SMOOTH",
"626 295 OFFCURVE",
"626 664 QCURVE SMOOTH"
);
}
);
width = 923;
},
{
layerId = "92A672BF-229C-4BEC-8D25-4DDBB2A38145";
paths = (
{
closed = 1;
nodes = (
"583 1266 OFFCURVE",
"521 1266 QCURVE SMOOTH",
"432 1266 OFFCURVE",
"203 1162 QCURVE SMOOTH",
"145 1136 OFFCURVE",
"145 1115 QCURVE SMOOTH",
"145 1104 LINE SMOOTH",
"145 1070 OFFCURVE",
"247 1070 QCURVE SMOOTH",
"289 1070 OFFCURVE",
"334 1036 OFFCURVE",
"354 927 OFFCURVE",
"354 284 OFFCURVE",
"313 150 OFFCURVE",
"259 117 QCURVE SMOOTH",
"176 67 OFFCURVE",
"176 45 QCURVE SMOOTH",
"176 0 OFFCURVE",
"441 0 QCURVE",
"462 -1 LINE",
"608 -1 LINE SMOOTH",
"723 -1 OFFCURVE",
"723 44 QCURVE SMOOTH",
"723 64 OFFCURVE",
"592 158 OFFCURVE",
"559 265 OFFCURVE",
"559 608 QCURVE SMOOTH",
"559 733 LINE",
"560 754 LINE",
"560 795 LINE",
"563 898 LINE SMOOTH",
"563 951 OFFCURVE",
"583 1146 OFFCURVE",
"583 1151 QCURVE SMOOTH"
);
}
);
width = 854;
}
);
note = uni0031;
unicode = 0031;
},
{
glyphname = two;
lastChange = "2018-12-06 23:43:23 +0000";
layers = (
{
layerId = "5CBF0BAD-1756-4F16-9711-93DC239D102B";
paths = (
{
closed = 1;
nodes = (
"265 5 LINE SMOOTH",
"308 7 OFFCURVE",
"330 7 QCURVE SMOOTH",
"626 1 LINE",
"691 1 LINE",
"724 0 LINE",
"756 0 LINE SMOOTH",
"928 0 OFFCURVE",
"961 28 QCURVE SMOOTH",
"1020 79 OFFCURVE",
"1020 250 QCURVE SMOOTH",
"1020 338 OFFCURVE",
"969 338 QCURVE SMOOTH",
"933 338 OFFCURVE",
"807 238 OFFCURVE",
"686 212 OFFCURVE",
"434 212 OFFCURVE",
"434 262 OFFCURVE",
"798 603 OFFCURVE",
"860 684 QCURVE SMOOTH",
"976 836 OFFCURVE",
"976 969 QCURVE SMOOTH",
"976 1232 OFFCURVE",
"752 1316 QCURVE SMOOTH",
"677 1345 OFFCURVE",
"605 1345 QCURVE SMOOTH",
"602 1345 OFFCURVE",
"600 1345 QCURVE SMOOTH",
"568 1345 LINE SMOOTH",
"381 1345 OFFCURVE",
"127 1155 OFFCURVE",
"127 1045 QCURVE SMOOTH",
"127 1004 OFFCURVE",
"168 937 OFFCURVE",
"246 937 OFFCURVE",
"422 1167 OFFCURVE",
"493 1167 QCURVE SMOOTH",
"587 1167 OFFCURVE",
"685 1055 OFFCURVE",
"685 974 QCURVE SMOOTH",
"685 835 OFFCURVE",
"582 683 QCURVE SMOOTH",
"528 603 OFFCURVE",
"190 242 OFFCURVE",
"172 220 QCURVE SMOOTH",
"116 149 OFFCURVE",
"116 39 OFFCURVE",
"171 2 OFFCURVE",
"203 2 QCURVE"
);
}
);
width = 1123;
},
{
layerId = "92A672BF-229C-4BEC-8D25-4DDBB2A38145";
paths = (
{
closed = 1;
nodes = (
"923 -1 OFFCURVE",
"985 103 OFFCURVE",
"985 217 QCURVE SMOOTH",
"985 280 OFFCURVE",
"948 280 QCURVE SMOOTH",
"941 280 OFFCURVE",
"833 184 OFFCURVE",
"740 151 OFFCURVE",
"356 151 OFFCURVE",
"356 184 QCURVE SMOOTH",
"356 232 OFFCURVE",
"746 559 OFFCURVE",
"824 659 QCURVE SMOOTH",
"931 796 OFFCURVE",
"931 1083 OFFCURVE",
"740 1265 OFFCURVE",
"384 1265 OFFCURVE",
"142 1105 OFFCURVE",
"142 903 OFFCURVE",
"193 903 QCURVE SMOOTH",
"235 903 OFFCURVE",
"274 944 OFFCURVE",
"300 1009 QCURVE SMOOTH",
"362 1159 OFFCURVE",
"514 1159 QCURVE SMOOTH",
"604 1159 OFFCURVE",
"727 1026 OFFCURVE",
"727 933 QCURVE SMOOTH",
"727 793 OFFCURVE",
"626 650 QCURVE SMOOTH",
"571 572 OFFCURVE",
"253 267 OFFCURVE",
"223 233 QCURVE SMOOTH",
"138 134 OFFCURVE",
"138 87 QCURVE SMOOTH",
"138 65 LINE SMOOTH",
"138 26 OFFCURVE",
"197 11 QCURVE SMOOTH",
"217 6 OFFCURVE",
"319 6 QCURVE SMOOTH",
"415 6 LINE SMOOTH",
"448 6 OFFCURVE",
"480 5 QCURVE SMOOTH",
"512 4 LINE SMOOTH",
"558 4 OFFCURVE",
"674 0 QCURVE SMOOTH",
"707 -1 LINE",
"836 -1 LINE SMOOTH"
);
}
);
width = 1104;
}
);
note = uni0032;
unicode = 0032;
},
{
glyphname = three;
lastChange = "2018-12-06 23:43:23 +0000";
layers = (
{
layerId = "5CBF0BAD-1756-4F16-9711-93DC239D102B";
paths = (
{
closed = 1;
nodes = (
"640 1165 OFFCURVE",
"640 859 OFFCURVE",
"456 768 QCURVE SMOOTH",
"370 726 OFFCURVE",
"370 700 QCURVE SMOOTH",
"370 645 OFFCURVE",
"407 627 QCURVE SMOOTH",
"422 620 OFFCURVE",
"527 600 OFFCURVE",
"606 573 OFFCURVE",
"647 534 QCURVE SMOOTH",
"716 468 OFFCURVE",
"716 264 OFFCURVE",
"597 119 OFFCURVE",
"406 119 OFFCURVE",
"251 249 OFFCURVE",
"157 249 OFFCURVE",
"116 199 OFFCURVE",
"116 162 QCURVE SMOOTH",
"116 75 OFFCURVE",
"192 26 QCURVE SMOOTH",
"313 -52 OFFCURVE",
"481 -52 QCURVE SMOOTH",
"709 -52 OFFCURVE",
"996 197 OFFCURVE",
"996 385 QCURVE SMOOTH",
"996 491 OFFCURVE",
"889 641 OFFCURVE",
"731 732 OFFCURVE",
"731 735 QCURVE SMOOTH",
"731 751 OFFCURVE",
"793 818 QCURVE SMOOTH",
"915 950 OFFCURVE",
"915 1211 OFFCURVE",
"844 1266 QCURVE SMOOTH",
"739 1348 OFFCURVE",
"379 1348 OFFCURVE",
"145 1222 OFFCURVE",
"145 1036 OFFCURVE",
"214 1036 QCURVE SMOOTH",
"257 1036 OFFCURVE",
"414 1165 OFFCURVE",
"490 1165 QCURVE SMOOTH"
);
}
);
width = 1103;
},
{
layerId = "92A672BF-229C-4BEC-8D25-4DDBB2A38145";
paths = (
{
closed = 1;
nodes = (
"564 -96 OFFCURVE",
"742 -37 OFFCURVE",
"802 10 QCURVE SMOOTH",
"954 128 OFFCURVE",
"954 313 QCURVE SMOOTH",
"954 499 OFFCURVE",
"758 616 QCURVE SMOOTH",
"676 666 OFFCURVE",
"676 668 QCURVE SMOOTH",
"676 672 OFFCURVE",
"797 789 OFFCURVE",
"821 825 QCURVE SMOOTH",
"876 906 OFFCURVE",
"876 991 QCURVE SMOOTH",
"876 1270 OFFCURVE",
"532 1270 QCURVE SMOOTH",
"367 1270 OFFCURVE",
"153 1151 OFFCURVE",
"153 984 OFFCURVE",
"215 984 QCURVE SMOOTH",
"262 984 OFFCURVE",
"361 1106 OFFCURVE",
"453 1153 OFFCURVE",
"583 1153 OFFCURVE",
"680 1054 OFFCURVE",
"680 983 QCURVE SMOOTH",
"680 792 OFFCURVE",
"482 694 QCURVE SMOOTH",
"390 648 OFFCURVE",
"389 622 QCURVE",
"389 596 OFFCURVE",
"494 570 QCURVE SMOOTH",
"599 542 OFFCURVE",
"650 497 QCURVE SMOOTH",
"741 416 OFFCURVE",
"741 168 OFFCURVE",
"599 16 OFFCURVE",
"398 16 OFFCURVE",
"332 73 QCURVE SMOOTH",
"227 163 OFFCURVE",
"185 163 QCURVE SMOOTH",
"113 163 OFFCURVE",
"113 16 OFFCURVE",
"202 -40 QCURVE SMOOTH",
"292 -96 OFFCURVE",
"439 -96 QCURVE SMOOTH",
"471 -96 LINE SMOOTH"
);
}
);
width = 1081;
}
);
note = uni0033;
unicode = 0033;
},
{
glyphname = four;
lastChange = "2018-12-06 23:43:23 +0000";
layers = (
{
layerId = "5CBF0BAD-1756-4F16-9711-93DC239D102B";
paths = (
{
closed = 1;
nodes = (
"608 931 LINE",
"607 901 LINE",
"607 646 LINE SMOOTH",
"607 502 OFFCURVE",
"594 482 OFFCURVE",
"428 482 QCURVE SMOOTH",
"299 482 LINE",
"291 481 LINE",
"253 481 OFFCURVE",
"253 491 QCURVE SMOOTH",
"253 525 OFFCURVE",
"491 842 QCURVE",
"492 843 OFFCURVE",
"603 1003 OFFCURVE",
"608 1003 OFFCURVE",
"608 992 QCURVE SMOOTH"
);
},
{
closed = 1;
nodes = (
"910 286 OFFCURVE",
"951 342 QCURVE SMOOTH",
"964 360 OFFCURVE",
"1024 384 OFFCURVE",
"1024 398 QCURVE SMOOTH",
"1024 410 LINE SMOOTH",
"1024 471 OFFCURVE",
"969 512 QCURVE SMOOTH",
"888 572 OFFCURVE",
"883 593 QCURVE SMOOTH",
"869 646 OFFCURVE",
"869 1210 OFFCURVE",
"864 1245 QCURVE SMOOTH",
"853 1324 OFFCURVE",
"798 1324 QCURVE SMOOTH",
"684 1324 OFFCURVE",
"595 1213 QCURVE SMOOTH",
"451 1034 OFFCURVE",
"133 575 QCURVE SMOOTH",
"66 478 OFFCURVE",
"66 360 OFFCURVE",
"139 334 QCURVE SMOOTH",
"186 317 OFFCURVE",
"458 317 OFFCURVE",
"492 304 QCURVE SMOOTH",
"559 278 OFFCURVE",
"559 212 QCURVE SMOOTH",
"559 192 OFFCURVE",
"496 106 OFFCURVE",
"496 16 OFFCURVE",
"557 -43 OFFCURVE",
"653 -43 QCURVE SMOOTH",
"748 -43 LINE SMOOTH",
"855 -43 OFFCURVE",
"929 -6 QCURVE SMOOTH",
"972 15 OFFCURVE",
"972 118 OFFCURVE",
"910 180 OFFCURVE",
"910 203 QCURVE SMOOTH"
);
}
);
width = 1141;
},
{
layerId = "92A672BF-229C-4BEC-8D25-4DDBB2A38145";
paths = (
{
closed = 1;
nodes = (
"625 1011 LINE",
"627 1006 LINE",
"627 968 LINE",
"626 951 LINE",
"626 943 OFFCURVE",
"626 935 QCURVE",
"623 878 LINE",
"623 870 OFFCURVE",
"623 862 QCURVE",
"620 835 LINE",
"620 826 OFFCURVE",
"617 799 QCURVE",
"615 742 LINE",
"615 728 OFFCURVE",
"615 714 QCURVE",
"614 695 LINE",
"614 676 LINE",
"613 647 LINE",
"613 628 LINE",
"612 609 LINE",
"611 600 LINE",
"609 563 LINE",
"608 554 LINE",
"604 489 LINE",
"604 428 OFFCURVE",
"588 420 QCURVE SMOOTH",
"574 413 OFFCURVE",
"449 413 QCURVE SMOOTH",
"323 416 LINE",
"314 415 LINE",
"230 410 LINE",
"222 409 LINE",
"198 409 LINE SMOOTH",
"188 409 OFFCURVE",
"188 412 QCURVE SMOOTH",
"188 417 LINE SMOOTH",
"188 423 OFFCURVE",
"233 476 OFFCURVE",
"261 514 QCURVE SMOOTH",
"315 587 LINE",
"323 597 OFFCURVE",
"351 637 OFFCURVE",
"402 697 OFFCURVE",
"412 711 QCURVE SMOOTH",
"552 906 LINE",
"618 1011 OFFCURVE",
"622 1011 QCURVE SMOOTH"
);
},
{
closed = 1;
nodes = (
"761 -77 OFFCURVE",
"895 -16 OFFCURVE",
"895 26 QCURVE SMOOTH",
"895 54 OFFCURVE",
"856 115 OFFCURVE",
"856 140 QCURVE SMOOTH",
"856 215 OFFCURVE",
"901 285 QCURVE SMOOTH",
"914 305 OFFCURVE",
"956 333 QCURVE SMOOTH",
"984 352 OFFCURVE",
"984 375 QCURVE SMOOTH",
"984 405 OFFCURVE",
"857 473 OFFCURVE",
"840 525 QCURVE SMOOTH",
"812 612 OFFCURVE",
"812 1172 OFFCURVE",
"807 1197 QCURVE SMOOTH",
"796 1252 OFFCURVE",
"754 1252 QCURVE SMOOTH",
"683 1252 OFFCURVE",
"580 1116 QCURVE SMOOTH",
"75 449 OFFCURVE",
"75 378 QCURVE SMOOTH",
"75 361 LINE SMOOTH",
"75 297 OFFCURVE",
"482 297 OFFCURVE",
"587 243 OFFCURVE",
"587 160 QCURVE SMOOTH",
"587 110 OFFCURVE",
"521 6 OFFCURVE",
"521 -34 OFFCURVE",
"586 -77 OFFCURVE",
"629 -77 QCURVE SMOOTH",
"669 -77 LINE SMOOTH"
);
}
);
width = 1127;
}
);
note = uni0034;
unicode = 0034;
},
{
glyphname = five;
lastChange = "2018-12-06 23:43:23 +0000";
layers = (
{
layerId = "5CBF0BAD-1756-4F16-9711-93DC239D102B";
paths = (
{
closed = 1;
nodes = (
"357 1058 OFFCURVE",
"435 1125 OFFCURVE",
"533 1125 QCURVE SMOOTH",
"753 1118 LINE SMOOTH",
"933 1118 OFFCURVE",
"933 1280 QCURVE SMOOTH",
"933 1355 OFFCURVE",
"853 1355 QCURVE SMOOTH",
"825 1355 LINE SMOOTH",
"822 1355 OFFCURVE",
"736 1345 QCURVE SMOOTH",
"676 1338 LINE SMOOTH",
"624 1333 OFFCURVE",
"377 1333 OFFCURVE",
"352 1329 QCURVE SMOOTH",
"272 1316 OFFCURVE",
"223 1244 OFFCURVE",
"176 988 OFFCURVE",
"176 850 QCURVE SMOOTH",
"176 662 OFFCURVE",
"279 662 QCURVE SMOOTH",
"321 662 OFFCURVE",
"349 663 QCURVE SMOOTH",
"377 664 LINE",
"541 664 OFFCURVE",
"707 510 OFFCURVE",
"707 366 QCURVE SMOOTH",
"707 263 OFFCURVE",
"583 116 OFFCURVE",
"471 116 QCURVE SMOOTH",
"394 116 OFFCURVE",
"240 239 OFFCURVE",
"147 239 OFFCURVE",
"114 187 OFFCURVE",
"114 140 QCURVE SMOOTH",
"114 58 OFFCURVE",
"334 -50 OFFCURVE",
"575 -50 OFFCURVE",
"663 -21 QCURVE SMOOTH",
"862 44 OFFCURVE",
"942 220 QCURVE SMOOTH",
"983 309 OFFCURVE",
"983 399 QCURVE SMOOTH",
"983 496 OFFCURVE",
"960 561 QCURVE SMOOTH",
"898 732 OFFCURVE",
"726 809 QCURVE SMOOTH",
"646 845 OFFCURVE",
"515 845 OFFCURVE",
"494 844 QCURVE SMOOTH",
"463 842 LINE",
"433 841 LINE SMOOTH",
"401 841 OFFCURVE",
"357 904 OFFCURVE",
"357 943 QCURVE SMOOTH"
);
}
);
width = 1094;
},
{
layerId = "92A672BF-229C-4BEC-8D25-4DDBB2A38145";
paths = (
{
closed = 1;
nodes = (
"408 649 LINE",
"550 649 OFFCURVE",
"735 494 OFFCURVE",
"735 207 OFFCURVE",
"593 30 OFFCURVE",
"383 30 OFFCURVE",
"319 86 QCURVE SMOOTH",
"227 167 OFFCURVE",
"200 167 QCURVE SMOOTH",
"113 167 OFFCURVE",
"113 18 OFFCURVE",
"289 -86 OFFCURVE",
"433 -86 QCURVE SMOOTH",
"465 -86 LINE SMOOTH",
"554 -86 OFFCURVE",
"655 -49 QCURVE SMOOTH",
"839 18 OFFCURVE",
"908 180 QCURVE SMOOTH",
"940 256 OFFCURVE",
"940 334 QCURVE SMOOTH",
"940 367 LINE SMOOTH",
"940 542 OFFCURVE",
"666 769 OFFCURVE",
"450 769 QCURVE SMOOTH",
"355 769 OFFCURVE",
"339 779 QCURVE SMOOTH",
"308 798 OFFCURVE",
"308 862 QCURVE SMOOTH",
"308 992 OFFCURVE",
"347 1054 QCURVE SMOOTH",
"374 1096 OFFCURVE",
"468 1096 QCURVE SMOOTH",
"597 1092 LINE SMOOTH",
"629 1091 OFFCURVE",
"833 1091 OFFCURVE",
"861 1103 QCURVE SMOOTH",
"914 1125 OFFCURVE",
"914 1214 QCURVE SMOOTH",
"914 1276 OFFCURVE",
"862 1276 QCURVE SMOOTH",
"836 1276 LINE",
"781 1264 LINE SMOOTH",
"703 1248 OFFCURVE",
"562 1248 OFFCURVE",
"528 1249 QCURVE SMOOTH",
"461 1251 LINE SMOOTH",
"351 1251 OFFCURVE",
"277 1226 OFFCURVE",
"232 1145 OFFCURVE",
"184 879 OFFCURVE",
"184 642 OFFCURVE",
"263 642 QCURVE"
);
}
);
width = 1081;
}
);
note = uni0035;
unicode = 0035;
},
{
glyphname = six;
lastChange = "2018-12-06 23:43:23 +0000";
layers = (
{
layerId = "5CBF0BAD-1756-4F16-9711-93DC239D102B";
paths = (
{
closed = 1;
nodes = (
"777 264 OFFCURVE",
"674 115 OFFCURVE",
"597 115 QCURVE SMOOTH",
"572 115 LINE SMOOTH",
"480 115 OFFCURVE",
"369 322 OFFCURVE",
"369 452 QCURVE",
"368 461 LINE",
"368 486 LINE SMOOTH",
"368 605 OFFCURVE",
"476 713 OFFCURVE",
"565 713 QCURVE SMOOTH",
"573 713 LINE SMOOTH",
"663 713 OFFCURVE",
"711 644 QCURVE SMOOTH",
"777 549 OFFCURVE",
"777 427 QCURVE SMOOTH",
"777 373 LINE SMOOTH"
);
},
{
closed = 1;
nodes = (
"769 1335 LINE SMOOTH",
"652 1335 OFFCURVE",
"499 1269 QCURVE SMOOTH",
"246 1160 OFFCURVE",
"138 870 QCURVE SMOOTH",
"85 728 OFFCURVE",
"85 586 QCURVE SMOOTH",
"85 584 OFFCURVE",
"85 581 QCURVE SMOOTH",
"85 528 LINE SMOOTH",
"85 421 OFFCURVE",
"122 308 QCURVE SMOOTH",
"190 101 OFFCURVE",
"366 18 QCURVE SMOOTH",
"456 -25 OFFCURVE",
"550 -25 QCURVE SMOOTH",
"552 -25 OFFCURVE",
"554 -25 QCURVE SMOOTH",
"580 -25 LINE SMOOTH",
"670 -25 OFFCURVE",
"751 5 QCURVE SMOOTH",
"936 73 OFFCURVE",
"1007 242 QCURVE SMOOTH",
"1044 330 OFFCURVE",
"1044 415 QCURVE SMOOTH",
"1044 440 LINE SMOOTH",
"1044 525 OFFCURVE",
"1010 606 QCURVE SMOOTH",
"946 756 OFFCURVE",
"796 812 QCURVE SMOOTH",
"717 842 OFFCURVE",
"643 842 QCURVE",
"535 834 LINE",
"475 834 OFFCURVE",
"440 865 QCURVE SMOOTH",
"427 876 OFFCURVE",
"427 933 OFFCURVE",
"488 1050 OFFCURVE",
"628 1154 OFFCURVE",
"724 1163 QCURVE SMOOTH",
"925 1181 OFFCURVE",
"925 1249 QCURVE SMOOTH",
"925 1335 OFFCURVE",
"791 1335 QCURVE SMOOTH"
);
}
);
width = 1135;
},
{
layerId = "92A672BF-229C-4BEC-8D25-4DDBB2A38145";
paths = (
{
closed = 1;
nodes = (
"452 71 OFFCURVE",
"308 281 OFFCURVE",
"308 449 QCURVE SMOOTH",
"308 500 LINE SMOOTH",
"308 606 OFFCURVE",
"358 660 QCURVE SMOOTH",
"435 743 OFFCURVE",
"542 743 QCURVE SMOOTH",
"582 743 LINE SMOOTH",
"686 743 OFFCURVE",
"820 561 OFFCURVE",
"820 417 QCURVE SMOOTH",
"820 385 LINE SMOOTH",
"820 250 OFFCURVE",
"689 71 OFFCURVE",
"592 71 QCURVE SMOOTH",
"563 71 LINE SMOOTH"
);
},
{
closed = 1;
nodes = (
"362 926 OFFCURVE",
"435 1062 OFFCURVE",
"580 1193 OFFCURVE",
"699 1193 QCURVE",
"804 1187 LINE",
"868 1187 OFFCURVE",
"930 1215 OFFCURVE",
"930 1254 QCURVE SMOOTH",
"930 1329 OFFCURVE",
"743 1329 QCURVE SMOOTH",
"639 1329 OFFCURVE",
"513 1277 QCURVE SMOOTH",
"255 1169 OFFCURVE",
"151 881 QCURVE SMOOTH",
"100 739 OFFCURVE",
"100 588 QCURVE SMOOTH",
"100 532 LINE SMOOTH",
"100 422 OFFCURVE",
"162 201 OFFCURVE",
"222 130 QCURVE SMOOTH",
"350 -23 OFFCURVE",
"556 -23 QCURVE SMOOTH",
"582 -23 LINE SMOOTH",
"676 -23 OFFCURVE",
"756 10 QCURVE SMOOTH",
"922 79 OFFCURVE",
"986 234 QCURVE SMOOTH",
"1018 313 OFFCURVE",
"1018 499 OFFCURVE",
"988 574 QCURVE SMOOTH",
"929 725 OFFCURVE",
"776 786 QCURVE SMOOTH",
"696 818 OFFCURVE",
"577 818 OFFCURVE",
"532 813 QCURVE SMOOTH",
"469 806 LINE",
"362 806 OFFCURVE",
"362 886 QCURVE SMOOTH"
);
}
);
width = 1144;
}
);
note = uni0036;
unicode = 0036;
},
{
glyphname = seven;
lastChange = "2018-12-06 23:43:23 +0000";
layers = (
{
layerId = "5CBF0BAD-1756-4F16-9711-93DC239D102B";
paths = (
{
closed = 1;
nodes = (
"935 1326 OFFCURVE",
"834 1326 QCURVE SMOOTH",
"732 1328 LINE SMOOTH",
"707 1328 OFFCURVE",
"681 1329 QCURVE SMOOTH",
"656 1330 LINE",
"630 1330 OFFCURVE",
"604 1331 QCURVE SMOOTH",
"579 1332 LINE",
"373 1332 LINE SMOOTH",
"348 1332 OFFCURVE",
"297 1330 QCURVE SMOOTH",
"246 1328 LINE",
"146 1328 OFFCURVE",
"126 1297 QCURVE SMOOTH",
"91 1244 OFFCURVE",
"91 1084 QCURVE SMOOTH",
"91 1060 LINE SMOOTH",
"91 980 OFFCURVE",
"148 980 QCURVE SMOOTH",
"191 980 OFFCURVE",
"308 1089 OFFCURVE",
"343 1101 QCURVE SMOOTH",
"421 1127 OFFCURVE",
"738 1127 OFFCURVE",
"738 1080 QCURVE SMOOTH",
"738 1054 OFFCURVE",
"285 142 OFFCURVE",
"285 30 QCURVE SMOOTH",
"285 -16 OFFCURVE",
"341 -49 OFFCURVE",
"407 -49 QCURVE SMOOTH",
"528 -49 OFFCURVE",
"561 31 QCURVE SMOOTH",
"582 80 OFFCURVE",
"633 306 OFFCURVE",
"634 308 QCURVE",
"702 531 OFFCURVE",
"921 1030 OFFCURVE",
"997 1218 OFFCURVE",
"997 1310 OFFCURVE",
"955 1321 QCURVE SMOOTH"
);
}
);
width = 1077;
},
{
layerId = "92A672BF-229C-4BEC-8D25-4DDBB2A38145";
paths = (
{
closed = 1;
nodes = (
"779 1257 LINE",
"753 1256 LINE",
"523 1254 LINE",
"420 1256 LINE",
"196 1265 LINE",
"143 1265 OFFCURVE",
"125 1237 QCURVE SMOOTH",
"92 1184 OFFCURVE",
"92 1033 QCURVE SMOOTH",
"92 1010 LINE SMOOTH",
"92 955 OFFCURVE",
"155 955 OFFCURVE",
"241 1072 OFFCURVE",
"305 1104 OFFCURVE",
"693 1104 OFFCURVE",
"774 1084 OFFCURVE",
"774 1043 QCURVE SMOOTH",
"774 1024 OFFCURVE",
"304 41 OFFCURVE",
"304 -43 QCURVE SMOOTH",
"304 -99 OFFCURVE",
"371 -99 QCURVE SMOOTH",
"394 -99 LINE SMOOTH",
"477 -99 OFFCURVE",
"510 -21 QCURVE SMOOTH",
"524 11 OFFCURVE",
"593 300 OFFCURVE",
"683 507 QCURVE SMOOTH",
"953 1128 OFFCURVE",
"953 1189 QCURVE SMOOTH",
"953 1225 OFFCURVE",
"905 1257 OFFCURVE",
"828 1257 QCURVE SMOOTH"
);
}
);
width = 1042;
}
);
note = uni0037;
unicode = 0037;
},
{
glyphname = eight;
lastChange = "2018-12-06 23:43:23 +0000";
layers = (
{
layerId = "5CBF0BAD-1756-4F16-9711-93DC239D102B";
paths = (
{
closed = 1;
nodes = (
"641 1263 OFFCURVE",
"751 1153 OFFCURVE",
"751 1088 QCURVE SMOOTH",
"751 1082 OFFCURVE",
"753 1068 QCURVE",
"753 1027 LINE SMOOTH",
"753 957 OFFCURVE",
"662 827 OFFCURVE",
"629 827 QCURVE SMOOTH",
"624 827 LINE SMOOTH",
"551 827 OFFCURVE",
"461 928 QCURVE SMOOTH",
"398 999 OFFCURVE",
"398 1085 QCURVE SMOOTH",
"398 1092 LINE SMOOTH",
"398 1165 OFFCURVE",
"485 1263 OFFCURVE",
"541 1263 QCURVE SMOOTH",
"567 1263 LINE SMOOTH"
);
},
{
closed = 1;
nodes = (
"784 232 OFFCURVE",
"670 118 OFFCURVE",
"616 118 QCURVE SMOOTH",
"579 118 LINE SMOOTH",
"500 118 OFFCURVE",
"340 278 OFFCURVE",
"340 383 QCURVE SMOOTH",
"340 433 LINE SMOOTH",
"340 494 OFFCURVE",
"377 554 QCURVE SMOOTH",
"437 651 OFFCURVE",
"484 651 QCURVE SMOOTH",
"490 651 LINE SMOOTH",
"569 651 OFFCURVE",
"708 512 QCURVE SMOOTH",
"784 436 OFFCURVE",
"784 344 QCURVE SMOOTH",
"784 311 LINE SMOOTH"
);
},
{
closed = 1;
nodes = (
"250 764 OFFCURVE",
"309 713 OFFCURVE",
"309 698 OFFCURVE",
"243 642 QCURVE SMOOTH",
"91 514 OFFCURVE",
"91 363 QCURVE SMOOTH",
"91 342 LINE SMOOTH",
"91 268 OFFCURVE",
"125 198 QCURVE SMOOTH",
"189 67 OFFCURVE",
"353 9 QCURVE SMOOTH",
"437 -21 OFFCURVE",
"536 -21 QCURVE SMOOTH",
"583 -21 LINE SMOOTH",
"662 -21 OFFCURVE",
"753 11 QCURVE SMOOTH",
"920 69 OFFCURVE",
"990 213 QCURVE SMOOTH",
"1023 280 OFFCURVE",
"1023 345 QCURVE SMOOTH",
"1023 347 OFFCURVE",
"1023 349 QCURVE SMOOTH",
"1023 393 LINE",
"1022 539 OFFCURVE",
"860 672 QCURVE SMOOTH",
"794 726 OFFCURVE",
"794 742 OFFCURVE",
"905 857 OFFCURVE",
"967 971 OFFCURVE",
"967 1057 QCURVE SMOOTH",
"967 1189 OFFCURVE",
"737 1369 OFFCURVE",
"581 1369 QCURVE SMOOTH",
"535 1369 LINE SMOOTH",
"378 1369 OFFCURVE",
"136 1171 OFFCURVE",
"136 878 OFFCURVE",
"222 792 QCURVE SMOOTH"
);
}
);
width = 1129;
},
{
layerId = "92A672BF-229C-4BEC-8D25-4DDBB2A38145";
paths = (
{
closed = 1;
nodes = (
"781 1023 LINE",
"779 1007 LINE",
"779 935 OFFCURVE",
"668 783 OFFCURVE",
"619 783 QCURVE SMOOTH",
"605 783 LINE SMOOTH",
"582 783 OFFCURVE",
"451 853 OFFCURVE",
"418 890 QCURVE SMOOTH",
"339 977 OFFCURVE",
"339 1058 QCURVE SMOOTH",
"339 1099 LINE SMOOTH",
"339 1177 OFFCURVE",
"447 1297 OFFCURVE",
"525 1297 QCURVE SMOOTH",
"556 1297 LINE SMOOTH",
"648 1297 OFFCURVE",
"781 1164 OFFCURVE",
"781 1056 QCURVE SMOOTH"
);
},
{
closed = 1;
nodes = (
"270 480 OFFCURVE",
"328 555 QCURVE SMOOTH",
"410 662 OFFCURVE",
"476 662 QCURVE SMOOTH",
"485 662 LINE SMOOTH",
"507 662 OFFCURVE",
"569 633 QCURVE SMOOTH",
"817 516 OFFCURVE",
"817 335 QCURVE SMOOTH",
"817 317 LINE SMOOTH",
"817 213 OFFCURVE",
"668 75 OFFCURVE",
"567 75 QCURVE SMOOTH",
"549 75 LINE SMOOTH",
"444 75 OFFCURVE",
"270 222 OFFCURVE",
"270 342 QCURVE SMOOTH",
"270 389 LINE SMOOTH"
);
},
{
closed = 1;
nodes = (
"553 -24 LINE SMOOTH",
"746 -24 OFFCURVE",
"996 188 OFFCURVE",
"996 344 QCURVE SMOOTH",
"996 366 LINE SMOOTH",
"996 469 OFFCURVE",
"928 563 QCURVE SMOOTH",
"895 609 OFFCURVE",
"819 668 OFFCURVE",
"746 717 OFFCURVE",
"746 724 QCURVE SMOOTH",
"746 736 OFFCURVE",
"826 811 QCURVE SMOOTH",
"943 919 OFFCURVE",
"943 1196 OFFCURVE",
"733 1366 OFFCURVE",
"568 1366 QCURVE SMOOTH",
"544 1366 LINE SMOOTH",
"377 1366 OFFCURVE",
"144 1176 OFFCURVE",
"144 1018 QCURVE SMOOTH",
"144 936 OFFCURVE",
"182 872 QCURVE SMOOTH",
"220 810 OFFCURVE",
"332 702 OFFCURVE",
"332 695 OFFCURVE",
"234 612 QCURVE SMOOTH",
"91 490 OFFCURVE",
"91 342 QCURVE SMOOTH",
"91 320 LINE SMOOTH",
"91 250 OFFCURVE",
"163 110 OFFCURVE",
"222 67 QCURVE SMOOTH",
"347 -24 OFFCURVE",
"529 -24 QCURVE SMOOTH"
);
}
);
width = 1134;
}
);
note = uni0038;
unicode = 0038;
},
{
glyphname = nine;
lastChange = "2018-12-06 23:43:23 +0000";
layers = (
{
layerId = "5CBF0BAD-1756-4F16-9711-93DC239D102B";
paths = (
{
closed = 1;
nodes = (
"459 605 OFFCURVE",
"345 770 OFFCURVE",
"345 901 QCURVE SMOOTH",
"345 928 LINE SMOOTH",
"345 1036 OFFCURVE",
"435 1204 OFFCURVE",
"525 1204 QCURVE SMOOTH",
"542 1204 LINE SMOOTH",
"625 1204 OFFCURVE",
"751 1023 OFFCURVE",
"751 866 QCURVE SMOOTH",
"751 813 LINE SMOOTH",
"751 708 OFFCURVE",
"649 606 OFFCURVE",
"566 606 QCURVE",
"558 605 LINE",
"541 605 LINE SMOOTH"
);
},
{
closed = 1;
nodes = (
"361 -15 LINE SMOOTH",
"496 -15 OFFCURVE",
"650 60 QCURVE SMOOTH",
"896 181 OFFCURVE",
"988 469 QCURVE SMOOTH",
"1034 612 OFFCURVE",
"1034 768 QCURVE SMOOTH",
"1034 1018 OFFCURVE",
"917 1173 QCURVE SMOOTH",
"858 1251 OFFCURVE",
"668 1344 OFFCURVE",
"565 1344 QCURVE SMOOTH",
"538 1344 LINE SMOOTH",
"438 1344 OFFCURVE",
"265 1271 OFFCURVE",
"207 1211 QCURVE SMOOTH",
"79 1078 OFFCURVE",
"79 888 QCURVE SMOOTH",
"79 792 OFFCURVE",
"112 714 QCURVE SMOOTH",
"172 567 OFFCURVE",
"325 507 QCURVE SMOOTH",
"406 475 OFFCURVE",
"476 475 QCURVE SMOOTH",
"562 475 LINE SMOOTH",
"645 475 OFFCURVE",
"678 444 QCURVE SMOOTH",
"691 432 OFFCURVE",
"691 377 OFFCURVE",
"666 331 QCURVE SMOOTH",
"587 184 OFFCURVE",
"381 153 QCURVE SMOOTH",
"267 136 OFFCURVE",
"263 134 QCURVE",
"194 109 OFFCURVE",
"194 67 QCURVE SMOOTH",
"194 -15 OFFCURVE",
"340 -15 QCURVE SMOOTH"
);
}
);
width = 1131;
},
{
layerId = "92A672BF-229C-4BEC-8D25-4DDBB2A38145";
paths = (
{
closed = 1;
nodes = (
"657 1194 OFFCURVE",
"799 982 OFFCURVE",
"799 813 QCURVE",
"800 803 LINE",
"800 772 LINE SMOOTH",
"800 652 OFFCURVE",
"669 521 OFFCURVE",
"564 521 QCURVE SMOOTH",
"535 521 LINE SMOOTH",
"434 521 OFFCURVE",
"289 690 OFFCURVE",
"289 828 QCURVE SMOOTH",
"289 902 LINE SMOOTH",
"289 1015 OFFCURVE",
"419 1193 OFFCURVE",
"517 1193 QCURVE",
"527 1194 LINE",
"547 1194 LINE SMOOTH"
);
},
{
closed = 1;
nodes = (
"282 81 LINE",
"182 81 OFFCURVE",
"182 23 QCURVE SMOOTH",
"182 -60 OFFCURVE",
"355 -60 QCURVE SMOOTH",
"378 -60 LINE SMOOTH",
"497 -60 OFFCURVE",
"751 58 OFFCURVE",
"829 152 QCURVE SMOOTH",
"1008 366 OFFCURVE",
"1008 690 QCURVE SMOOTH",
"1008 746 LINE SMOOTH",
"1008 854 OFFCURVE",
"938 1079 OFFCURVE",
"878 1146 QCURVE SMOOTH",
"749 1289 OFFCURVE",
"543 1289 QCURVE SMOOTH",
"517 1289 LINE SMOOTH",
"434 1289 OFFCURVE",
"265 1218 OFFCURVE",
"205 1156 QCURVE SMOOTH",
"93 1042 OFFCURVE",
"93 858 QCURVE SMOOTH",
"93 765 OFFCURVE",
"125 687 QCURVE SMOOTH",
"181 548 OFFCURVE",
"327 482 QCURVE SMOOTH",
"399 449 OFFCURVE",
"464 449 QCURVE SMOOTH",
"466 449 OFFCURVE",
"468 449 QCURVE SMOOTH",
"535 449 OFFCURVE",
"627 461 OFFCURVE",
"685 461 OFFCURVE",
"747 409 OFFCURVE",
"747 337 OFFCURVE",
"671 197 OFFCURVE",
"526 70 OFFCURVE",
"404 70 QCURVE"
);
}
);
width = 1144;
}
);
note = uni0039;
unicode = 0039;
},
{
glyphname = colon;
lastChange = "2018-12-06 23:43:23 +0000";
layers = (
{
layerId = "5CBF0BAD-1756-4F16-9711-93DC239D102B";
paths = (
{
closed = 1;
nodes = (
"328 985 LINE",
"301 982 LINE",
"246 982 OFFCURVE",
"160 884 OFFCURVE",
"160 832 QCURVE SMOOTH",
"160 821 LINE SMOOTH",
"160 761 OFFCURVE",
"251 670 OFFCURVE",
"315 670 QCURVE SMOOTH",
"332 670 LINE SMOOTH",
"393 670 OFFCURVE",
"491 756 OFFCURVE",
"491 802 QCURVE SMOOTH",
"491 807 OFFCURVE",
"493 817 QCURVE",
"493 838 LINE SMOOTH",
"493 895 OFFCURVE",
"403 985 OFFCURVE",
"338 985 QCURVE SMOOTH"
);
},
{
closed = 1;
nodes = (
"254 312 OFFCURVE",
"160 218 OFFCURVE",
"160 164 QCURVE SMOOTH",
"160 143 LINE SMOOTH",
"160 87 OFFCURVE",
"250 -3 OFFCURVE",
"315 -3 QCURVE SMOOTH",
"337 -3 LINE",
"348 -1 LINE",
"401 -1 OFFCURVE",
"493 91 OFFCURVE",
"493 144 QCURVE SMOOTH",
"493 171 LINE SMOOTH",
"493 221 OFFCURVE",
"402 312 OFFCURVE",
"338 312 QCURVE SMOOTH",
"322 312 LINE SMOOTH"
);
}
);
width = 615;
},
{
layerId = "92A672BF-229C-4BEC-8D25-4DDBB2A38145";
paths = (
{
closed = 1;
nodes = (
"333 678 OFFCURVE",
"402 760 OFFCURVE",
"402 805 QCURVE SMOOTH",
"402 814 LINE SMOOTH",
"402 863 OFFCURVE",
"332 933 OFFCURVE",
"293 933 OFFCURVE",
"281 936 QCURVE",
"264 936 LINE",
"244 933 LINE",
"204 933 OFFCURVE",
"138 854 OFFCURVE",
"138 817 QCURVE SMOOTH",
"138 792 LINE",
"140 783 LINE",
"140 749 OFFCURVE",
"209 680 OFFCURVE",
"241 680 QCURVE SMOOTH",
"246 680 OFFCURVE",
"254 678 QCURVE",
"280 678 LINE SMOOTH"
);
},
{
closed = 1;
nodes = (
"133 125 LINE",
"137 95 LINE",
"137 65 OFFCURVE",
"204 -2 OFFCURVE",
"235 -2 QCURVE SMOOTH",
"240 -2 OFFCURVE",
"248 -4 QCURVE",
"256 -4 LINE",
"261 -5 LINE",
"269 -5 LINE SMOOTH",
"322 -5 OFFCURVE",
"396 69 OFFCURVE",
"396 108 OFFCURVE",
"399 120 QCURVE",
"399 129 LINE",
"396 150 LINE",
"396 184 OFFCURVE",
"330 250 OFFCURVE",
"288 250 OFFCURVE",
"272 254 QCURVE",
"263 254 LINE SMOOTH",
"216 254 OFFCURVE",
"136 185 OFFCURVE",
"136 149 QCURVE",
"134 129 LINE"
);
}
);
width = 533;
}
);
note = uni003A;
unicode = 003A;
},
{
glyphname = semicolon;
lastChange = "2018-12-06 23:43:23 +0000";
layers = (
{
layerId = "5CBF0BAD-1756-4F16-9711-93DC239D102B";
paths = (
{
closed = 1;
nodes = (
"362 969 OFFCURVE",
"350 971 QCURVE",
"324 971 LINE",
"313 969 LINE",
"259 969 OFFCURVE",
"167 877 OFFCURVE",
"167 819 QCURVE SMOOTH",
"167 803 LINE",
"169 792 LINE",
"169 739 OFFCURVE",
"265 657 OFFCURVE",
"322 657 QCURVE SMOOTH",
"344 657 LINE",
"355 659 LINE",
"415 659 OFFCURVE",
"501 758 OFFCURVE",
"501 809 QCURVE SMOOTH",
"501 814 LINE",
"498 841 LINE",
"498 883 OFFCURVE",
"412 969 OFFCURVE",
"366 969 QCURVE SMOOTH"
);
},
{
closed = 1;
nodes = (
"330 293 LINE SMOOTH",
"267 293 OFFCURVE",
"170 204 OFFCURVE",
"170 143 QCURVE SMOOTH",
"170 127 LINE SMOOTH",
"170 85 OFFCURVE",
"273 -29 OFFCURVE",
"273 -43 QCURVE SMOOTH",
"273 -104 OFFCURVE",
"223 -182 OFFCURVE",
"171 -243 OFFCURVE",
"171 -253 QCURVE SMOOTH",
"171 -315 OFFCURVE",
"227 -315 QCURVE SMOOTH",
"264 -315 OFFCURVE",
"295 -289 QCURVE SMOOTH",
"374 -222 OFFCURVE",
"416 -157 QCURVE SMOOTH",
"498 -29 OFFCURVE",
"498 94 QCURVE SMOOTH",
"498 121 LINE SMOOTH",
"498 293 OFFCURVE",
"357 293 QCURVE SMOOTH"
);
}
);
width = 625;
},
{
layerId = "92A672BF-229C-4BEC-8D25-4DDBB2A38145";
paths = (
{
closed = 1;
nodes = (
"305 912 OFFCURVE",
"297 914 QCURVE",
"272 914 LINE SMOOTH",
"217 914 OFFCURVE",
"150 821 OFFCURVE",
"150 784 QCURVE SMOOTH",
"150 771 LINE SMOOTH",
"150 726 OFFCURVE",
"210 654 OFFCURVE",
"238 654 QCURVE SMOOTH",
"242 654 OFFCURVE",
"254 651 QCURVE",
"262 651 LINE",
"266 650 LINE",
"274 650 LINE SMOOTH",
"334 650 OFFCURVE",
"405 735 OFFCURVE",
"405 781 QCURVE",
"406 785 LINE",
"406 836 OFFCURVE",
"343 912 OFFCURVE",
"308 912 QCURVE SMOOTH"
);
},
{
closed = 1;
nodes = (
"407 171 OFFCURVE",
"336 257 OFFCURVE",
"281 257 QCURVE SMOOTH",
"259 257 LINE SMOOTH",
"214 257 OFFCURVE",
"148 191 OFFCURVE",
"148 157 QCURVE SMOOTH",
"148 90 OFFCURVE",
"258 -9 OFFCURVE",
"258 -34 QCURVE SMOOTH",
"258 -116 OFFCURVE",
"168 -198 QCURVE SMOOTH",
"143 -221 OFFCURVE",
"143 -233 QCURVE SMOOTH",
"143 -264 OFFCURVE",
"167 -264 QCURVE SMOOTH",
"179 -264 LINE SMOOTH",
"241 -264 OFFCURVE",
"340 -132 QCURVE SMOOTH",
"407 -43 OFFCURVE",
"407 56 QCURVE SMOOTH",
"407 101 LINE SMOOTH"
);
}
);
width = 546;
}
);
note = uni003B;
unicode = 003B;
},
{
glyphname = less;
lastChange = "2018-12-06 23:43:23 +0000";
layers = (
{
layerId = "5CBF0BAD-1756-4F16-9711-93DC239D102B";
paths = (
{
closed = 1;
nodes = (
"988 230 OFFCURVE",
"901 291 QCURVE SMOOTH",
"873 311 OFFCURVE",
"388 596 OFFCURVE",
"388 597 QCURVE SMOOTH",
"388 609 OFFCURVE",
"858 885 OFFCURVE",
"885 905 QCURVE SMOOTH",
"988 981 OFFCURVE",
"988 1123 OFFCURVE",
"944 1123 QCURVE SMOOTH",
"911 1123 OFFCURVE",
"859 1093 QCURVE SMOOTH",
"294 768 OFFCURVE",
"171 687 QCURVE SMOOTH",
"108 646 OFFCURVE",
"108 606 QCURVE SMOOTH",
"108 588 LINE SMOOTH",
"108 550 OFFCURVE",
"193 497 QCURVE SMOOTH",
"875 76 OFFCURVE",
"988 76 OFFCURVE",
"988 158 QCURVE SMOOTH",
"988 174 LINE SMOOTH"
);
}
);
width = 1122;
},
{
layerId = "92A672BF-229C-4BEC-8D25-4DDBB2A38145";
paths = (
{
closed = 1;
nodes = (
"92 551 OFFCURVE",
"286 437 QCURVE SMOOTH",
"879 88 OFFCURVE",
"915 88 QCURVE SMOOTH",
"945 88 OFFCURVE",
"945 153 QCURVE SMOOTH",
"945 192 OFFCURVE",
"871 240 QCURVE SMOOTH",
"759 313 OFFCURVE",
"285 577 OFFCURVE",
"285 588 QCURVE SMOOTH",
"285 608 OFFCURVE",
"833 915 OFFCURVE",
"942 994 OFFCURVE",
"942 1031 QCURVE SMOOTH",
"942 1090 OFFCURVE",
"885 1090 OFFCURVE",
"304 748 QCURVE SMOOTH",
"92 623 OFFCURVE",
"92 597 QCURVE SMOOTH",
"92 580 LINE SMOOTH"
);
}
);
width = 1075;
}
);
note = uni003C;
unicode = 003C;
},
{
glyphname = equal;
lastChange = "2018-12-06 23:43:23 +0000";
layers = (
{
layerId = "5CBF0BAD-1756-4F16-9711-93DC239D102B";
paths = (
{
closed = 1;
nodes = (
"926 878 LINE",
"419 877 LINE",
"408 878 LINE",
"365 878 LINE SMOOTH",
"181 878 OFFCURVE",
"127 858 OFFCURVE",
"127 779 QCURVE",
"126 768 LINE",
"126 756 LINE SMOOTH",
"126 707 OFFCURVE",
"178 707 QCURVE SMOOTH",
"241 707 LINE",
"274 708 LINE",
"362 708 LINE",
"384 709 LINE",
"584 709 LINE SMOOTH",
"999 709 OFFCURVE",
"1066 727 OFFCURVE",
"1066 810 QCURVE",
"1067 821 LINE",
"1067 832 LINE SMOOTH",
"1067 878 OFFCURVE",
"1024 878 QCURVE SMOOTH"
);
},
{
closed = 1;
nodes = (
"251 343 LINE",
"283 344 LINE",
"350 344 LINE",
"371 345 LINE",
"579 345 LINE SMOOTH",
"987 345 OFFCURVE",
"1059 360 OFFCURVE",
"1059 414 QCURVE SMOOTH",
"1059 423 OFFCURVE",
"1061 447 QCURVE",
"1061 468 LINE SMOOTH",
"1061 515 OFFCURVE",
"1007 515 QCURVE SMOOTH",
"599 513 LINE SMOOTH",
"188 513 OFFCURVE",
"124 500 OFFCURVE",
"124 413 QCURVE SMOOTH",
"124 402 LINE",
"123 391 LINE",
"123 343 OFFCURVE",
"187 343 QCURVE SMOOTH"
);
}
);
width = 1174;
},
{
layerId = "92A672BF-229C-4BEC-8D25-4DDBB2A38145";
paths = (
{
closed = 1;
nodes = (
"987 818 OFFCURVE",
"919 818 QCURVE SMOOTH",
"851 818 LINE",
"565 817 LINE SMOOTH",
"171 817 OFFCURVE",
"122 808 OFFCURVE",
"122 767 QCURVE",
"121 757 LINE",
"121 737 LINE SMOOTH",
"121 695 OFFCURVE",
"180 695 QCURVE SMOOTH",
"336 695 LINE",
"375 696 LINE",
"541 696 LINE SMOOTH",
"937 696 OFFCURVE",
"987 705 OFFCURVE",
"987 746 QCURVE SMOOTH",
"987 785 LINE SMOOTH"
);
},
{
closed = 1;
nodes = (
"831 478 LINE",
"157 474 LINE SMOOTH",
"118 474 OFFCURVE",
"118 419 QCURVE SMOOTH",
"118 399 LINE SMOOTH",
"118 354 OFFCURVE",
"213 354 QCURVE SMOOTH",
"223 354 LINE",
"252 355 LINE",
"351 355 LINE",
"370 356 LINE",
"536 356 LINE SMOOTH",
"931 356 OFFCURVE",
"985 365 OFFCURVE",
"985 414 QCURVE",
"986 424 LINE",
"986 433 LINE SMOOTH",
"986 478 OFFCURVE",
"919 478 QCURVE SMOOTH"
);
}
);
width = 1117;
}
);
note = uni003D;
unicode = 003D;
},
{
glyphname = greater;
lastChange = "2018-12-06 23:43:23 +0000";
layers = (
{
layerId = "5CBF0BAD-1756-4F16-9711-93DC239D102B";
paths = (
{
closed = 1;
nodes = (
"726 594 OFFCURVE",
"254 316 OFFCURVE",
"220 288 QCURVE SMOOTH",
"129 213 OFFCURVE",
"129 77 OFFCURVE",
"171 77 QCURVE SMOOTH",
"232 77 OFFCURVE",
"902 491 QCURVE SMOOTH",
"1004 554 OFFCURVE",
"1004 591 QCURVE SMOOTH",
"1004 609 LINE SMOOTH",
"1004 650 OFFCURVE",
"940 692 QCURVE SMOOTH",
"705 846 OFFCURVE",
"258 1096 QCURVE SMOOTH",
"210 1123 OFFCURVE",
"190 1123 QCURVE SMOOTH",
"174 1123 LINE SMOOTH",
"134 1123 OFFCURVE",
"134 975 OFFCURVE",
"216 913 QCURVE SMOOTH",
"245 891 OFFCURVE",
"726 608 OFFCURVE",
"726 597 QCURVE SMOOTH"
);
}
);
width = 1107;
},
{
layerId = "92A672BF-229C-4BEC-8D25-4DDBB2A38145";
paths = (
{
closed = 1;
nodes = (
"137 1090 OFFCURVE",
"137 990 OFFCURVE",
"241 917 OFFCURVE",
"793 599 OFFCURVE",
"793 583 QCURVE SMOOTH",
"793 579 OFFCURVE",
"436 373 OFFCURVE",
"434 372 QCURVE",
"130 188 OFFCURVE",
"130 153 QCURVE SMOOTH",
"130 137 LINE SMOOTH",
"130 89 OFFCURVE",
"155 89 QCURVE SMOOTH",
"216 89 OFFCURVE",
"934 524 QCURVE SMOOTH",
"981 552 OFFCURVE",
"981 632 OFFCURVE",
"776 747 QCURVE SMOOTH",
"712 783 OFFCURVE",
"178 1090 OFFCURVE",
"165 1090 QCURVE SMOOTH"
);
}
);
width = 1074;
}
);
note = uni003E;
unicode = 003E;
},
{
glyphname = question;
lastChange = "2018-12-06 23:43:23 +0000";
layers = (
{
layerId = "5CBF0BAD-1756-4F16-9711-93DC239D102B";
paths = (
{
closed = 1;
nodes = (
"107 1301 OFFCURVE",
"107 1207 QCURVE SMOOTH",
"107 1189 LINE SMOOTH",
"107 1094 OFFCURVE",
"256 1094 OFFCURVE",
"365 1244 OFFCURVE",
"515 1244 OFFCURVE",
"610 1164 OFFCURVE",
"610 1017 OFFCURVE",
"547 904 OFFCURVE",
"400 741 OFFCURVE",
"385 717 QCURVE SMOOTH",
"344 652 OFFCURVE",
"344 506 OFFCURVE",
"396 394 OFFCURVE",
"434 394 QCURVE SMOOTH",
"531 394 OFFCURVE",
"531 457 QCURVE SMOOTH",
"531 559 OFFCURVE",
"573 622 QCURVE SMOOTH",
"592 651 OFFCURVE",
"714 764 QCURVE SMOOTH",
"876 914 OFFCURVE",
"876 1237 OFFCURVE",
"638 1432 OFFCURVE",
"276 1432 OFFCURVE",
"169 1349 QCURVE SMOOTH"
);
},
{
closed = 1;
nodes = (
"438 271 LINE",
"427 269 LINE",
"369 269 OFFCURVE",
"286 172 OFFCURVE",
"286 123 QCURVE SMOOTH",
"286 113 LINE SMOOTH",
"286 55 OFFCURVE",
"374 -33 OFFCURVE",
"442 -33 QCURVE SMOOTH",
"447 -33 LINE",
"473 -30 LINE",
"521 -30 OFFCURVE",
"608 57 OFFCURVE",
"608 114 QCURVE",
"609 119 LINE",
"609 124 LINE SMOOTH",
"609 188 OFFCURVE",
"515 271 OFFCURVE",
"459 271 QCURVE SMOOTH"
);
}
);
width = 964;
},
{
layerId = "92A672BF-229C-4BEC-8D25-4DDBB2A38145";
paths = (
{
closed = 1;
nodes = (
"830 1083 LINE SMOOTH",
"830 1227 OFFCURVE",
"611 1415 OFFCURVE",
"436 1415 QCURVE SMOOTH",
"416 1415 LINE SMOOTH",
"280 1415 OFFCURVE",
"97 1303 OFFCURVE",
"97 1107 OFFCURVE",
"161 1107 QCURVE SMOOTH",
"208 1107 OFFCURVE",
"283 1200 QCURVE SMOOTH",
"332 1261 OFFCURVE",
"510 1261 OFFCURVE",
"610 1174 OFFCURVE",
"610 1035 OFFCURVE",
"556 920 OFFCURVE",
"392 742 OFFCURVE",
"374 711 QCURVE SMOOTH",
"328 632 OFFCURVE",
"328 463 OFFCURVE",
"375 382 OFFCURVE",
"393 382 QCURVE SMOOTH",
"409 382 LINE SMOOTH",
"456 382 OFFCURVE",
"456 553 OFFCURVE",
"502 616 OFFCURVE",
"726 803 OFFCURVE",
"830 962 OFFCURVE",
"830 1063 QCURVE SMOOTH"
);
},
{
closed = 1;
nodes = (
"390 -29 LINE",
"395 -30 LINE",
"399 -30 LINE",
"419 -27 LINE",
"461 -27 OFFCURVE",
"527 52 OFFCURVE",
"527 94 QCURVE",
"528 98 LINE",
"528 102 LINE SMOOTH",
"528 145 OFFCURVE",
"463 223 OFFCURVE",
"411 223 QCURVE SMOOTH",
"386 223 LINE",
"378 221 LINE",
"342 221 OFFCURVE",
"272 151 OFFCURVE",
"272 120 QCURVE SMOOTH",
"272 116 OFFCURVE",
"270 108 QCURVE",
"270 92 LINE",
"273 71 LINE",
"273 33 OFFCURVE",
"345 -27 OFFCURVE",
"374 -27 OFFCURVE",
"382 -29 QCURVE"
);
}
);
width = 932;
}
);
note = uni003F;
unicode = 003F;
},
{
glyphname = at;
lastChange = "2018-12-06 23:43:23 +0000";
layers = (
{
layerId = "5CBF0BAD-1756-4F16-9711-93DC239D102B";
paths = (
{
closed = 1;
nodes = (
"1017 738 LINE",
"1015 694 LINE",
"1010 657 LINE",
"1010 512 OFFCURVE",
"883 277 OFFCURVE",
"792 277 QCURVE",
"785 276 LINE",
"736 276 OFFCURVE",
"673 370 OFFCURVE",
"673 448 QCURVE SMOOTH",
"673 502 LINE SMOOTH",
"673 645 OFFCURVE",
"816 852 OFFCURVE",
"908 852 QCURVE SMOOTH",
"916 852 LINE SMOOTH",
"1017 852 OFFCURVE",
"1017 767 QCURVE SMOOTH"
);
},
{
closed = 1;
nodes = (
"926 942 OFFCURVE",
"828 925 QCURVE SMOOTH",
"652 895 OFFCURVE",
"552 694 QCURVE SMOOTH",
"497 584 OFFCURVE",
"497 491 QCURVE SMOOTH",
"497 318 OFFCURVE",
"639 155 OFFCURVE",
"765 155 QCURVE SMOOTH",
"837 155 OFFCURVE",
"988 228 OFFCURVE",
"1013 228 OFFCURVE",
"1161 163 OFFCURVE",
"1199 163 QCURVE SMOOTH",
"1368 163 OFFCURVE",
"1637 472 OFFCURVE",
"1637 702 QCURVE SMOOTH",
"1637 1004 OFFCURVE",
"1230 1363 OFFCURVE",
"559 1363 OFFCURVE",
"311 1123 QCURVE SMOOTH",
"192 1007 OFFCURVE",
"68 685 OFFCURVE",
"68 372 OFFCURVE",
"118 235 QCURVE SMOOTH",
"227 -61 OFFCURVE",
"522 -178 QCURVE SMOOTH",
"668 -236 OFFCURVE",
"818 -236 QCURVE SMOOTH",
"879 -236 LINE SMOOTH",
"1022 -236 OFFCURVE",
"1349 -113 OFFCURVE",
"1349 -28 OFFCURVE",
"1317 -28 QCURVE SMOOTH",
"1281 -29 LINE",
"1134 -69 LINE",
"1023 -94 OFFCURVE",
"902 -94 QCURVE SMOOTH",
"599 -94 OFFCURVE",
"423 96 QCURVE SMOOTH",
"266 265 OFFCURVE",
"266 545 QCURVE SMOOTH",
"266 685 OFFCURVE",
"329 828 QCURVE SMOOTH",
"432 1061 OFFCURVE",
"664 1161 QCURVE SMOOTH",
"780 1211 OFFCURVE",
"904 1211 QCURVE SMOOTH",
"1163 1211 OFFCURVE",
"1315 1057 QCURVE SMOOTH",
"1459 914 OFFCURVE",
"1459 676 QCURVE SMOOTH",
"1459 544 OFFCURVE",
"1352 348 OFFCURVE",
"1262 348 QCURVE SMOOTH",
"1230 348 OFFCURVE",
"1181 444 OFFCURVE",
"1181 549 QCURVE",
"1185 661 LINE SMOOTH",
"1188 744 OFFCURVE",
"1188 844 OFFCURVE",
"1136 942 OFFCURVE",
"1069 942 QCURVE SMOOTH"
);
}
);
width = 1788;
},
{
layerId = "92A672BF-229C-4BEC-8D25-4DDBB2A38145";
paths = (
{
closed = 1;
nodes = (
"981 843 OFFCURVE",
"1040 772 OFFCURVE",
"1040 721 QCURVE SMOOTH",
"1040 713 LINE",
"1039 688 LINE",
"1039 507 OFFCURVE",
"954 375 QCURVE SMOOTH",
"918 319 OFFCURVE",
"784 233 OFFCURVE",
"751 233 QCURVE SMOOTH",
"736 233 LINE SMOOTH",
"683 233 OFFCURVE",
"629 351 OFFCURVE",
"629 452 QCURVE SMOOTH",
"629 469 LINE SMOOTH",
"629 608 OFFCURVE",
"712 716 QCURVE SMOOTH",
"759 777 OFFCURVE",
"875 843 OFFCURVE",
"912 843 QCURVE SMOOTH",
"927 843 LINE SMOOTH"
);
},
{
closed = 1;
nodes = (
"1251 -41 OFFCURVE",
"1038 -115 OFFCURVE",
"901 -115 QCURVE SMOOTH",
"605 -115 OFFCURVE",
"262 236 OFFCURVE",
"262 785 OFFCURVE",
"437 982 QCURVE SMOOTH",
"523 1080 OFFCURVE",
"676 1142 QCURVE SMOOTH",
"774 1182 OFFCURVE",
"884 1182 QCURVE SMOOTH",
"1150 1182 OFFCURVE",
"1452 891 OFFCURVE",
"1452 656 QCURVE SMOOTH",
"1452 518 OFFCURVE",
"1354 343 OFFCURVE",
"1296 313 QCURVE",
"1253 297 LINE",
"1183 297 OFFCURVE",
"1134 390 OFFCURVE",
"1134 526 OFFCURVE",
"1140 657 QCURVE SMOOTH",
"1143 711 LINE",
"1144 762 LINE SMOOTH",
"1144 851 OFFCURVE",
"1099 904 OFFCURVE",
"1062 904 QCURVE",
"1028 899 LINE",
"989 898 LINE",
"948 902 LINE",
"905 905 LINE",
"859 906 LINE SMOOTH",
"791 906 OFFCURVE",
"661 824 OFFCURVE",
"615 757 QCURVE SMOOTH",
"509 602 OFFCURVE",
"509 390 QCURVE SMOOTH",
"509 274 OFFCURVE",
"593 209 QCURVE SMOOTH",
"641 172 OFFCURVE",
"768 172 OFFCURVE",
"914 242 OFFCURVE",
"947 242 OFFCURVE",
"1097 164 OFFCURVE",
"1236 164 OFFCURVE",
"1385 238 OFFCURVE",
"1445 303 QCURVE SMOOTH",
"1582 451 OFFCURVE",
"1582 674 QCURVE SMOOTH",
"1582 796 OFFCURVE",
"1540 905 QCURVE SMOOTH",
"1452 1134 OFFCURVE",
"1214 1240 QCURVE SMOOTH",
"1087 1296 OFFCURVE",
"942 1296 QCURVE SMOOTH",
"647 1296 OFFCURVE",
"234 1008 OFFCURVE",
"162 800 QCURVE SMOOTH",
"110 648 OFFCURVE",
"109 508 QCURVE SMOOTH",
"109 368 OFFCURVE",
"149 247 QCURVE SMOOTH",
"244 -43 OFFCURVE",
"530 -160 QCURVE SMOOTH",
"672 -218 OFFCURVE",
"820 -218 QCURVE SMOOTH",
"880 -218 LINE SMOOTH",
"990 -218 OFFCURVE",
"1220 -144 OFFCURVE",
"1271 -104 QCURVE",
"1300 -73 LINE",
"1300 -41 OFFCURVE",
"1268 -41 QCURVE SMOOTH"
);
}
);
width = 1738;
}
);
note = uni0040;
unicode = 0040;
},
{
glyphname = A;
lastChange = "2018-12-06 23:43:23 +0000";
layers = (
{
layerId = "5CBF0BAD-1756-4F16-9711-93DC239D102B";
paths = (
{
closed = 1;
nodes = (
"503 640 OFFCURVE",
"673 1083 OFFCURVE",
"678 1083 OFFCURVE",
"848 641 OFFCURVE",
"848 598 QCURVE SMOOTH",
"848 582 OFFCURVE",
"711 582 QCURVE SMOOTH",
"596 582 LINE SMOOTH",
"503 582 OFFCURVE",
"503 594 QCURVE SMOOTH",
"503 604 LINE SMOOTH"
);
},
{
closed = 1;
nodes = (
"609 1390 OFFCURVE",
"527 1251 OFFCURVE",
"410 788 OFFCURVE",
"194 273 QCURVE SMOOTH",
"164 202 OFFCURVE",
"114 158 QCURVE SMOOTH",
"23 78 OFFCURVE",
"23 71 QCURVE SMOOTH",
"23 19 OFFCURVE",
"69 6 QCURVE SMOOTH",
"141 -14 OFFCURVE",
"355 -14 QCURVE SMOOTH",
"445 -14 OFFCURVE",
"445 28 QCURVE SMOOTH",
"445 62 OFFCURVE",
"388 182 OFFCURVE",
"388 286 OFFCURVE",
"451 408 OFFCURVE",
"512 438 OFFCURVE",
"745 438 QCURVE SMOOTH",
"872 438 OFFCURVE",
"896 404 QCURVE SMOOTH",
"955 320 OFFCURVE",
"955 197 QCURVE SMOOTH",
"955 171 OFFCURVE",
"915 62 OFFCURVE",
"915 48 QCURVE SMOOTH",
"915 -6 OFFCURVE",
"1041 -6 QCURVE SMOOTH",
"1318 -6 OFFCURVE",
"1388 11 QCURVE SMOOTH",
"1431 22 OFFCURVE",
"1431 91 OFFCURVE",
"1305 185 OFFCURVE",
"1256 288 OFFCURVE",
"1147 603 OFFCURVE",
"1055 831 OFFCURVE",
"927 1177 OFFCURVE",
"895 1232 QCURVE SMOOTH",
"803 1390 OFFCURVE",
"729 1390 QCURVE SMOOTH",
"700 1390 LINE SMOOTH"
);
}
);
width = 1474;
},
{
layerId = "92A672BF-229C-4BEC-8D25-4DDBB2A38145";
paths = (
{
closed = 1;
nodes = (
"859 577 OFFCURVE",
"723 577 QCURVE SMOOTH",
"551 577 LINE SMOOTH",
"455 577 OFFCURVE",
"455 595 QCURVE SMOOTH",
"455 618 OFFCURVE",
"656 1154 OFFCURVE",
"665 1154 OFFCURVE",
"689 1094 QCURVE SMOOTH",
"859 669 OFFCURVE",
"859 603 QCURVE SMOOTH",
"859 591 LINE SMOOTH"
);
},
{
closed = 1;
nodes = (
"20 13 OFFCURVE",
"289 13 QCURVE SMOOTH",
"387 13 OFFCURVE",
"387 48 QCURVE SMOOTH",
"387 55 OFFCURVE",
"304 133 OFFCURVE",
"304 213 OFFCURVE",
"390 434 OFFCURVE",
"452 487 OFFCURVE",
"613 487 QCURVE SMOOTH",
"672 487 OFFCURVE",
"702 486 QCURVE SMOOTH",
"760 484 LINE SMOOTH",
"872 484 OFFCURVE",
"907 436 QCURVE SMOOTH",
"926 410 OFFCURVE",
"1005 211 OFFCURVE",
"1005 136 OFFCURVE",
"939 65 OFFCURVE",
"939 41 QCURVE SMOOTH",
"939 5 OFFCURVE",
"1114 5 QCURVE SMOOTH",
"1232 5 LINE SMOOTH",
"1386 5 OFFCURVE",
"1386 44 QCURVE SMOOTH",
"1386 66 OFFCURVE",
"1304 113 QCURVE SMOOTH",
"1264 136 OFFCURVE",
"1216 236 OFFCURVE",
"964 914 OFFCURVE",
"925 1028 QCURVE SMOOTH",
"826 1318 OFFCURVE",
"751 1373 QCURVE SMOOTH",
"726 1391 OFFCURVE",
"703 1391 QCURVE SMOOTH",
"635 1391 OFFCURVE",
"595 1323 QCURVE SMOOTH",
"582 1301 OFFCURVE",
"520 1101 OFFCURVE",
"470 954 OFFCURVE",
"309 573 OFFCURVE",
"175 226 OFFCURVE",
"174 223 QCURVE",
"141 149 OFFCURVE",
"20 73 OFFCURVE",
"20 53 QCURVE SMOOTH"
);
}
);
width = 1436;
}
);
note = uni0041;
unicode = 0041;
},
{
glyphname = B;
lastChange = "2018-12-06 23:43:23 +0000";
layers = (
{
layerId = "5CBF0BAD-1756-4F16-9711-93DC239D102B";
paths = (
{
closed = 1;
nodes = (
"524 856 LINE",
"524 1036 LINE SMOOTH",
"524 1200 OFFCURVE",
"528 1212 QCURVE SMOOTH",
"539 1244 OFFCURVE",
"605 1244 QCURVE SMOOTH",
"644 1244 LINE SMOOTH",
"773 1244 OFFCURVE",
"902 1128 OFFCURVE",
"902 1037 QCURVE SMOOTH",
"902 1005 LINE",
"900 989 LINE",
"900 901 OFFCURVE",
"772 786 OFFCURVE",
"695 786 QCURVE SMOOTH",
"687 786 OFFCURVE",
"679 785 QCURVE",
"625 783 LINE",
"617 782 LINE",
"571 782 LINE SMOOTH",
"527 782 OFFCURVE",
"527 813 QCURVE",
"525 848 LINE"
);
},
{
closed = 1;
nodes = (
"523 244 LINE",
"523 253 OFFCURVE",
"523 262 QCURVE",
"522 270 LINE",
"522 287 LINE",
"521 295 LINE",
"521 303 LINE",
"522 337 LINE",
"522 354 LINE",
"523 362 LINE",
"523 387 LINE",
"524 404 LINE",
"524 615 OFFCURVE",
"539 650 OFFCURVE",
"615 650 QCURVE SMOOTH",
"677 650 LINE SMOOTH",
"825 650 OFFCURVE",
"969 506 OFFCURVE",
"969 405 QCURVE SMOOTH",
"969 367 LINE SMOOTH",
"969 259 OFFCURVE",
"830 133 OFFCURVE",
"731 133 QCURVE SMOOTH",
"686 133 LINE",
"650 134 LINE",
"642 135 LINE",
"633 136 LINE",
"526 136 OFFCURVE",
"526 195 QCURVE",
"524 236 LINE"
);
},
{
closed = 1;
nodes = (
"554 1385 OFFCURVE",
"450 1381 QCURVE SMOOTH",
"346 1377 LINE",
"174 1377 OFFCURVE",
"95 1353 OFFCURVE",
"95 1284 OFFCURVE",
"206 1196 OFFCURVE",
"233 1084 OFFCURVE",
"233 325 OFFCURVE",
"204 171 OFFCURVE",
"160 134 QCURVE SMOOTH",
"94 79 OFFCURVE",
"94 51 QCURVE SMOOTH",
"94 12 OFFCURVE",
"146 2 QCURVE SMOOTH",
"166 -2 OFFCURVE",
"275 -2 QCURVE SMOOTH",
"404 -5 LINE SMOOTH",
"431 -5 OFFCURVE",
"457 -6 QCURVE SMOOTH",
"510 -8 LINE",
"536 -8 OFFCURVE",
"563 -9 QCURVE SMOOTH",
"590 -10 LINE",
"643 -10 LINE SMOOTH",
"816 -10 OFFCURVE",
"911 11 QCURVE SMOOTH",
"1268 90 OFFCURVE",
"1268 388 QCURVE SMOOTH",
"1268 414 LINE SMOOTH",
"1268 516 OFFCURVE",
"1195 603 QCURVE SMOOTH",
"1149 657 OFFCURVE",
"994 735 OFFCURVE",
"994 745 OFFCURVE",
"1107 820 OFFCURVE",
"1187 966 OFFCURVE",
"1187 1053 QCURVE SMOOTH",
"1187 1205 OFFCURVE",
"935 1385 OFFCURVE",
"687 1385 QCURVE SMOOTH",
"579 1385 LINE SMOOTH"
);
}
);
width = 1338;
},
{
layerId = "92A672BF-229C-4BEC-8D25-4DDBB2A38145";
paths = (
{
closed = 1;
nodes = (
"739 1297 OFFCURVE",
"810 1248 QCURVE SMOOTH",
"913 1177 OFFCURVE",
"913 1051 QCURVE SMOOTH",
"913 1023 LINE SMOOTH",
"913 901 OFFCURVE",
"823 825 QCURVE SMOOTH",
"754 767 OFFCURVE",
"601 767 QCURVE SMOOTH",
"530 767 LINE SMOOTH",
"479 767 OFFCURVE",
"453 795 OFFCURVE",
"453 877 QCURVE SMOOTH",
"453 975 LINE",
"454 1001 LINE",
"454 1124 LINE SMOOTH",
"454 1238 OFFCURVE",
"461 1262 QCURVE SMOOTH",
"472 1297 OFFCURVE",
"565 1297 QCURVE SMOOTH",
"583 1297 LINE SMOOTH"
);
},
{
closed = 1;
nodes = (
"797 676 OFFCURVE",
"983 527 OFFCURVE",
"983 386 QCURVE",
"984 375 LINE",
"984 364 LINE SMOOTH",
"984 296 OFFCURVE",
"956 236 QCURVE SMOOTH",
"884 86 OFFCURVE",
"654 86 QCURVE SMOOTH",
"592 86 LINE SMOOTH",
"487 86 OFFCURVE",
"464 119 QCURVE SMOOTH",
"452 136 OFFCURVE",
"452 248 QCURVE SMOOTH",
"452 490 LINE SMOOTH",
"452 630 OFFCURVE",
"472 676 OFFCURVE",
"552 676 QCURVE SMOOTH",
"642 676 LINE SMOOTH"
);
},
{
closed = 1;
nodes = (
"379 -3 LINE",
"457 -6 LINE",
"614 -10 LINE",
"693 -10 LINE SMOOTH",
"814 -10 OFFCURVE",
"923 24 QCURVE SMOOTH",
"1087 76 OFFCURVE",
"1152 202 QCURVE SMOOTH",
"1186 270 OFFCURVE",
"1186 345 QCURVE SMOOTH",
"1186 371 LINE SMOOTH",
"1186 483 OFFCURVE",
"1109 580 QCURVE SMOOTH",
"1064 637 OFFCURVE",
"995 676 QCURVE SMOOTH",
"990 679 OFFCURVE",
"886 727 OFFCURVE",
"886 741 OFFCURVE",
"1002 812 OFFCURVE",
"1101 951 OFFCURVE",
"1101 1051 QCURVE SMOOTH",
"1101 1217 OFFCURVE",
"848 1388 OFFCURVE",
"617 1388 QCURVE SMOOTH",
"460 1388 LINE",
"305 1385 LINE SMOOTH",
"95 1385 OFFCURVE",
"95 1346 QCURVE SMOOTH",
"95 1319 OFFCURVE",
"215 1274 OFFCURVE",
"229 1233 QCURVE SMOOTH",
"251 1167 OFFCURVE",
"251 725 QCURVE SMOOTH",
"251 685 OFFCURVE",
"251 645 QCURVE SMOOTH",
"252 567 LINE",
"252 514 LINE",
"251 488 LINE",
"251 462 OFFCURVE",
"250 436 QCURVE SMOOTH",
"249 410 LINE",
"249 190 OFFCURVE",
"216 103 OFFCURVE",
"106 62 OFFCURVE",
"106 32 QCURVE SMOOTH",
"106 -3 OFFCURVE",
"277 -3 QCURVE SMOOTH"
);
}
);
width = 1314;
}
);
note = uni0042;
unicode = 0042;
},
{
glyphname = C;
lastChange = "2018-12-06 23:43:23 +0000";
layers = (
{
layerId = "5CBF0BAD-1756-4F16-9711-93DC239D102B";
paths = (
{
closed = 1;
nodes = (
"1251 1304 OFFCURVE",
"1184 1343 QCURVE SMOOTH",
"1082 1403 OFFCURVE",
"766 1403 QCURVE SMOOTH",
"733 1403 LINE SMOOTH",
"607 1403 OFFCURVE",
"478 1347 QCURVE SMOOTH",
"233 1241 OFFCURVE",
"132 972 QCURVE SMOOTH",
"83 842 OFFCURVE",
"83 717 QCURVE SMOOTH",
"83 647 LINE SMOOTH",
"83 521 OFFCURVE",
"134 388 QCURVE SMOOTH",
"229 139 OFFCURVE",
"474 31 QCURVE SMOOTH",
"597 -23 OFFCURVE",
"744 -23 QCURVE SMOOTH",
"778 -23 LINE SMOOTH",
"962 -23 OFFCURVE",
"1098 40 QCURVE SMOOTH",
"1176 76 OFFCURVE",
"1269 216 OFFCURVE",
"1269 239 QCURVE SMOOTH",
"1269 264 LINE SMOOTH",
"1269 310 OFFCURVE",
"1220 310 QCURVE SMOOTH",
"1206 310 OFFCURVE",
"1112 245 QCURVE SMOOTH",
"966 143 OFFCURVE",
"830 143 QCURVE SMOOTH",
"829 143 OFFCURVE",
"828 143 QCURVE SMOOTH",
"531 143 OFFCURVE",
"426 462 QCURVE SMOOTH",
"390 570 OFFCURVE",
"390 684 QCURVE SMOOTH",
"390 1083 OFFCURVE",
"598 1204 QCURVE SMOOTH",
"672 1247 OFFCURVE",
"753 1247 QCURVE SMOOTH",
"754 1247 OFFCURVE",
"756 1247 QCURVE SMOOTH",
"840 1247 OFFCURVE",
"970 1186 OFFCURVE",
"1166 1030 OFFCURVE",
"1192 1030 QCURVE SMOOTH",
"1251 1030 OFFCURVE",
"1251 1131 QCURVE SMOOTH"
);
}
);
width = 1363;
},
{
layerId = "92A672BF-229C-4BEC-8D25-4DDBB2A38145";
paths = (
{
closed = 1;
nodes = (
"106 678 LINE SMOOTH",
"106 536 OFFCURVE",
"149 405 QCURVE SMOOTH",
"235 143 OFFCURVE",
"480 38 QCURVE SMOOTH",
"603 -14 OFFCURVE",
"730 -15 QCURVE SMOOTH",
"800 -15 LINE SMOOTH",
"881 -15 OFFCURVE",
"1110 42 OFFCURVE",
"1190 92 OFFCURVE",
"1259 224 OFFCURVE",
"1259 314 OFFCURVE",
"1190 314 OFFCURVE",
"1070 182 OFFCURVE",
"1025 155 QCURVE SMOOTH",
"934 100 OFFCURVE",
"809 100 QCURVE SMOOTH",
"570 100 OFFCURVE",
"444 278 QCURVE SMOOTH",
"333 434 OFFCURVE",
"333 731 QCURVE SMOOTH",
"333 966 OFFCURVE",
"434 1115 QCURVE SMOOTH",
"558 1296 OFFCURVE",
"777 1296 QCURVE SMOOTH",
"898 1296 OFFCURVE",
"1004 1233 QCURVE SMOOTH",
"1051 1205 OFFCURVE",
"1162 1040 OFFCURVE",
"1184 1040 QCURVE SMOOTH",
"1242 1040 OFFCURVE",
"1242 1153 QCURVE SMOOTH",
"1242 1311 OFFCURVE",
"1194 1342 QCURVE SMOOTH",
"1179 1352 OFFCURVE",
"1069 1360 OFFCURVE",
"883 1404 OFFCURVE",
"637 1404 OFFCURVE",
"390 1309 OFFCURVE",
"208 1114 OFFCURVE",
"106 846 OFFCURVE",
"106 714 QCURVE SMOOTH"
);
}
);
width = 1361;
}
);
note = uni0043;
unicode = 0043;
},
{
glyphname = D;
lastChange = "2018-12-06 23:43:23 +0000";
layers = (
{
layerId = "5CBF0BAD-1756-4F16-9711-93DC239D102B";
paths = (
{
closed = 1;
nodes = (
"1077 539 OFFCURVE",
"1014 342 OFFCURVE",
"924 221 OFFCURVE",
"771 135 OFFCURVE",
"687 135 QCURVE SMOOTH",
"627 135 LINE SMOOTH",
"541 135 OFFCURVE",
"499 189 OFFCURVE",
"499 273 QCURVE SMOOTH",
"499 289 LINE",
"500 334 LINE SMOOTH",
"500 349 OFFCURVE",
"500 364 QCURVE SMOOTH",
"503 469 LINE SMOOTH",
"503 484 OFFCURVE",
"503 499 QCURVE",
"504 514 LINE",
"504 898 LINE SMOOTH",
"504 1186 OFFCURVE",
"507 1197 QCURVE SMOOTH",
"521 1248 OFFCURVE",
"635 1248 QCURVE",
"649 1249 LINE",
"740 1249 OFFCURVE",
"817 1215 QCURVE SMOOTH",
"986 1140 OFFCURVE",
"1048 925 QCURVE SMOOTH",
"1077 824 OFFCURVE",
"1077 718 QCURVE SMOOTH",
"1077 650 LINE SMOOTH"
);
},
{
closed = 1;
nodes = (
"242 1139 OFFCURVE",
"242 1003 QCURVE SMOOTH",
"240 928 LINE SMOOTH",
"240 903 OFFCURVE",
"239 877 QCURVE SMOOTH",
"238 852 LINE",
"235 701 LINE",
"237 573 LINE SMOOTH",
"237 274 OFFCURVE",
"207 168 OFFCURVE",
"91 91 OFFCURVE",
"91 69 QCURVE SMOOTH",
"91 31 OFFCURVE",
"132 5 OFFCURVE",
"244 5 QCURVE SMOOTH",
"468 -2 LINE SMOOTH",
"493 -2 OFFCURVE",
"519 -3 QCURVE SMOOTH",
"573 -4 LINE",
"599 -5 LINE",
"678 -5 LINE SMOOTH",
"1008 -5 OFFCURVE",
"1408 383 OFFCURVE",
"1408 1025 OFFCURVE",
"1008 1392 OFFCURVE",
"659 1392 QCURVE SMOOTH",
"606 1392 LINE SMOOTH",
"276 1392 OFFCURVE",
"141 1369 QCURVE SMOOTH",
"93 1361 OFFCURVE",
"93 1280 OFFCURVE",
"207 1222 OFFCURVE",
"221 1189 QCURVE SMOOTH"
);
}
);
width = 1499;
},
{
layerId = "92A672BF-229C-4BEC-8D25-4DDBB2A38145";
paths = (
{
closed = 1;
nodes = (
"766 1302 OFFCURVE",
"854 1264 QCURVE SMOOTH",
"1057 1176 OFFCURVE",
"1121 948 QCURVE SMOOTH",
"1154 830 OFFCURVE",
"1154 716 QCURVE SMOOTH",
"1154 642 LINE SMOOTH",
"1154 528 OFFCURVE",
"1116 420 QCURVE SMOOTH",
"1000 96 OFFCURVE",
"668 95 QCURVE SMOOTH",
"618 95 LINE SMOOTH",
"502 95 OFFCURVE",
"461 160 OFFCURVE",
"461 273 QCURVE SMOOTH",
"461 374 LINE",
"462 443 LINE",
"462 528 LINE",
"463 563 LINE",
"463 648 LINE",
"464 682 LINE",
"464 968 LINE SMOOTH",
"464 1236 OFFCURVE",
"470 1256 QCURVE SMOOTH",
"484 1302 OFFCURVE",
"597 1302 QCURVE SMOOTH",
"647 1302 LINE SMOOTH"
);
},
{
closed = 1;
nodes = (
"644 1395 LINE",
"299 1382 LINE",
"111 1382 OFFCURVE",
"111 1351 QCURVE SMOOTH",
"111 1335 LINE SMOOTH",
"111 1314 OFFCURVE",
"208 1284 OFFCURVE",
"245 1254 OFFCURVE",
"273 1101 OFFCURVE",
"273 211 OFFCURVE",
"245 112 OFFCURVE",
"119 61 OFFCURVE",
"119 1 OFFCURVE",
"321 1 QCURVE SMOOTH",
"393 1 LINE",
"466 -1 LINE SMOOTH",
"491 -1 OFFCURVE",
"516 -2 QCURVE SMOOTH",
"616 -4 LINE",
"641 -5 LINE",
"665 -5 LINE SMOOTH",
"983 -5 OFFCURVE",
"1177 177 QCURVE SMOOTH",
"1388 377 OFFCURVE",
"1388 1028 OFFCURVE",
"1198 1218 QCURVE SMOOTH",
"1108 1308 OFFCURVE",
"981 1351 QCURVE SMOOTH",
"854 1395 OFFCURVE",
"722 1395 QCURVE SMOOTH"
);
}
);
width = 1513;
}
);
note = uni0044;
unicode = 0044;
},
{
glyphname = E;
lastChange = "2018-12-06 23:43:23 +0000";
layers = (
{
layerId = "5CBF0BAD-1756-4F16-9711-93DC239D102B";
paths = (
{
closed = 1;
nodes = (
"1149 1313 OFFCURVE",
"1081 1361 QCURVE SMOOTH",
"1040 1390 OFFCURVE",
"939 1390 QCURVE SMOOTH",
"897 1390 LINE",
"637 1389 LINE SMOOTH",
"236 1389 OFFCURVE",
"92 1380 OFFCURVE",
"92 1347 QCURVE SMOOTH",
"92 1301 OFFCURVE",
"204 1207 OFFCURVE",
"232 1095 OFFCURVE",
"232 255 OFFCURVE",
"211 176 OFFCURVE",
"88 108 OFFCURVE",
"88 74 QCURVE SMOOTH",
"88 42 LINE SMOOTH",
"88 -1 OFFCURVE",
"254 -1 QCURVE SMOOTH",
"979 -1 LINE SMOOTH",
"1075 -1 OFFCURVE",
"1159 55 OFFCURVE",
"1199 155 OFFCURVE",
"1199 183 QCURVE SMOOTH",
"1199 219 LINE SMOOTH",
"1199 300 OFFCURVE",
"1156 300 QCURVE SMOOTH",
"1133 300 OFFCURVE",
"816 161 OFFCURVE",
"612 161 OFFCURVE",
"582 200 QCURVE SMOOTH",
"525 273 OFFCURVE",
"525 554 OFFCURVE",
"544 578 QCURVE SMOOTH",
"583 626 OFFCURVE",
"697 626 QCURVE SMOOTH",
"733 626 OFFCURVE",
"810 567 QCURVE SMOOTH",
"845 540 OFFCURVE",
"904 540 QCURVE",
"931 555 LINE",
"964 590 OFFCURVE",
"964 741 QCURVE SMOOTH",
"964 797 OFFCURVE",
"918 878 OFFCURVE",
"857 878 OFFCURVE",
"712 794 OFFCURVE",
"592 794 OFFCURVE",
"524 860 OFFCURVE",
"524 915 QCURVE SMOOTH",
"524 1108 OFFCURVE",
"603 1232 OFFCURVE",
"775 1232 OFFCURVE",
"974 1162 OFFCURVE",
"1009 1142 QCURVE SMOOTH",
"1033 1128 LINE",
"1054 1114 LINE",
"1072 1105 LINE",
"1111 1105 OFFCURVE",
"1149 1146 OFFCURVE",
"1149 1213 QCURVE SMOOTH"
);
}
);
width = 1278;
},
{
layerId = "92A672BF-229C-4BEC-8D25-4DDBB2A38145";
paths = (
{
closed = 1;
nodes = (
"128 1317 OFFCURVE",
"235 1273 OFFCURVE",
"259 1198 OFFCURVE",
"259 1030 QCURVE SMOOTH",
"255 638 LINE SMOOTH",
"255 242 OFFCURVE",
"231 171 QCURVE SMOOTH",
"218 132 OFFCURVE",
"122 67 OFFCURVE",
"122 12 OFFCURVE",
"247 -2 OFFCURVE",
"590 -2 QCURVE SMOOTH",
"767 -2 LINE SMOOTH",
"1061 -2 OFFCURVE",
"1096 21 QCURVE SMOOTH",
"1170 69 OFFCURVE",
"1170 248 QCURVE SMOOTH",
"1170 280 OFFCURVE",
"1150 280 QCURVE SMOOTH",
"1137 280 OFFCURVE",
"1031 181 OFFCURVE",
"872 119 OFFCURVE",
"558 119 OFFCURVE",
"525 163 QCURVE SMOOTH",
"471 236 OFFCURVE",
"471 561 OFFCURVE",
"497 600 QCURVE SMOOTH",
"536 659 OFFCURVE",
"726 659 OFFCURVE",
"773 625 QCURVE SMOOTH",
"862 561 OFFCURVE",
"880 561 QCURVE",
"905 573 LINE",
"937 605 OFFCURVE",
"937 801 OFFCURVE",
"892 869 OFFCURVE",
"846 869 OFFCURVE",
"732 782 OFFCURVE",
"694 782 QCURVE SMOOTH",
"592 782 OFFCURVE",
"487 853 OFFCURVE",
"487 940 QCURVE SMOOTH",
"487 1093 OFFCURVE",
"569 1273 OFFCURVE",
"656 1273 QCURVE SMOOTH",
"821 1273 OFFCURVE",
"956 1235 QCURVE SMOOTH",
"997 1224 OFFCURVE",
"1086 1142 OFFCURVE",
"1095 1142 QCURVE SMOOTH",
"1117 1142 OFFCURVE",
"1117 1191 QCURVE SMOOTH",
"1117 1304 OFFCURVE",
"1032 1395 OFFCURVE",
"938 1395 QCURVE SMOOTH",
"640 1394 LINE SMOOTH",
"251 1394 OFFCURVE",
"212 1390 QCURVE SMOOTH",
"128 1381 OFFCURVE",
"128 1353 QCURVE SMOOTH"
);
}
);
width = 1272;
}
);
note = uni0045;
unicode = 0045;
},
{
glyphname = F;
lastChange = "2018-12-06 23:43:23 +0000";
layers = (
{
layerId = "5CBF0BAD-1756-4F16-9711-93DC239D102B";
paths = (
{
closed = 1;
nodes = (
"1137 1330 OFFCURVE",
"1078 1369 QCURVE SMOOTH",
"1043 1392 OFFCURVE",
"846 1392 QCURVE SMOOTH",
"811 1393 LINE",
"703 1393 LINE",
"595 1390 LINE SMOOTH",
"233 1390 OFFCURVE",
"143 1375 QCURVE SMOOTH",
"92 1367 OFFCURVE",
"92 1301 OFFCURVE",
"208 1182 OFFCURVE",
"237 1028 OFFCURVE",
"237 237 OFFCURVE",
"233 218 QCURVE SMOOTH",
"222 168 OFFCURVE",
"97 98 OFFCURVE",
"97 24 OFFCURVE",
"141 10 QCURVE SMOOTH",
"208 -11 OFFCURVE",
"457 -11 QCURVE SMOOTH",
"492 -11 LINE",
"526 -12 LINE SMOOTH",
"630 -12 OFFCURVE",
"630 41 QCURVE SMOOTH",
"630 42 OFFCURVE",
"581 138 OFFCURVE",
"527 317 OFFCURVE",
"527 507 OFFCURVE",
"559 537 QCURVE SMOOTH",
"606 581 OFFCURVE",
"702 581 QCURVE SMOOTH",
"725 581 OFFCURVE",
"842 534 OFFCURVE",
"884 534 OFFCURVE",
"900 552 QCURVE SMOOTH",
"936 591 OFFCURVE",
"936 686 QCURVE SMOOTH",
"936 859 OFFCURVE",
"859 859 QCURVE SMOOTH",
"849 859 OFFCURVE",
"716 782 OFFCURVE",
"672 782 QCURVE SMOOTH",
"528 782 OFFCURVE",
"528 994 QCURVE SMOOTH",
"528 1101 OFFCURVE",
"573 1184 OFFCURVE",
"666 1232 OFFCURVE",
"700 1232 QCURVE SMOOTH",
"803 1232 OFFCURVE",
"1075 1096 OFFCURVE",
"1080 1096 QCURVE SMOOTH",
"1137 1096 OFFCURVE",
"1137 1179 QCURVE SMOOTH",
"1137 1211 LINE SMOOTH"
);
}
);
width = 1194;
},
{
layerId = "92A672BF-229C-4BEC-8D25-4DDBB2A38145";
paths = (
{
closed = 1;
nodes = (
"1126 1317 OFFCURVE",
"1054 1399 OFFCURVE",
"971 1399 QCURVE SMOOTH",
"716 1396 LINE SMOOTH",
"680 1396 OFFCURVE",
"643 1395 QCURVE SMOOTH",
"570 1393 LINE",
"353 1390 LINE SMOOTH",
"119 1390 OFFCURVE",
"119 1358 QCURVE SMOOTH",
"119 1336 OFFCURVE",
"227 1269 OFFCURVE",
"239 1237 QCURVE SMOOTH",
"262 1173 OFFCURVE",
"262 925 QCURVE SMOOTH",
"254 491 LINE SMOOTH",
"254 209 OFFCURVE",
"231 141 OFFCURVE",
"130 73 OFFCURVE",
"130 63 QCURVE SMOOTH",
"130 26 OFFCURVE",
"240 -6 OFFCURVE",
"373 -6 QCURVE SMOOTH",
"444 -6 LINE SMOOTH",
"586 -6 OFFCURVE",
"586 32 QCURVE SMOOTH",
"586 37 OFFCURVE",
"557 65 OFFCURVE",
"527 103 OFFCURVE",
"485 261 OFFCURVE",
"485 521 OFFCURVE",
"507 550 QCURVE SMOOTH",
"555 614 OFFCURVE",
"676 614 QCURVE SMOOTH",
"727 614 OFFCURVE",
"844 553 OFFCURVE",
"856 553 QCURVE SMOOTH",
"892 553 OFFCURVE",
"930 636 OFFCURVE",
"930 698 QCURVE SMOOTH",
"930 853 OFFCURVE",
"874 853 QCURVE SMOOTH",
"854 853 OFFCURVE",
"735 770 OFFCURVE",
"672 770 QCURVE SMOOTH",
"552 770 OFFCURVE",
"480 855 OFFCURVE",
"480 1142 OFFCURVE",
"560 1284 OFFCURVE",
"712 1284 QCURVE SMOOTH",
"945 1284 OFFCURVE",
"1036 1177 QCURVE",
"1064 1141 LINE SMOOTH",
"1084 1116 OFFCURVE",
"1088 1116 QCURVE SMOOTH",
"1126 1116 OFFCURVE",
"1126 1182 QCURVE SMOOTH"
);
}
);
width = 1194;
}
);
note = uni0046;
unicode = 0046;
},
{
glyphname = G;
lastChange = "2018-12-06 23:43:23 +0000";
layers = (
{
layerId = "5CBF0BAD-1756-4F16-9711-93DC239D102B";
paths = (
{
closed = 1;
nodes = (
"627 149 OFFCURVE",
"389 455 OFFCURVE",
"389 706 QCURVE SMOOTH",
"389 1060 OFFCURVE",
"609 1192 QCURVE SMOOTH",
"683 1236 OFFCURVE",
"775 1237 QCURVE SMOOTH",
"867 1237 OFFCURVE",
"979 1189 OFFCURVE",
"1187 1033 OFFCURVE",
"1215 1033 QCURVE SMOOTH",
"1275 1033 OFFCURVE",
"1275 1186 QCURVE SMOOTH",
"1275 1297 OFFCURVE",
"1158 1384 OFFCURVE",
"961 1384 OFFCURVE",
"833 1402 OFFCURVE",
"785 1402 QCURVE SMOOTH",
"633 1402 OFFCURVE",
"513 1356 QCURVE SMOOTH",
"252 1257 OFFCURVE",
"138 982 QCURVE SMOOTH",
"82 848 OFFCURVE",
"82 708 QCURVE SMOOTH",
"82 666 LINE SMOOTH",
"82 519 OFFCURVE",
"130 390 QCURVE SMOOTH",
"223 141 OFFCURVE",
"474 37 QCURVE SMOOTH",
"604 -17 OFFCURVE",
"744 -17 QCURVE SMOOTH",
"784 -17 LINE SMOOTH",
"942 -17 OFFCURVE",
"1125 38 QCURVE SMOOTH",
"1212 64 OFFCURVE",
"1285 130 OFFCURVE",
"1298 222 QCURVE SMOOTH",
"1299 230 OFFCURVE",
"1320 435 OFFCURVE",
"1328 483 OFFCURVE",
"1377 561 OFFCURVE",
"1377 586 QCURVE SMOOTH",
"1377 630 OFFCURVE",
"1321 643 QCURVE SMOOTH",
"1241 662 OFFCURVE",
"1103 662 QCURVE SMOOTH",
"916 662 OFFCURVE",
"916 603 QCURVE SMOOTH",
"916 588 OFFCURVE",
"974 513 QCURVE SMOOTH",
"1008 470 OFFCURVE",
"1008 358 QCURVE SMOOTH",
"1008 150 OFFCURVE",
"801 149 QCURVE SMOOTH"
);
}
);
width = 1457;
},
{
layerId = "92A672BF-229C-4BEC-8D25-4DDBB2A38145";
paths = (
{
closed = 1;
nodes = (
"649 1401 OFFCURVE",
"517 1350 QCURVE SMOOTH",
"271 1256 OFFCURVE",
"164 990 QCURVE SMOOTH",
"109 854 OFFCURVE",
"109 716 QCURVE SMOOTH",
"109 713 OFFCURVE",
"109 711 QCURVE SMOOTH",
"109 669 LINE SMOOTH",
"109 524 OFFCURVE",
"161 385 QCURVE SMOOTH",
"259 125 OFFCURVE",
"514 26 QCURVE SMOOTH",
"640 -22 OFFCURVE",
"768 -23 QCURVE SMOOTH",
"896 -23 OFFCURVE",
"1208 69 OFFCURVE",
"1269 126 OFFCURVE",
"1279 254 OFFCURVE",
"1285 421 OFFCURVE",
"1297 488 OFFCURVE",
"1350 565 OFFCURVE",
"1350 576 QCURVE SMOOTH",
"1350 625 OFFCURVE",
"960 625 OFFCURVE",
"960 585 QCURVE SMOOTH",
"960 572 OFFCURVE",
"1034 524 OFFCURVE",
"1045 511 QCURVE SMOOTH",
"1084 467 OFFCURVE",
"1084 401 QCURVE SMOOTH",
"1084 228 OFFCURVE",
"969 102 OFFCURVE",
"713 102 OFFCURVE",
"553 165 OFFCURVE",
"409 317 OFFCURVE",
"330 558 OFFCURVE",
"330 683 QCURVE SMOOTH",
"330 1101 OFFCURVE",
"588 1248 QCURVE SMOOTH",
"674 1298 OFFCURVE",
"769 1298 QCURVE SMOOTH",
"934 1298 OFFCURVE",
"1037 1236 QCURVE SMOOTH",
"1081 1209 OFFCURVE",
"1191 1049 OFFCURVE",
"1210 1049 QCURVE SMOOTH",
"1276 1049 OFFCURVE",
"1276 1168 QCURVE SMOOTH",
"1276 1323 OFFCURVE",
"1212 1349 QCURVE SMOOTH",
"1197 1355 OFFCURVE",
"1149 1360 QCURVE SMOOTH",
"1115 1363 LINE",
"1079 1367 LINE SMOOTH",
"831 1401 OFFCURVE",
"800 1401 QCURVE SMOOTH"
);
}
);
width = 1471;
}
);
note = uni0047;
unicode = 0047;
},
{
glyphname = H;
lastChange = "2018-12-06 23:43:23 +0000";
layers = (
{
layerId = "5CBF0BAD-1756-4F16-9711-93DC239D102B";
paths = (
{
closed = 1;
nodes = (
"1018 642 OFFCURVE",
"1091 583 OFFCURVE",
"1091 339 OFFCURVE",
"1064 226 OFFCURVE",
"980 84 OFFCURVE",
"980 48 QCURVE",
"992 26 LINE",
"1026 -7 OFFCURVE",
"1225 -7 QCURVE SMOOTH",
"1320 -8 LINE",
"1366 -9 LINE SMOOTH",
"1509 -9 OFFCURVE",
"1509 35 QCURVE SMOOTH",
"1509 87 OFFCURVE",
"1404 146 OFFCURVE",
"1395 163 QCURVE SMOOTH",
"1372 205 OFFCURVE",
"1372 388 QCURVE SMOOTH",
"1372 485 LINE",
"1373 533 LINE",
"1376 776 LINE SMOOTH",
"1376 1110 OFFCURVE",
"1394 1157 QCURVE SMOOTH",
"1402 1177 OFFCURVE",
"1507 1274 OFFCURVE",
"1507 1295 QCURVE SMOOTH",
"1507 1357 OFFCURVE",
"1451 1370 QCURVE SMOOTH",
"1408 1380 OFFCURVE",
"1074 1380 OFFCURVE",
"1036 1371 QCURVE SMOOTH",
"966 1354 OFFCURVE",
"966 1316 QCURVE SMOOTH",
"966 1303 OFFCURVE",
"1046 1185 OFFCURVE",
"1075 1078 OFFCURVE",
"1075 839 OFFCURVE",
"1011 797 OFFCURVE",
"588 797 OFFCURVE",
"566 814 QCURVE SMOOTH",
"529 843 OFFCURVE",
"529 921 QCURVE SMOOTH",
"529 1076 OFFCURVE",
"552 1167 OFFCURVE",
"624 1316 OFFCURVE",
"624 1340 QCURVE SMOOTH",
"624 1391 OFFCURVE",
"472 1391 QCURVE SMOOTH",
"145 1391 OFFCURVE",
"104 1369 QCURVE",
"81 1348 LINE",
"81 1289 OFFCURVE",
"128 1259 QCURVE SMOOTH",
"197 1216 OFFCURVE",
"224 1129 OFFCURVE",
"224 268 OFFCURVE",
"200 182 OFFCURVE",
"99 99 OFFCURVE",
"99 81 QCURVE SMOOTH",
"99 32 OFFCURVE",
"136 1 OFFCURVE",
"194 1 QCURVE SMOOTH",
"475 1 OFFCURVE",
"630 28 OFFCURVE",
"630 89 OFFCURVE",
"545 195 OFFCURVE",
"512 306 OFFCURVE",
"512 574 OFFCURVE",
"529 602 QCURVE SMOOTH",
"554 642 OFFCURVE",
"681 642 QCURVE SMOOTH"
);
}
);
width = 1601;
},
{
layerId = "92A672BF-229C-4BEC-8D25-4DDBB2A38145";
paths = (
{
closed = 1;
nodes = (
"1494 57 OFFCURVE",
"1400 109 OFFCURVE",
"1387 127 QCURVE SMOOTH",
"1356 169 OFFCURVE",
"1356 298 QCURVE SMOOTH",
"1363 842 LINE SMOOTH",
"1363 1188 OFFCURVE",
"1383 1250 OFFCURVE",
"1460 1295 QCURVE SMOOTH",
"1500 1318 OFFCURVE",
"1500 1345 QCURVE SMOOTH",
"1500 1385 OFFCURVE",
"1361 1385 QCURVE SMOOTH",
"1031 1385 OFFCURVE",
"1031 1348 QCURVE SMOOTH",
"1031 1332 OFFCURVE",
"1058 1304 QCURVE SMOOTH",
"1104 1258 LINE",
"1136 1216 OFFCURVE",
"1136 1085 OFFCURVE",
"1135 1054 QCURVE SMOOTH",
"1133 1007 LINE",
"1132 960 LINE SMOOTH",
"1132 827 OFFCURVE",
"1065 779 OFFCURVE",
"562 779 OFFCURVE",
"477 833 OFFCURVE",
"477 1196 OFFCURVE",
"495 1258 OFFCURVE",
"554 1306 QCURVE SMOOTH",
"578 1325 OFFCURVE",
"578 1351 QCURVE SMOOTH",
"578 1387 OFFCURVE",
"408 1387 QCURVE SMOOTH",
"115 1387 OFFCURVE",
"115 1346 QCURVE SMOOTH",
"115 1333 OFFCURVE",
"192 1288 QCURVE SMOOTH",
"236 1263 OFFCURVE",
"263 1124 OFFCURVE",
"263 226 OFFCURVE",
"233 131 OFFCURVE",
"112 69 OFFCURVE",
"112 45 QCURVE SMOOTH",
"112 -5 OFFCURVE",
"292 -5 QCURVE SMOOTH",
"340 -5 LINE",
"388 -6 LINE SMOOTH",
"577 -6 OFFCURVE",
"577 25 QCURVE SMOOTH",
"577 40 OFFCURVE",
"502 118 OFFCURVE",
"480 174 OFFCURVE",
"480 610 OFFCURVE",
"510 631 QCURVE SMOOTH",
"561 667 OFFCURVE",
"1055 667 OFFCURVE",
"1145 610 OFFCURVE",
"1145 194 OFFCURVE",
"1128 142 OFFCURVE",
"1068 85 QCURVE SMOOTH",
"1046 64 OFFCURVE",
"1046 38 QCURVE SMOOTH",
"1046 -3 OFFCURVE",
"1494 -3 OFFCURVE",
"1494 40 QCURVE SMOOTH"
);
}
);
width = 1608;
}
);
note = uni0048;
unicode = 0048;
},
{
glyphname = I;
lastChange = "2018-12-06 23:43:23 +0000";
layers = (
{
layerId = "5CBF0BAD-1756-4F16-9711-93DC239D102B";
paths = (
{
closed = 1;
nodes = (
"247 13 OFFCURVE",
"269 12 QCURVE SMOOTH",
"313 10 LINE",
"403 8 LINE",
"471 6 LINE",
"518 6 LINE",
"541 5 LINE",
"611 5 LINE SMOOTH",
"691 5 OFFCURVE",
"691 45 QCURVE SMOOTH",
"691 79 OFFCURVE",
"569 183 OFFCURVE",
"547 273 OFFCURVE",
"547 1093 OFFCURVE",
"575 1215 OFFCURVE",
"615 1248 QCURVE SMOOTH",
"689 1308 OFFCURVE",
"689 1334 QCURVE SMOOTH",
"689 1377 OFFCURVE",
"640 1394 OFFCURVE",
"526 1394 QCURVE SMOOTH",
"503 1394 LINE",
"480 1395 LINE",
"412 1395 LINE",
"344 1392 LINE",
"92 1392 OFFCURVE",
"92 1356 QCURVE SMOOTH",
"92 1342 LINE SMOOTH",
"92 1306 OFFCURVE",
"183 1242 QCURVE SMOOTH",
"233 1207 OFFCURVE",
"251 1136 QCURVE SMOOTH",
"259 1105 OFFCURVE",
"259 304 OFFCURVE",
"229 188 OFFCURVE",
"96 95 OFFCURVE",
"96 13 OFFCURVE",
"224 13 QCURVE SMOOTH"
);
}
);
width = 791;
},
{
layerId = "92A672BF-229C-4BEC-8D25-4DDBB2A38145";
paths = (
{
closed = 1;
nodes = (
"524 1389 LINE",
"395 1385 LINE",
"331 1385 LINE",
"309 1386 LINE",
"266 1387 LINE SMOOTH",
"112 1387 OFFCURVE",
"112 1347 QCURVE SMOOTH",
"112 1322 OFFCURVE",
"189 1295 QCURVE SMOOTH",
"232 1280 OFFCURVE",
"248 1240 QCURVE SMOOTH",
"275 1171 OFFCURVE",
"275 990 QCURVE SMOOTH",
"276 922 LINE",
"277 899 LINE",
"278 854 LINE SMOOTH",
"278 809 OFFCURVE",
"277 786 QCURVE SMOOTH",
"275 741 LINE",
"275 718 OFFCURVE",
"274 695 QCURVE SMOOTH",
"273 673 LINE",
"273 650 OFFCURVE",
"273 627 QCURVE SMOOTH",
"274 560 LINE",
"274 515 LINE SMOOTH",
"274 223 OFFCURVE",
"248 151 QCURVE SMOOTH",
"235 115 OFFCURVE",
"117 61 OFFCURVE",
"117 34 QCURVE SMOOTH",
"117 -1 OFFCURVE",
"290 -1 QCURVE SMOOTH",
"379 1 LINE SMOOTH",
"402 1 OFFCURVE",
"424 0 QCURVE SMOOTH",
"469 -2 LINE",
"492 -2 OFFCURVE",
"514 -3 QCURVE SMOOTH",
"537 -4 LINE",
"581 -4 LINE SMOOTH",
"645 -4 OFFCURVE",
"645 38 QCURVE SMOOTH",
"645 63 OFFCURVE",
"542 99 OFFCURVE",
"526 120 QCURVE SMOOTH",
"496 159 OFFCURVE",
"496 273 QCURVE SMOOTH",
"496 294 OFFCURVE",
"495 317 QCURVE SMOOTH",
"493 362 LINE",
"491 453 LINE",
"490 522 LINE",
"490 613 LINE",
"491 659 LINE",
"493 704 LINE",
"493 727 OFFCURVE",
"494 750 QCURVE SMOOTH",
"495 772 LINE",
"495 817 LINE",
"494 862 LINE",
"494 907 LINE SMOOTH",
"494 1196 OFFCURVE",
"526 1280 OFFCURVE",
"633 1332 OFFCURVE",
"633 1357 QCURVE SMOOTH",
"633 1389 OFFCURVE",
"568 1389 QCURVE SMOOTH"
);
}
);
width = 756;
}
);
note = uni0049;
unicode = 0049;
},
{
glyphname = J;
lastChange = "2018-12-06 23:43:23 +0000";
layers = (
{
layerId = "5CBF0BAD-1756-4F16-9711-93DC239D102B";
paths = (
{
closed = 1;
nodes = (
"205 1325 OFFCURVE",
"243 1298 QCURVE",
"254 1287 OFFCURVE",
"277 1254 QCURVE",
"313 1207 LINE SMOOTH",
"335 1178 OFFCURVE",
"344 1157 QCURVE SMOOTH",
"374 1086 OFFCURVE",
"374 948 QCURVE",
"352 404 LINE",
"352 172 OFFCURVE",
"295 82 QCURVE SMOOTH",
"267 38 OFFCURVE",
"225 11 OFFCURVE",
"162 1 QCURVE SMOOTH",
"11 -23 OFFCURVE",
"11 -130 QCURVE SMOOTH",
"11 -192 OFFCURVE",
"89 -244 OFFCURVE",
"168 -244 QCURVE SMOOTH",
"192 -244 LINE SMOOTH",
"281 -244 OFFCURVE",
"377 -197 QCURVE SMOOTH",
"658 -59 OFFCURVE",
"658 385 QCURVE SMOOTH",
"658 412 OFFCURVE",
"659 438 QCURVE SMOOTH",
"660 464 LINE",
"660 503 OFFCURVE",
"660 542 QCURVE SMOOTH",
"661 621 LINE",
"661 844 LINE SMOOTH",
"661 1030 OFFCURVE",
"687 1191 OFFCURVE",
"765 1311 OFFCURVE",
"765 1347 QCURVE SMOOTH",
"765 1394 OFFCURVE",
"666 1394 QCURVE SMOOTH",
"615 1394 LINE SMOOTH",
"422 1394 OFFCURVE",
"286 1377 QCURVE SMOOTH",
"205 1367 OFFCURVE",
"205 1333 QCURVE SMOOTH"
);
}
);
width = 859;
},
{
layerId = "92A672BF-229C-4BEC-8D25-4DDBB2A38145";
paths = (
{
closed = 1;
nodes = (
"59 -61 OFFCURVE",
"-10 -117 OFFCURVE",
"-10 -158 QCURVE SMOOTH",
"-10 -236 OFFCURVE",
"154 -236 QCURVE SMOOTH",
"238 -236 OFFCURVE",
"328 -184 QCURVE SMOOTH",
"523 -71 OFFCURVE",
"560 186 QCURVE SMOOTH",
"577 304 OFFCURVE",
"577 551 QCURVE SMOOTH",
"582 962 LINE SMOOTH",
"582 1218 OFFCURVE",
"600 1275 OFFCURVE",
"688 1337 OFFCURVE",
"688 1352 QCURVE SMOOTH",
"688 1393 OFFCURVE",
"625 1393 QCURVE SMOOTH",
"601 1393 LINE SMOOTH",
"215 1393 OFFCURVE",
"215 1348 QCURVE SMOOTH",
"215 1324 OFFCURVE",
"328 1256 OFFCURVE",
"341 1226 QCURVE SMOOTH",
"368 1162 OFFCURVE",
"368 932 QCURVE SMOOTH",
"372 781 LINE",
"374 654 LINE SMOOTH",
"374 -74 OFFCURVE",
"207 -74 QCURVE",
"119 -61 LINE"
);
}
);
width = 811;
}
);
note = uni004A;
unicode = 004A;
},
{
glyphname = K;
lastChange = "2018-12-06 23:43:23 +0000";
layers = (
{
layerId = "5CBF0BAD-1756-4F16-9711-93DC239D102B";
paths = (
{
closed = 1;
nodes = (
"101 1342 OFFCURVE",
"205 1192 OFFCURVE",
"230 1086 OFFCURVE",
"230 308 OFFCURVE",
"208 191 OFFCURVE",
"105 67 OFFCURVE",
"105 61 QCURVE SMOOTH",
"105 24 OFFCURVE",
"163 10 QCURVE SMOOTH",
"200 1 OFFCURVE",
"290 1 QCURVE SMOOTH",
"548 1 OFFCURVE",
"596 36 QCURVE",
"606 48 LINE",
"606 78 OFFCURVE",
"587 123 QCURVE SMOOTH",
"513 301 OFFCURVE",
"513 499 OFFCURVE",
"560 588 OFFCURVE",
"595 588 QCURVE SMOOTH",
"665 588 OFFCURVE",
"840 352 OFFCURVE",
"962 92 OFFCURVE",
"982 68 QCURVE SMOOTH",
"1039 -2 OFFCURVE",
"1114 -2 QCURVE SMOOTH",
"1158 -2 LINE SMOOTH",
"1296 -2 OFFCURVE",
"1427 21 OFFCURVE",
"1427 60 QCURVE SMOOTH",
"1427 63 OFFCURVE",
"1270 215 QCURVE SMOOTH",
"1223 260 OFFCURVE",
"835 766 OFFCURVE",
"835 773 QCURVE SMOOTH",
"835 828 OFFCURVE",
"910 908 QCURVE SMOOTH",
"1122 1134 OFFCURVE",
"1165 1171 QCURVE SMOOTH",
"1362 1342 LINE",
"1362 1374 OFFCURVE",
"1257 1399 OFFCURVE",
"1000 1399 OFFCURVE",
"970 1391 QCURVE SMOOTH",
"921 1378 OFFCURVE",
"921 1340 QCURVE SMOOTH",
"921 1321 OFFCURVE",
"955 1243 OFFCURVE",
"955 1225 QCURVE SMOOTH",
"955 1175 OFFCURVE",
"812 1023 QCURVE SMOOTH",
"579 775 OFFCURVE",
"531 775 QCURVE SMOOTH",
"508 775 OFFCURVE",
"508 1093 OFFCURVE",
"544 1231 OFFCURVE",
"629 1316 OFFCURVE",
"629 1350 QCURVE",
"613 1374 LINE",
"584 1402 OFFCURVE",
"462 1402 QCURVE SMOOTH",
"420 1402 LINE SMOOTH",
"101 1402 OFFCURVE",
"101 1370 QCURVE SMOOTH",
"101 1345 LINE SMOOTH"
);
}
);
width = 1488;
},
{
layerId = "92A672BF-229C-4BEC-8D25-4DDBB2A38145";
paths = (
{
closed = 1;
nodes = (
"482 635 OFFCURVE",
"656 635 OFFCURVE",
"887 279 QCURVE SMOOTH",
"957 171 OFFCURVE",
"1004 58 OFFCURVE",
"1019 43 QCURVE SMOOTH",
"1063 -1 OFFCURVE",
"1152 -1 QCURVE SMOOTH",
"1196 -1 LINE SMOOTH",
"1375 -1 OFFCURVE",
"1375 43 QCURVE SMOOTH",
"1375 50 OFFCURVE",
"1260 146 QCURVE SMOOTH",
"1215 184 OFFCURVE",
"1140 278 QCURVE SMOOTH",
"785 726 OFFCURVE",
"785 777 QCURVE SMOOTH",
"785 850 OFFCURVE",
"1078 1182 OFFCURVE",
"1150 1236 QCURVE SMOOTH",
"1294 1345 OFFCURVE",
"1294 1358 QCURVE SMOOTH",
"1294 1391 OFFCURVE",
"1022 1391 OFFCURVE",
"956 1371 OFFCURVE",
"956 1341 QCURVE",
"962 1292 LINE",
"962 1212 OFFCURVE",
"873 1098 QCURVE SMOOTH",
"714 894 OFFCURVE",
"597 805 QCURVE SMOOTH",
"548 768 OFFCURVE",
"537 768 QCURVE SMOOTH",
"490 768 OFFCURVE",
"490 858 QCURVE SMOOTH",
"490 1119 OFFCURVE",
"513 1260 OFFCURVE",
"574 1341 OFFCURVE",
"574 1349 QCURVE SMOOTH",
"574 1396 OFFCURVE",
"448 1396 QCURVE SMOOTH",
"266 1396 LINE SMOOTH",
"122 1396 OFFCURVE",
"122 1344 QCURVE SMOOTH",
"122 1339 OFFCURVE",
"194 1283 QCURVE SMOOTH",
"234 1252 OFFCURVE",
"261 1111 OFFCURVE",
"261 279 OFFCURVE",
"229 133 OFFCURVE",
"122 61 OFFCURVE",
"122 37 QCURVE SMOOTH",
"122 0 OFFCURVE",
"291 0 QCURVE SMOOTH",
"579 0 OFFCURVE",
"579 43 QCURVE SMOOTH",
"579 71 OFFCURVE",
"504 143 OFFCURVE",
"482 252 OFFCURVE",
"482 409 QCURVE SMOOTH"
);
}
);
width = 1442;
}
);
note = uni004B;
unicode = 004B;
},
{
glyphname = L;
lastChange = "2018-12-06 23:43:23 +0000";
layers = (
{
layerId = "5CBF0BAD-1756-4F16-9711-93DC239D102B";
paths = (
{
closed = 1;
nodes = (
"665 1366 OFFCURVE",
"616 1389 OFFCURVE",
"538 1389 QCURVE SMOOTH",
"273 1389 LINE SMOOTH",
"78 1389 OFFCURVE",
"78 1348 QCURVE SMOOTH",
"78 1297 OFFCURVE",
"208 1215 OFFCURVE",
"232 1135 OFFCURVE",
"232 307 OFFCURVE",
"224 273 QCURVE SMOOTH",
"204 188 OFFCURVE",
"98 82 OFFCURVE",
"98 58 QCURVE SMOOTH",
"98 13 OFFCURVE",
"146 4 QCURVE SMOOTH",
"174 -1 OFFCURVE",
"437 -1 QCURVE SMOOTH",
"974 -1 LINE SMOOTH",
"1093 -1 OFFCURVE",
"1124 28 QCURVE SMOOTH",
"1138 41 OFFCURVE",
"1186 224 OFFCURVE",
"1186 299 QCURVE SMOOTH",
"1186 325 LINE SMOOTH",
"1186 379 OFFCURVE",
"1143 379 QCURVE SMOOTH",
"1087 379 OFFCURVE",
"931 209 OFFCURVE",
"796 143 OFFCURVE",
"616 143 OFFCURVE",
"542 174 OFFCURVE",
"519 260 OFFCURVE",
"519 1081 OFFCURVE",
"542 1177 OFFCURVE",
"665 1316 OFFCURVE",
"665 1329 QCURVE SMOOTH"
);
}
);
width = 1230;
},
{
layerId = "92A672BF-229C-4BEC-8D25-4DDBB2A38145";
paths = (
{
closed = 1;
nodes = (
"256 583 LINE SMOOTH",
"256 251 OFFCURVE",
"220 127 OFFCURVE",
"115 65 OFFCURVE",
"115 39 QCURVE SMOOTH",
"115 -1 OFFCURVE",
"595 -1 QCURVE SMOOTH",
"654 -1 LINE",
"684 -2 LINE",
"773 -2 LINE SMOOTH",
"1072 -2 OFFCURVE",
"1106 27 QCURVE SMOOTH",
"1163 75 OFFCURVE",
"1163 291 QCURVE SMOOTH",
"1163 353 OFFCURVE",
"1126 353 QCURVE SMOOTH",
"1103 353 OFFCURVE",
"990 176 OFFCURVE",
"873 120 OFFCURVE",
"522 120 OFFCURVE",
"496 165 QCURVE SMOOTH",
"478 196 OFFCURVE",
"478 1106 OFFCURVE",
"501 1214 QCURVE SMOOTH",
"512 1267 OFFCURVE",
"632 1326 OFFCURVE",
"632 1346 QCURVE SMOOTH",
"632 1376 OFFCURVE",
"558 1393 OFFCURVE",
"376 1393 QCURVE SMOOTH",
"287 1394 LINE",
"257 1395 LINE",
"198 1395 LINE SMOOTH",
"115 1395 OFFCURVE",
"115 1326 OFFCURVE",
"230 1289 OFFCURVE",
"260 1223 OFFCURVE",
"260 1004 QCURVE SMOOTH"
);
}
);
width = 1213;
}
);
note = uni004C;
unicode = 004C;
},
{
glyphname = M;
lastChange = "2018-12-06 23:43:23 +0000";
layers = (
{
layerId = "5CBF0BAD-1756-4F16-9711-93DC239D102B";
paths = (
{
closed = 1;
nodes = (
"1313 1243 OFFCURVE",
"984 537 OFFCURVE",
"956 537 QCURVE",
"930 570 LINE",
"882 649 OFFCURVE",
"748 950 OFFCURVE",
"678 1133 OFFCURVE",
"644 1194 QCURVE",
"616 1240 LINE",
"572 1304 OFFCURVE",
"402 1381 OFFCURVE",
"303 1381 QCURVE SMOOTH",
"249 1381 LINE SMOOTH",
"203 1381 OFFCURVE",
"161 1350 QCURVE",
"140 1326 LINE",
"140 1294 OFFCURVE",
"229 1147 OFFCURVE",
"254 1037 OFFCURVE",
"254 849 OFFCURVE",
"240 569 QCURVE SMOOTH",
"236 509 LINE",
"234 450 LINE SMOOTH",
"234 289 OFFCURVE",
"204 194 OFFCURVE",
"127 88 OFFCURVE",
"127 68 QCURVE SMOOTH",
"127 21 OFFCURVE",
"314 21 QCURVE SMOOTH",
"394 21 OFFCURVE",
"440 54 QCURVE",
"457 74 LINE",
"457 125 OFFCURVE",
"454 156 QCURVE SMOOTH",
"449 196 LINE",
"445 244 LINE",
"445 295 OFFCURVE",
"441 346 QCURVE SMOOTH",
"433 451 LINE SMOOTH",
"428 543 OFFCURVE",
"428 674 QCURVE SMOOTH",
"428 949 OFFCURVE",
"489 949 OFFCURVE",
"631 591 QCURVE SMOOTH",
"720 366 LINE SMOOTH",
"775 225 OFFCURVE",
"786 197 QCURVE SMOOTH",
"809 142 LINE",
"850 59 OFFCURVE",
"985 59 OFFCURVE",
"1055 197 QCURVE SMOOTH",
"1103 291 OFFCURVE",
"1353 959 OFFCURVE",
"1379 959 QCURVE SMOOTH",
"1389 959 OFFCURVE",
"1389 701 OFFCURVE",
"1416 377 OFFCURVE",
"1416 260 OFFCURVE",
"1379 143 QCURVE",
"1372 115 LINE",
"1372 68 OFFCURVE",
"1441 52 QCURVE SMOOTH",
"1538 30 OFFCURVE",
"1705 30 QCURVE SMOOTH",
"1825 30 OFFCURVE",
"1825 87 QCURVE",
"1768 137 LINE SMOOTH",
"1729 170 OFFCURVE",
"1702 245 OFFCURVE",
"1702 541 OFFCURVE",
"1697 660 QCURVE SMOOTH",
"1687 837 LINE SMOOTH",
"1684 908 OFFCURVE",
"1684 1116 OFFCURVE",
"1707 1174 QCURVE SMOOTH",
"1713 1190 OFFCURVE",
"1793 1285 OFFCURVE",
"1793 1321 QCURVE",
"1766 1346 LINE",
"1726 1368 OFFCURVE",
"1423 1368 OFFCURVE",
"1348 1283 QCURVE SMOOTH"
);
}
);
width = 1928;
},
{
layerId = "92A672BF-229C-4BEC-8D25-4DDBB2A38145";
paths = (
{
closed = 1;
nodes = (
"910 437 LINE",
"886 490 LINE SMOOTH",
"867 534 OFFCURVE",
"599 1161 OFFCURVE",
"497 1315 OFFCURVE",
"472 1334 QCURVE SMOOTH",
"419 1374 OFFCURVE",
"320 1374 QCURVE SMOOTH",
"160 1374 OFFCURVE",
"160 1335 QCURVE SMOOTH",
"160 1323 OFFCURVE",
"251 1230 OFFCURVE",
"262 1207 QCURVE SMOOTH",
"288 1152 OFFCURVE",
"288 852 OFFCURVE",
"268 544 QCURVE SMOOTH",
"261 423 LINE SMOOTH",
"256 342 OFFCURVE",
"253 304 QCURVE SMOOTH",
"247 247 LINE",
"235 168 OFFCURVE",
"118 77 OFFCURVE",
"118 69 QCURVE SMOOTH",
"118 38 OFFCURVE",
"193 15 OFFCURVE",
"387 15 OFFCURVE",
"422 43 QCURVE",
"437 61 LINE",
"437 63 OFFCURVE",
"378 323 OFFCURVE",
"378 417 QCURVE SMOOTH",
"378 978 OFFCURVE",
"410 1053 QCURVE",
"422 1067 LINE",
"453 1067 OFFCURVE",
"794 232 OFFCURVE",
"810 198 QCURVE SMOOTH",
"866 81 OFFCURVE",
"903 81 QCURVE SMOOTH",
"948 81 OFFCURVE",
"1001 185 QCURVE SMOOTH",
"1027 240 LINE SMOOTH",
"1041 270 OFFCURVE",
"1075 352 QCURVE SMOOTH",
"1222 693 LINE SMOOTH",
"1391 1075 OFFCURVE",
"1404 1075 QCURVE",
"1415 1065 LINE",
"1449 977 OFFCURVE",
"1449 389 QCURVE SMOOTH",
"1449 283 OFFCURVE",
"1409 143 OFFCURVE",
"1396 100 QCURVE SMOOTH",
"1388 73 LINE",
"1396 52 LINE",
"1425 17 OFFCURVE",
"1709 17 OFFCURVE",
"1763 41 QCURVE",
"1784 55 LINE",
"1784 61 OFFCURVE",
"1708 129 QCURVE SMOOTH",
"1674 160 OFFCURVE",
"1663 216 QCURVE SMOOTH",
"1630 386 OFFCURVE",
"1630 1071 QCURVE SMOOTH",
"1630 1175 OFFCURVE",
"1659 1230 QCURVE SMOOTH",
"1669 1248 OFFCURVE",
"1714 1299 QCURVE",
"1736 1326 LINE",
"1736 1377 OFFCURVE",
"1494 1377 OFFCURVE",
"1411 1326 OFFCURVE",
"1343 1214 OFFCURVE",
"959 403 OFFCURVE",
"936 403 QCURVE"
);
}
);
width = 1902;
}
);
note = uni004D;
unicode = 004D;
},
{
glyphname = N;
lastChange = "2018-12-06 23:43:23 +0000";
layers = (
{
layerId = "5CBF0BAD-1756-4F16-9711-93DC239D102B";
paths = (
{
closed = 1;
nodes = (
"1342 364 LINE",
"1343 408 LINE",
"1356 872 LINE SMOOTH",
"1356 1080 OFFCURVE",
"1368 1129 OFFCURVE",
"1487 1250 OFFCURVE",
"1487 1279 QCURVE SMOOTH",
"1487 1328 OFFCURVE",
"1350 1359 OFFCURVE",
"1168 1359 QCURVE SMOOTH",
"1077 1359 OFFCURVE",
"1077 1314 QCURVE SMOOTH",
"1077 1297 OFFCURVE",
"1114 1253 QCURVE SMOOTH",
"1179 1177 OFFCURVE",
"1179 884 QCURVE SMOOTH",
"1179 490 OFFCURVE",
"1141 490 QCURVE SMOOTH",
"1109 490 OFFCURVE",
"688 1102 OFFCURVE",
"436 1376 OFFCURVE",
"274 1376 QCURVE SMOOTH",
"229 1376 LINE SMOOTH",
"147 1376 OFFCURVE",
"90 1337 OFFCURVE",
"90 1264 OFFCURVE",
"210 1175 OFFCURVE",
"237 1082 OFFCURVE",
"237 717 OFFCURVE",
"234 574 QCURVE SMOOTH",
"231 430 LINE",
"229 382 LINE",
"229 222 OFFCURVE",
"223 204 QCURVE SMOOTH",
"212 171 OFFCURVE",
"101 104 OFFCURVE",
"101 83 QCURVE SMOOTH",
"101 45 OFFCURVE",
"149 7 OFFCURVE",
"278 7 QCURVE SMOOTH",
"321 7 LINE SMOOTH",
"484 7 OFFCURVE",
"513 41 QCURVE",
"521 64 LINE",
"521 89 OFFCURVE",
"466 165 OFFCURVE",
"455 226 QCURVE SMOOTH",
"416 443 OFFCURVE",
"416 986 OFFCURVE",
"436 986 QCURVE SMOOTH",
"485 986 OFFCURVE",
"1031 188 OFFCURVE",
"1054 160 QCURVE SMOOTH",
"1109 92 OFFCURVE",
"1245 17 OFFCURVE",
"1262 17 QCURVE SMOOTH",
"1313 17 OFFCURVE",
"1338 54 OFFCURVE",
"1338 263 OFFCURVE",
"1340 320 QCURVE SMOOTH"
);
}
);
width = 1562;
},
{
layerId = "92A672BF-229C-4BEC-8D25-4DDBB2A38145";
paths = (
{
closed = 1;
nodes = (
"492 63 OFFCURVE",
"463 100 QCURVE SMOOTH",
"444 125 LINE",
"422 158 OFFCURVE",
"413 190 QCURVE SMOOTH",
"385 293 OFFCURVE",
"385 563 QCURVE",
"383 810 LINE",
"383 1101 OFFCURVE",
"403 1101 QCURVE SMOOTH",
"440 1101 OFFCURVE",
"1065 212 OFFCURVE",
"1112 154 QCURVE SMOOTH",
"1220 20 OFFCURVE",
"1283 20 QCURVE SMOOTH",
"1325 20 OFFCURVE",
"1353 76 OFFCURVE",
"1353 175 QCURVE",
"1350 271 LINE SMOOTH",
"1349 319 OFFCURVE",
"1349 367 QCURVE SMOOTH",
"1349 728 LINE SMOOTH",
"1349 1016 OFFCURVE",
"1368 1145 QCURVE SMOOTH",
"1381 1232 OFFCURVE",
"1496 1319 OFFCURVE",
"1496 1386 OFFCURVE",
"1303 1386 QCURVE SMOOTH",
"1255 1386 LINE SMOOTH",
"1108 1386 OFFCURVE",
"1108 1357 QCURVE SMOOTH",
"1108 1322 OFFCURVE",
"1204 1256 OFFCURVE",
"1233 1158 OFFCURVE",
"1233 936 QCURVE SMOOTH",
"1234 839 LINE",
"1232 743 LINE SMOOTH",
"1232 366 OFFCURVE",
"1200 366 QCURVE SMOOTH",
"1187 366 OFFCURVE",
"536 1242 OFFCURVE",
"437 1339 OFFCURVE",
"319 1382 OFFCURVE",
"201 1382 QCURVE SMOOTH",
"128 1382 OFFCURVE",
"128 1338 QCURVE SMOOTH",
"128 1336 OFFCURVE",
"201 1272 QCURVE SMOOTH",
"246 1233 OFFCURVE",
"277 1081 OFFCURVE",
"277 299 OFFCURVE",
"251 195 QCURVE SMOOTH",
"236 136 OFFCURVE",
"115 64 OFFCURVE",
"115 40 QCURVE SMOOTH",
"115 8 OFFCURVE",
"258 8 QCURVE SMOOTH",
"393 8 LINE SMOOTH",
"492 8 OFFCURVE",
"492 56 QCURVE SMOOTH"
);
}
);
width = 1592;
}
);
note = uni004E;
unicode = 004E;
},
{
glyphname = O;
lastChange = "2018-12-06 23:43:23 +0000";
layers = (
{
layerId = "5CBF0BAD-1756-4F16-9711-93DC239D102B";
paths = (
{
closed = 1;
nodes = (
"1103 409 OFFCURVE",
"1010 254 QCURVE SMOOTH",
"970 187 OFFCURVE",
"844 108 OFFCURVE",
"776 108 QCURVE SMOOTH",
"746 108 LINE SMOOTH",
"682 108 OFFCURVE",
"622 144 QCURVE SMOOTH",
"476 231 OFFCURVE",
"416 456 QCURVE SMOOTH",
"386 570 OFFCURVE",
"386 687 QCURVE SMOOTH",
"386 721 LINE SMOOTH",
"386 840 OFFCURVE",
"417 960 QCURVE SMOOTH",
"466 1152 OFFCURVE",
"598 1228 QCURVE SMOOTH",
"666 1267 OFFCURVE",
"731 1267 QCURVE SMOOTH",
"746 1267 LINE SMOOTH",
"825 1267 OFFCURVE",
"886 1229 QCURVE SMOOTH",
"1022 1143 OFFCURVE",
"1076 920 QCURVE SMOOTH",
"1103 808 OFFCURVE",
"1103 706 QCURVE SMOOTH",
"1103 639 LINE SMOOTH"
);
},
{
closed = 1;
nodes = (
"98 364 OFFCURVE",
"287 154 QCURVE SMOOTH",
"368 65 OFFCURVE",
"609 -34 OFFCURVE",
"739 -34 QCURVE SMOOTH",
"1056 -33 OFFCURVE",
"1248 166 QCURVE SMOOTH",
"1343 264 OFFCURVE",
"1444 539 OFFCURVE",
"1444 690 QCURVE SMOOTH",
"1444 713 LINE SMOOTH",
"1444 846 OFFCURVE",
"1352 1105 OFFCURVE",
"1175 1300 OFFCURVE",
"925 1406 OFFCURVE",
"809 1406 QCURVE SMOOTH",
"786 1406 LINE",
"762 1407 LINE",
"618 1407 OFFCURVE",
"480 1347 QCURVE SMOOTH",
"242 1244 OFFCURVE",
"147 978 QCURVE SMOOTH",
"98 842 OFFCURVE",
"98 682 QCURVE SMOOTH"
);
}
);
width = 1533;
},
{
layerId = "92A672BF-229C-4BEC-8D25-4DDBB2A38145";
paths = (
{
closed = 1;
nodes = (
"643 66 OFFCURVE",
"479 175 OFFCURVE",
"426 263 QCURVE SMOOTH",
"322 433 OFFCURVE",
"322 702 QCURVE SMOOTH",
"322 720 LINE SMOOTH",
"322 856 OFFCURVE",
"385 1085 OFFCURVE",
"432 1153 QCURVE SMOOTH",
"548 1320 OFFCURVE",
"742 1320 QCURVE SMOOTH",
"937 1320 OFFCURVE",
"1169 974 OFFCURVE",
"1169 685 QCURVE SMOOTH",
"1169 666 LINE SMOOTH",
"1169 405 OFFCURVE",
"1061 235 QCURVE SMOOTH",
"951 66 OFFCURVE",
"763 66 QCURVE SMOOTH",
"729 66 LINE SMOOTH"
);
},
{
closed = 1;
nodes = (
"1411 714 LINE SMOOTH",
"1411 842 OFFCURVE",
"1375 958 QCURVE SMOOTH",
"1283 1257 OFFCURVE",
"1041 1360 QCURVE SMOOTH",
"920 1412 OFFCURVE",
"788 1412 QCURVE SMOOTH",
"765 1412 LINE SMOOTH",
"614 1412 OFFCURVE",
"486 1356 QCURVE SMOOTH",
"249 1254 OFFCURVE",
"150 986 QCURVE SMOOTH",
"99 848 OFFCURVE",
"99 699 QCURVE SMOOTH",
"99 651 LINE SMOOTH",
"99 518 OFFCURVE",
"199 245 OFFCURVE",
"274 165 QCURVE SMOOTH",
"455 -28 OFFCURVE",
"718 -28 QCURVE SMOOTH",
"764 -28 LINE SMOOTH",
"882 -28 OFFCURVE",
"1002 20 QCURVE SMOOTH",
"1257 123 OFFCURVE",
"1360 404 QCURVE SMOOTH",
"1411 544 OFFCURVE",
"1411 690 QCURVE SMOOTH"
);
}
);
width = 1533;
}
);
note = uni004F;
unicode = 004F;
},
{
glyphname = P;
lastChange = "2018-12-06 23:43:23 +0000";
layers = (
{
layerId = "5CBF0BAD-1756-4F16-9711-93DC239D102B";
paths = (
{
closed = 1;
nodes = (
"522 880 LINE",
"523 918 LINE",
"523 1070 LINE SMOOTH",
"523 1208 OFFCURVE",
"528 1221 QCURVE SMOOTH",
"543 1262 OFFCURVE",
"627 1262 QCURVE SMOOTH",
"652 1262 LINE SMOOTH",
"766 1262 OFFCURVE",
"914 1100 OFFCURVE",
"914 958 QCURVE",
"915 948 LINE",
"915 807 OFFCURVE",
"785 653 OFFCURVE",
"682 653 QCURVE SMOOTH",
"634 653 LINE SMOOTH",
"563 653 OFFCURVE",
"522 694 OFFCURVE",
"522 751 QCURVE SMOOTH"
);
},
{
closed = 1;
nodes = (
"113 -5 OFFCURVE",
"396 -5 QCURVE SMOOTH",
"541 -5 OFFCURVE",
"694 23 OFFCURVE",
"694 59 QCURVE SMOOTH",
"694 105 OFFCURVE",
"611 172 QCURVE SMOOTH",
"549 222 OFFCURVE",
"549 311 QCURVE SMOOTH",
"549 504 OFFCURVE",
"616 534 QCURVE SMOOTH",
"633 542 OFFCURVE",
"765 554 QCURVE SMOOTH",
"989 574 OFFCURVE",
"1235 805 OFFCURVE",
"1235 973 QCURVE SMOOTH",
"1235 1001 LINE SMOOTH",
"1235 1095 OFFCURVE",
"1190 1179 QCURVE SMOOTH",
"1072 1398 OFFCURVE",
"718 1398 QCURVE SMOOTH",
"638 1398 LINE",
"559 1401 LINE",
"533 1401 LINE",
"401 1399 LINE SMOOTH",
"209 1399 OFFCURVE",
"188 1396 QCURVE SMOOTH",
"113 1385 OFFCURVE",
"113 1344 QCURVE SMOOTH",
"113 1328 LINE SMOOTH",
"113 1310 OFFCURVE",
"185 1250 QCURVE SMOOTH",
"218 1222 OFFCURVE",
"254 1073 OFFCURVE",
"254 329 OFFCURVE",
"240 250 QCURVE SMOOTH",
"231 200 OFFCURVE",
"113 119 OFFCURVE",
"113 50 QCURVE SMOOTH"
);
}
);
width = 1304;
},
{
layerId = "92A672BF-229C-4BEC-8D25-4DDBB2A38145";
paths = (
{
closed = 1;
nodes = (
"470 1261 OFFCURVE",
"505 1307 OFFCURVE",
"578 1307 QCURVE SMOOTH",
"626 1307 LINE",
"646 1305 LINE",
"784 1305 OFFCURVE",
"952 1137 OFFCURVE",
"952 991 QCURVE",
"953 980 LINE",
"953 969 LINE SMOOTH",
"953 818 OFFCURVE",
"774 652 OFFCURVE",
"632 652 QCURVE SMOOTH",
"582 652 LINE SMOOTH",
"513 652 OFFCURVE",
"470 688 OFFCURVE",
"470 772 QCURVE SMOOTH",
"470 1152 LINE SMOOTH"
);
},
{
closed = 1;
nodes = (
"527 572 OFFCURVE",
"618 579 QCURVE SMOOTH",
"868 598 OFFCURVE",
"994 676 QCURVE SMOOTH",
"1173 786 OFFCURVE",
"1173 1000 QCURVE SMOOTH",
"1173 1098 OFFCURVE",
"1142 1177 QCURVE SMOOTH",
"1089 1312 OFFCURVE",
"914 1371 QCURVE SMOOTH",
"822 1402 OFFCURVE",
"701 1402 QCURVE SMOOTH",
"619 1402 LINE",
"565 1400 LINE",
"564 1400 OFFCURVE",
"458 1396 QCURVE SMOOTH",
"353 1392 LINE",
"195 1392 OFFCURVE",
"151 1378 QCURVE SMOOTH",
"123 1369 OFFCURVE",
"123 1337 QCURVE SMOOTH",
"123 1318 OFFCURVE",
"190 1288 QCURVE SMOOTH",
"231 1270 OFFCURVE",
"255 1139 OFFCURVE",
"255 222 OFFCURVE",
"233 135 OFFCURVE",
"115 84 OFFCURVE",
"115 8 OFFCURVE",
"244 8 QCURVE SMOOTH",
"268 8 LINE",
"467 9 LINE",
"493 8 LINE",
"624 8 OFFCURVE",
"624 44 QCURVE SMOOTH",
"624 72 OFFCURVE",
"503 127 OFFCURVE",
"470 208 OFFCURVE",
"470 517 OFFCURVE",
"510 556 QCURVE SMOOTH"
);
}
);
width = 1267;
}
);
note = uni0050;
unicode = 0050;
},
{
glyphname = Q;
lastChange = "2018-12-06 23:43:23 +0000";
layers = (
{
layerId = "5CBF0BAD-1756-4F16-9711-93DC239D102B";
paths = (
{
closed = 1;
nodes = (
"1144 296 OFFCURVE",
"940 170 QCURVE SMOOTH",
"870 126 OFFCURVE",
"811 126 QCURVE SMOOTH",
"763 126 LINE SMOOTH",
"700 126 OFFCURVE",
"635 165 QCURVE SMOOTH",
"497 248 OFFCURVE",
"436 474 QCURVE SMOOTH",
"405 590 OFFCURVE",
"405 699 QCURVE SMOOTH",
"405 749 LINE SMOOTH",
"405 994 OFFCURVE",
"506 1151 QCURVE SMOOTH",
"546 1213 OFFCURVE",
"675 1291 OFFCURVE",
"758 1291 QCURVE SMOOTH",
"1011 1291 OFFCURVE",
"1109 964 QCURVE SMOOTH",
"1144 847 OFFCURVE",
"1144 731 QCURVE SMOOTH",
"1144 647 LINE SMOOTH"
);
},
{
closed = 1;
nodes = (
"73 510 OFFCURVE",
"203 223 OFFCURVE",
"414 36 OFFCURVE",
"1089 -259 QCURVE SMOOTH",
"1180 -299 OFFCURVE",
"1365 -299 OFFCURVE",
"1494 -239 OFFCURVE",
"1494 -160 OFFCURVE",
"1260 -105 OFFCURVE",
"1100 -10 OFFCURVE",
"1100 25 QCURVE SMOOTH",
"1100 41 OFFCURVE",
"1219 130 OFFCURVE",
"1238 148 QCURVE SMOOTH",
"1325 231 OFFCURVE",
"1378 329 QCURVE SMOOTH",
"1473 505 OFFCURVE",
"1473 695 QCURVE SMOOTH",
"1473 1215 OFFCURVE",
"1073 1383 QCURVE SMOOTH",
"942 1438 OFFCURVE",
"789 1438 QCURVE SMOOTH",
"758 1438 LINE SMOOTH",
"631 1438 OFFCURVE",
"500 1387 QCURVE SMOOTH",
"236 1285 OFFCURVE",
"128 1008 QCURVE SMOOTH",
"73 866 OFFCURVE",
"73 719 QCURVE SMOOTH",
"73 688 LINE SMOOTH"
);
}
);
width = 1589;
},
{
layerId = "92A672BF-229C-4BEC-8D25-4DDBB2A38145";
paths = (
{
closed = 1;
nodes = (
"292 850 OFFCURVE",
"357 1090 OFFCURVE",
"420 1170 QCURVE SMOOTH",
"538 1322 OFFCURVE",
"731 1322 QCURVE SMOOTH",
"750 1322 LINE SMOOTH",
"848 1322 OFFCURVE",
"1019 1222 OFFCURVE",
"1068 1149 QCURVE SMOOTH",
"1192 966 OFFCURVE",
"1192 697 QCURVE SMOOTH",
"1192 678 LINE SMOOTH",
"1192 284 OFFCURVE",
"936 134 QCURVE SMOOTH",
"850 84 OFFCURVE",
"752 83 QCURVE SMOOTH",
"720 83 LINE SMOOTH",
"644 83 OFFCURVE",
"474 176 OFFCURVE",
"410 268 QCURVE SMOOTH",
"292 437 OFFCURVE",
"292 685 QCURVE SMOOTH",
"292 741 LINE SMOOTH"
);
},
{
closed = 1;
nodes = (
"1366 370 OFFCURVE",
"1366 706 QCURVE SMOOTH",
"1366 884 OFFCURVE",
"1332 986 QCURVE SMOOTH",
"1248 1237 OFFCURVE",
"1004 1359 QCURVE SMOOTH",
"884 1419 OFFCURVE",
"735 1419 QCURVE SMOOTH",
"704 1419 LINE SMOOTH",
"585 1419 OFFCURVE",
"474 1375 QCURVE SMOOTH",
"223 1276 OFFCURVE",
"126 1009 QCURVE SMOOTH",
"79 880 OFFCURVE",
"79 745 QCURVE SMOOTH",
"79 713 LINE SMOOTH",
"79 537 OFFCURVE",
"233 223 OFFCURVE",
"469 33 OFFCURVE",
"1020 -206 QCURVE SMOOTH",
"1250 -306 OFFCURVE",
"1452 -306 OFFCURVE",
"1546 -265 OFFCURVE",
"1546 -233 QCURVE SMOOTH",
"1546 -222 OFFCURVE",
"1245 -121 OFFCURVE",
"1150 -48 OFFCURVE",
"1150 -20 OFFCURVE",
"1219 104 QCURVE SMOOTH"
);
}
);
width = 1555;
}
);
note = uni0051;
unicode = 0051;
},
{
glyphname = R;
lastChange = "2018-12-06 23:43:23 +0000";
layers = (
{
layerId = "5CBF0BAD-1756-4F16-9711-93DC239D102B";
paths = (
{
closed = 1;
nodes = (
"758 1253 OFFCURVE",
"894 1104 OFFCURVE",
"894 996 QCURVE SMOOTH",
"894 948 LINE SMOOTH",
"894 839 OFFCURVE",
"759 704 OFFCURVE",
"688 704 QCURVE SMOOTH",
"681 704 OFFCURVE",
"673 703 QCURVE",
"650 702 LINE",
"642 701 LINE",
"603 701 LINE SMOOTH",
"545 701 OFFCURVE",
"511 735 OFFCURVE",
"511 775 QCURVE SMOOTH",
"511 1138 LINE SMOOTH",
"511 1216 OFFCURVE",
"540 1253 OFFCURVE",
"608 1253 QCURVE SMOOTH",
"639 1253 LINE SMOOTH"
);
},
{
closed = 1;
nodes = (
"268 1386 OFFCURVE",
"101 1362 OFFCURVE",
"101 1322 QCURVE SMOOTH",
"101 1303 OFFCURVE",
"171 1235 QCURVE SMOOTH",
"210 1197 OFFCURVE",
"240 1063 OFFCURVE",
"240 286 OFFCURVE",
"214 185 OFFCURVE",
"92 111 OFFCURVE",
"92 27 OFFCURVE",
"189 -1 OFFCURVE",
"473 -1 QCURVE SMOOTH",
"636 -1 OFFCURVE",
"636 51 QCURVE SMOOTH",
"636 57 OFFCURVE",
"609 107 QCURVE SMOOTH",
"572 174 LINE",
"529 264 OFFCURVE",
"529 306 QCURVE SMOOTH",
"529 479 OFFCURVE",
"560 566 OFFCURVE",
"604 566 QCURVE SMOOTH",
"685 566 OFFCURVE",
"735 501 QCURVE SMOOTH",
"759 471 OFFCURVE",
"925 126 OFFCURVE",
"1051 -3 OFFCURVE",
"1257 -3 OFFCURVE",
"1334 20 QCURVE SMOOTH",
"1388 36 OFFCURVE",
"1388 100 QCURVE SMOOTH",
"1388 123 OFFCURVE",
"1279 170 QCURVE SMOOTH",
"1218 197 OFFCURVE",
"1166 267 QCURVE SMOOTH",
"1146 294 OFFCURVE",
"1052 464 OFFCURVE",
"979 586 OFFCURVE",
"979 623 QCURVE SMOOTH",
"979 631 OFFCURVE",
"1077 720 QCURVE SMOOTH",
"1120 759 OFFCURVE",
"1204 911 OFFCURVE",
"1204 1012 QCURVE SMOOTH",
"1204 1190 OFFCURVE",
"916 1386 OFFCURVE",
"660 1386 QCURVE SMOOTH",
"592 1386 LINE SMOOTH"
);
}
);
width = 1429;
},
{
layerId = "92A672BF-229C-4BEC-8D25-4DDBB2A38145";
paths = (
{
closed = 1;
nodes = (
"454 1247 OFFCURVE",
"477 1298 OFFCURVE",
"519 1298 QCURVE SMOOTH",
"526 1298 OFFCURVE",
"546 1300 QCURVE",
"564 1300 LINE",
"573 1301 LINE",
"601 1301 LINE SMOOTH",
"759 1301 OFFCURVE",
"924 1150 OFFCURVE",
"924 1026 QCURVE SMOOTH",
"924 984 LINE SMOOTH",
"924 863 OFFCURVE",
"758 710 OFFCURVE",
"650 710 QCURVE SMOOTH",
"641 710 OFFCURVE",
"631 709 QCURVE",
"603 708 LINE",
"593 707 LINE",
"538 707 LINE SMOOTH",
"479 707 OFFCURVE",
"454 741 OFFCURVE",
"454 810 QCURVE SMOOTH",
"454 1155 LINE SMOOTH"
);
},
{
closed = 1;
nodes = (
"114 1321 OFFCURVE",
"218 1275 OFFCURVE",
"230 1247 QCURVE SMOOTH",
"250 1200 OFFCURVE",
"250 1066 QCURVE SMOOTH",
"256 865 LINE SMOOTH",
"256 831 OFFCURVE",
"257 797 QCURVE SMOOTH",
"259 729 LINE SMOOTH",
"259 694 OFFCURVE",
"260 660 QCURVE SMOOTH",
"261 625 LINE",
"261 412 LINE SMOOTH",
"261 233 OFFCURVE",
"230 136 OFFCURVE",
"113 82 OFFCURVE",
"113 60 QCURVE SMOOTH",
"113 9 OFFCURVE",
"300 9 QCURVE SMOOTH",
"501 3 LINE SMOOTH",
"591 3 OFFCURVE",
"591 37 QCURVE SMOOTH",
"591 49 OFFCURVE",
"494 124 OFFCURVE",
"463 201 OFFCURVE",
"463 511 OFFCURVE",
"499 603 OFFCURVE",
"540 603 QCURVE SMOOTH",
"654 603 OFFCURVE",
"709 551 QCURVE SMOOTH",
"740 522 OFFCURVE",
"997 68 OFFCURVE",
"1015 49 QCURVE SMOOTH",
"1066 -4 OFFCURVE",
"1255 -4 OFFCURVE",
"1318 32 OFFCURVE",
"1318 48 QCURVE SMOOTH",
"1318 78 OFFCURVE",
"1188 128 OFFCURVE",
"1091 249 OFFCURVE",
"917 543 QCURVE SMOOTH",
"879 607 OFFCURVE",
"879 639 QCURVE SMOOTH",
"879 659 OFFCURVE",
"971 731 QCURVE SMOOTH",
"1125 853 OFFCURVE",
"1125 1015 QCURVE SMOOTH",
"1125 1114 OFFCURVE",
"1093 1180 QCURVE SMOOTH",
"989 1394 OFFCURVE",
"626 1394 QCURVE SMOOTH",
"591 1394 OFFCURVE",
"487 1391 QCURVE SMOOTH",
"418 1388 LINE SMOOTH",
"372 1386 OFFCURVE",
"315 1386 OFFCURVE",
"281 1385 QCURVE SMOOTH",
"247 1384 LINE SMOOTH",
"114 1384 OFFCURVE",
"114 1350 QCURVE SMOOTH"
);
}
);
width = 1385;
}
);
note = uni0052;
unicode = 0052;
},
{
glyphname = S;
lastChange = "2018-12-06 23:43:23 +0000";
layers = (
{
layerId = "5CBF0BAD-1756-4F16-9711-93DC239D102B";
paths = (
{
closed = 1;
nodes = (
"533 1407 LINE SMOOTH",
"433 1407 OFFCURVE",
"341 1364 QCURVE SMOOTH",
"153 1276 OFFCURVE",
"120 1104 QCURVE SMOOTH",
"112 1063 OFFCURVE",
"112 1025 QCURVE SMOOTH",
"112 843 OFFCURVE",
"288 713 QCURVE SMOOTH",
"352 666 OFFCURVE",
"686 512 OFFCURVE",
"798 392 OFFCURVE",
"798 299 QCURVE SMOOTH",
"798 237 OFFCURVE",
"672 131 OFFCURVE",
"487 131 OFFCURVE",
"368 199 OFFCURVE",
"194 403 OFFCURVE",
"154 403 QCURVE SMOOTH",
"97 403 OFFCURVE",
"97 297 QCURVE SMOOTH",
"97 263 LINE SMOOTH",
"97 99 OFFCURVE",
"162 54 QCURVE SMOOTH",
"197 30 OFFCURVE",
"465 -20 OFFCURVE",
"575 -20 QCURVE SMOOTH",
"611 -20 LINE SMOOTH",
"700 -20 OFFCURVE",
"785 10 QCURVE SMOOTH",
"1072 111 OFFCURVE",
"1072 401 QCURVE SMOOTH",
"1072 540 OFFCURVE",
"963 651 QCURVE SMOOTH",
"886 729 OFFCURVE",
"524 891 OFFCURVE",
"474 927 QCURVE SMOOTH",
"374 999 OFFCURVE",
"374 1090 QCURVE SMOOTH",
"374 1158 OFFCURVE",
"481 1256 OFFCURVE",
"632 1256 OFFCURVE",
"726 1204 OFFCURVE",
"908 1035 OFFCURVE",
"948 1035 QCURVE SMOOTH",
"997 1035 OFFCURVE",
"997 1325 OFFCURVE",
"928 1360 QCURVE SMOOTH",
"836 1407 OFFCURVE",
"569 1407 QCURVE SMOOTH"
);
}
);
width = 1150;
},
{
layerId = "92A672BF-229C-4BEC-8D25-4DDBB2A38145";
paths = (
{
closed = 1;
nodes = (
"989 1306 OFFCURVE",
"941 1368 OFFCURVE",
"846 1368 OFFCURVE",
"648 1407 OFFCURVE",
"573 1407 QCURVE SMOOTH",
"392 1407 OFFCURVE",
"140 1215 OFFCURVE",
"140 891 OFFCURVE",
"249 786 QCURVE SMOOTH",
"323 715 OFFCURVE",
"707 540 OFFCURVE",
"817 453 OFFCURVE",
"859 361 OFFCURVE",
"859 212 OFFCURVE",
"722 87 OFFCURVE",
"451 87 OFFCURVE",
"348 169 QCURVE SMOOTH",
"307 202 OFFCURVE",
"216 384 OFFCURVE",
"189 384 QCURVE SMOOTH",
"128 384 OFFCURVE",
"128 250 QCURVE SMOOTH",
"128 216 LINE SMOOTH",
"128 85 OFFCURVE",
"186 58 QCURVE SMOOTH",
"209 48 OFFCURVE",
"308 31 OFFCURVE",
"473 -7 OFFCURVE",
"547 -7 QCURVE SMOOTH",
"584 -7 LINE SMOOTH",
"785 -7 OFFCURVE",
"1047 195 OFFCURVE",
"1047 513 OFFCURVE",
"861 706 OFFCURVE",
"472 874 OFFCURVE",
"415 922 QCURVE SMOOTH",
"323 998 OFFCURVE",
"323 1199 OFFCURVE",
"457 1312 OFFCURVE",
"673 1312 OFFCURVE",
"810 1230 OFFCURVE",
"905 1058 OFFCURVE",
"989 1058 OFFCURVE",
"989 1155 QCURVE SMOOTH"
);
}
);
width = 1150;
}
);
note = uni0053;
unicode = 0053;
},
{
glyphname = T;
lastChange = "2018-12-06 23:43:23 +0000";
layers = (
{
layerId = "5CBF0BAD-1756-4F16-9711-93DC239D102B";
paths = (
{
closed = 1;
nodes = (
"469 1232 OFFCURVE",
"508 1191 OFFCURVE",
"524 1108 OFFCURVE",
"524 292 OFFCURVE",
"500 201 OFFCURVE",
"364 79 OFFCURVE",
"364 13 OFFCURVE",
"437 -1 OFFCURVE",
"536 -1 QCURVE SMOOTH",
"704 -1 LINE SMOOTH",
"901 -1 OFFCURVE",
"973 17 OFFCURVE",
"973 88 OFFCURVE",
"831 191 OFFCURVE",
"809 281 OFFCURVE",
"809 1114 OFFCURVE",
"813 1144 QCURVE SMOOTH",
"824 1231 OFFCURVE",
"890 1231 QCURVE SMOOTH",
"973 1231 OFFCURVE",
"1075 1170 OFFCURVE",
"1197 1032 OFFCURVE",
"1240 1032 QCURVE SMOOTH",
"1289 1032 OFFCURVE",
"1289 1138 QCURVE SMOOTH",
"1289 1202 LINE SMOOTH",
"1289 1320 OFFCURVE",
"1248 1390 OFFCURVE",
"1140 1390 QCURVE SMOOTH",
"1074 1390 LINE",
"699 1388 LINE SMOOTH",
"129 1388 OFFCURVE",
"66 1370 OFFCURVE",
"57 1325 QCURVE SMOOTH",
"39 1238 OFFCURVE",
"39 1130 QCURVE SMOOTH",
"39 1099 LINE SMOOTH",
"39 1034 OFFCURVE",
"91 1034 QCURVE SMOOTH",
"99 1034 OFFCURVE",
"246 1156 QCURVE SMOOTH",
"338 1232 OFFCURVE",
"421 1232 QCURVE SMOOTH"
);
}
);
width = 1334;
},
{
layerId = "92A672BF-229C-4BEC-8D25-4DDBB2A38145";
paths = (
{
closed = 1;
nodes = (
"380 2 OFFCURVE",
"581 2 QCURVE SMOOTH",
"777 -2 LINE",
"843 -2 LINE SMOOTH",
"912 -2 OFFCURVE",
"912 41 QCURVE SMOOTH",
"912 58 OFFCURVE",
"829 98 OFFCURVE",
"818 107 QCURVE SMOOTH",
"782 137 OFFCURVE",
"760 251 OFFCURVE",
"760 1176 OFFCURVE",
"799 1274 OFFCURVE",
"1015 1274 OFFCURVE",
"1111 1221 OFFCURVE",
"1195 1078 OFFCURVE",
"1232 1078 QCURVE SMOOTH",
"1259 1078 OFFCURVE",
"1259 1163 QCURVE SMOOTH",
"1259 1328 OFFCURVE",
"1232 1369 QCURVE SMOOTH",
"1215 1394 OFFCURVE",
"1164 1394 QCURVE SMOOTH",
"1098 1392 LINE SMOOTH",
"1064 1391 OFFCURVE",
"1031 1391 QCURVE SMOOTH",
"620 1392 LINE SMOOTH",
"116 1392 OFFCURVE",
"98 1383 QCURVE SMOOTH",
"51 1359 OFFCURVE",
"51 1154 QCURVE SMOOTH",
"51 1124 LINE SMOOTH",
"51 1066 OFFCURVE",
"98 1066 QCURVE SMOOTH",
"109 1066 OFFCURVE",
"175 1168 QCURVE SMOOTH",
"207 1218 OFFCURVE",
"301 1270 OFFCURVE",
"511 1270 OFFCURVE",
"544 1170 OFFCURVE",
"544 295 OFFCURVE",
"514 138 OFFCURVE",
"380 69 OFFCURVE",
"380 46 QCURVE SMOOTH"
);
}
);
width = 1304;
}
);
note = uni0054;
unicode = 0054;
},
{
glyphname = U;
lastChange = "2018-12-06 23:43:23 +0000";
layers = (
{
layerId = "5CBF0BAD-1756-4F16-9711-93DC239D102B";
paths = (
{
closed = 1;
nodes = (
"745 -16 LINE SMOOTH",
"1050 -16 OFFCURVE",
"1194 151 QCURVE SMOOTH",
"1264 234 OFFCURVE",
"1312 470 OFFCURVE",
"1312 710 QCURVE",
"1311 750 LINE",
"1309 869 LINE",
"1309 1115 OFFCURVE",
"1327 1174 OFFCURVE",
"1406 1234 QCURVE SMOOTH",
"1444 1263 OFFCURVE",
"1444 1352 OFFCURVE",
"1417 1362 QCURVE SMOOTH",
"1350 1388 OFFCURVE",
"1073 1388 OFFCURVE",
"1054 1384 QCURVE SMOOTH",
"1009 1375 OFFCURVE",
"1009 1337 QCURVE SMOOTH",
"1009 1320 OFFCURVE",
"1039 1273 QCURVE",
"1056 1250 LINE",
"1070 1225 LINE",
"1119 1113 OFFCURVE",
"1119 380 OFFCURVE",
"1060 281 QCURVE SMOOTH",
"979 145 OFFCURVE",
"615 145 OFFCURVE",
"545 288 QCURVE SMOOTH",
"495 390 OFFCURVE",
"495 1033 OFFCURVE",
"522 1202 OFFCURVE",
"593 1348 OFFCURVE",
"593 1350 QCURVE SMOOTH",
"593 1395 OFFCURVE",
"473 1395 QCURVE SMOOTH",
"286 1395 OFFCURVE",
"136 1380 QCURVE SMOOTH",
"62 1373 OFFCURVE",
"62 1339 QCURVE SMOOTH",
"62 1307 LINE SMOOTH",
"62 1266 OFFCURVE",
"187 1199 OFFCURVE",
"207 1152 OFFCURVE",
"207 968 QCURVE SMOOTH",
"207 744 LINE",
"204 543 LINE SMOOTH",
"204 481 OFFCURVE",
"205 460 QCURVE SMOOTH",
"208 419 LINE",
"238 158 OFFCURVE",
"448 44 QCURVE SMOOTH",
"559 -16 OFFCURVE",
"702 -16 QCURVE SMOOTH"
);
}
);
width = 1506;
},
{
layerId = "92A672BF-229C-4BEC-8D25-4DDBB2A38145";
paths = (
{
closed = 1;
nodes = (
"1187 851 OFFCURVE",
"1187 842 QCURVE SMOOTH",
"1187 406 OFFCURVE",
"1142 305 QCURVE SMOOTH",
"1050 98 OFFCURVE",
"835 98 QCURVE SMOOTH",
"496 98 OFFCURVE",
"454 409 QCURVE SMOOTH",
"443 488 OFFCURVE",
"443 771 QCURVE SMOOTH",
"443 795 OFFCURVE",
"443 820 QCURVE SMOOTH",
"443 850 OFFCURVE",
"443 877 QCURVE SMOOTH",
"443 1151 OFFCURVE",
"452 1202 QCURVE SMOOTH",
"462 1260 OFFCURVE",
"552 1342 OFFCURVE",
"552 1351 QCURVE SMOOTH",
"552 1392 OFFCURVE",
"386 1392 QCURVE SMOOTH",
"271 1392 LINE SMOOTH",
"90 1392 OFFCURVE",
"90 1347 QCURVE SMOOTH",
"90 1316 OFFCURVE",
"145 1288 QCURVE SMOOTH",
"201 1260 OFFCURVE",
"212 1226 QCURVE SMOOTH",
"234 1160 OFFCURVE",
"234 421 OFFCURVE",
"264 254 OFFCURVE",
"321 177 QCURVE SMOOTH",
"458 -11 OFFCURVE",
"771 -11 QCURVE SMOOTH",
"814 -11 LINE SMOOTH",
"963 -11 OFFCURVE",
"1180 110 OFFCURVE",
"1281 283 OFFCURVE",
"1303 443 OFFCURVE",
"1303 1144 OFFCURVE",
"1331 1238 OFFCURVE",
"1449 1312 OFFCURVE",
"1449 1328 QCURVE SMOOTH",
"1449 1360 OFFCURVE",
"1395 1390 OFFCURVE",
"1070 1390 OFFCURVE",
"1070 1364 QCURVE SMOOTH",
"1070 1345 OFFCURVE",
"1149 1260 OFFCURVE",
"1187 1119 OFFCURVE",
"1187 861 QCURVE SMOOTH"
);
}
);
width = 1525;
}
);
note = uni0055;
unicode = 0055;
},
{
glyphname = V;
lastChange = "2018-12-06 23:43:23 +0000";
layers = (
{
layerId = "5CBF0BAD-1756-4F16-9711-93DC239D102B";
paths = (
{
closed = 1;
nodes = (
"343 1388 LINE SMOOTH",
"70 1388 OFFCURVE",
"39 1372 QCURVE SMOOTH",
"23 1364 OFFCURVE",
"23 1287 OFFCURVE",
"167 1202 OFFCURVE",
"192 1148 QCURVE SMOOTH",
"205 1119 OFFCURVE",
"267 952 OFFCURVE",
"292 887 QCURVE SMOOTH",
"391 628 LINE SMOOTH",
"560 188 OFFCURVE",
"593 114 QCURVE SMOOTH",
"651 -18 OFFCURVE",
"713 -18 QCURVE SMOOTH",
"821 -18 OFFCURVE",
"918 140 OFFCURVE",
"1277 1113 OFFCURVE",
"1283 1125 QCURVE SMOOTH",
"1314 1189 OFFCURVE",
"1444 1291 OFFCURVE",
"1444 1353 OFFCURVE",
"1379 1388 OFFCURVE",
"1266 1388 QCURVE SMOOTH",
"1196 1388 LINE SMOOTH",
"1086 1388 OFFCURVE",
"1013 1363 OFFCURVE",
"1013 1330 QCURVE SMOOTH",
"1013 1317 OFFCURVE",
"1072 1215 OFFCURVE",
"1072 1190 QCURVE SMOOTH",
"1072 1085 OFFCURVE",
"1006 881 QCURVE SMOOTH",
"835 353 OFFCURVE",
"806 353 QCURVE SMOOTH",
"796 353 OFFCURVE",
"688 615 OFFCURVE",
"550 1036 QCURVE SMOOTH",
"517 1137 OFFCURVE",
"517 1227 OFFCURVE",
"555 1296 OFFCURVE",
"555 1324 QCURVE SMOOTH",
"555 1388 OFFCURVE",
"375 1388 QCURVE SMOOTH"
);
}
);
width = 1470;
},
{
layerId = "92A672BF-229C-4BEC-8D25-4DDBB2A38145";
paths = (
{
closed = 1;
nodes = (
"1401 1322 OFFCURVE",
"1401 1346 QCURVE SMOOTH",
"1401 1394 OFFCURVE",
"1267 1394 QCURVE SMOOTH",
"1233 1394 LINE SMOOTH",
"1020 1394 OFFCURVE",
"1020 1351 QCURVE SMOOTH",
"1020 1339 OFFCURVE",
"1039 1321 QCURVE SMOOTH",
"1073 1290 LINE",
"1104 1254 OFFCURVE",
"1104 1151 OFFCURVE",
"1056 1005 QCURVE SMOOTH",
"914 572 OFFCURVE",
"780 274 OFFCURVE",
"774 274 QCURVE SMOOTH",
"734 274 OFFCURVE",
"592 700 QCURVE SMOOTH",
"522 909 OFFCURVE",
"423 1184 OFFCURVE",
"423 1259 OFFCURVE",
"479 1329 OFFCURVE",
"479 1353 QCURVE SMOOTH",
"479 1389 OFFCURVE",
"33 1389 OFFCURVE",
"33 1360 QCURVE SMOOTH",
"33 1339 LINE SMOOTH",
"33 1336 OFFCURVE",
"123 1277 QCURVE SMOOTH",
"157 1255 OFFCURVE",
"220 1133 OFFCURVE",
"555 212 OFFCURVE",
"626 52 OFFCURVE",
"676 -4 OFFCURVE",
"778 -4 OFFCURVE",
"936 360 OFFCURVE",
"1208 1108 OFFCURVE",
"1276 1242 OFFCURVE",
"1323 1272 QCURVE SMOOTH"
);
}
);
width = 1424;
}
);
note = uni0056;
unicode = 0056;
},
{
glyphname = W;
lastChange = "2018-12-06 23:43:23 +0000";
layers = (
{
layerId = "5CBF0BAD-1756-4F16-9711-93DC239D102B";
paths = (
{
closed = 1;
nodes = (
"1754 1360 OFFCURVE",
"1597 1285 OFFCURVE",
"1597 1208 QCURVE",
"1605 1176 LINE",
"1613 1139 LINE",
"1617 1098 LINE SMOOTH",
"1621 1043 OFFCURVE",
"1621 1013 QCURVE SMOOTH",
"1621 893 OFFCURVE",
"1549 653 QCURVE SMOOTH",
"1525 572 OFFCURVE",
"1460 520 QCURVE",
"1450 520 OFFCURVE",
"1429 581 QCURVE SMOOTH",
"1288 982 OFFCURVE",
"1288 1200 OFFCURVE",
"1251 1256 QCURVE SMOOTH",
"1196 1340 OFFCURVE",
"979 1340 OFFCURVE",
"939 1314 QCURVE SMOOTH",
"861 1264 OFFCURVE",
"861 1148 QCURVE",
"864 1108 LINE",
"869 1066 LINE",
"869 923 OFFCURVE",
"799 609 OFFCURVE",
"747 540 QCURVE",
"732 527 LINE",
"687 527 OFFCURVE",
"577 864 OFFCURVE",
"577 978 QCURVE SMOOTH",
"577 1025 OFFCURVE",
"579 1069 QCURVE SMOOTH",
"581 1112 LINE",
"581 1257 OFFCURVE",
"514 1303 QCURVE SMOOTH",
"419 1369 OFFCURVE",
"181 1369 QCURVE SMOOTH",
"129 1369 OFFCURVE",
"70 1320 OFFCURVE",
"70 1268 OFFCURVE",
"187 1087 OFFCURVE",
"220 993 QCURVE SMOOTH",
"237 941 LINE SMOOTH",
"255 886 OFFCURVE",
"304 728 QCURVE SMOOTH",
"321 675 LINE SMOOTH",
"492 127 OFFCURVE",
"510 96 QCURVE SMOOTH",
"562 5 OFFCURVE",
"658 5 QCURVE SMOOTH",
"691 5 OFFCURVE",
"767 63 OFFCURVE",
"821 162 OFFCURVE",
"918 472 QCURVE SMOOTH",
"968 631 LINE SMOOTH",
"980 668 OFFCURVE",
"1001 739 QCURVE SMOOTH",
"1017 792 LINE",
"1034 822 LINE",
"1043 822 OFFCURVE",
"1248 213 OFFCURVE",
"1311 73 OFFCURVE",
"1373 13 OFFCURVE",
"1459 13 OFFCURVE",
"1491 30 QCURVE SMOOTH",
"1560 67 OFFCURVE",
"1590 132 QCURVE",
"1607 184 LINE SMOOTH",
"1641 289 OFFCURVE",
"1783 770 QCURVE SMOOTH",
"1830 932 LINE SMOOTH",
"1852 1002 OFFCURVE",
"1986 1262 OFFCURVE",
"1986 1288 QCURVE SMOOTH",
"1986 1360 OFFCURVE",
"1844 1360 QCURVE SMOOTH"
);
}
);
width = 2072;
},
{
layerId = "92A672BF-229C-4BEC-8D25-4DDBB2A38145";
paths = (
{
closed = 1;
nodes = (
"157 1380 OFFCURVE",
"100 1327 OFFCURVE",
"100 1283 OFFCURVE",
"211 1097 OFFCURVE",
"280 912 OFFCURVE",
"484 234 OFFCURVE",
"546 103 OFFCURVE",
"593 77 QCURVE",
"625 67 LINE",
"699 67 OFFCURVE",
"757 188 QCURVE SMOOTH",
"796 269 OFFCURVE",
"1012 911 OFFCURVE",
"1032 911 QCURVE",
"1050 874 LINE",
"1074 815 OFFCURVE",
"1244 272 OFFCURVE",
"1268 213 QCURVE SMOOTH",
"1327 69 OFFCURVE",
"1395 69 QCURVE SMOOTH",
"1424 69 OFFCURVE",
"1503 134 OFFCURVE",
"1589 328 OFFCURVE",
"1791 975 OFFCURVE",
"1817 1043 QCURVE SMOOTH",
"1838 1095 LINE",
"1850 1120 OFFCURVE",
"1893 1185 QCURVE SMOOTH",
"1921 1227 LINE",
"1956 1288 OFFCURVE",
"1956 1343 OFFCURVE",
"1893 1386 OFFCURVE",
"1823 1386 QCURVE SMOOTH",
"1678 1386 OFFCURVE",
"1678 1293 QCURVE",
"1688 1223 LINE SMOOTH",
"1695 1173 OFFCURVE",
"1695 1137 QCURVE SMOOTH",
"1695 1035 OFFCURVE",
"1534 543 QCURVE SMOOTH",
"1496 426 OFFCURVE",
"1459 426 QCURVE SMOOTH",
"1414 426 OFFCURVE",
"1370 529 OFFCURVE",
"1202 1077 OFFCURVE",
"1202 1120 QCURVE",
"1208 1158 LINE",
"1219 1195 LINE",
"1222 1234 LINE",
"1222 1281 OFFCURVE",
"1141 1328 QCURVE SMOOTH",
"1092 1356 OFFCURVE",
"961 1356 OFFCURVE",
"838 1282 OFFCURVE",
"838 1221 QCURVE",
"851 1182 LINE",
"867 1142 LINE",
"884 1088 OFFCURVE",
"884 1045 QCURVE SMOOTH",
"884 859 OFFCURVE",
"788 526 OFFCURVE",
"725 423 OFFCURVE",
"695 423 QCURVE SMOOTH",
"648 423 OFFCURVE",
"604 558 QCURVE SMOOTH",
"443 1050 OFFCURVE",
"443 1304 OFFCURVE",
"359 1380 OFFCURVE",
"210 1380 QCURVE SMOOTH"
);
}
);
width = 2044;
}
);
note = uni0057;
unicode = 0057;
},
{
glyphname = X;
lastChange = "2018-12-06 23:43:23 +0000";
layers = (
{
layerId = "5CBF0BAD-1756-4F16-9711-93DC239D102B";
paths = (
{
closed = 1;
nodes = (
"749 915 OFFCURVE",
"577 1181 OFFCURVE",
"577 1239 OFFCURVE",
"609 1298 OFFCURVE",
"609 1311 QCURVE SMOOTH",
"609 1363 OFFCURVE",
"556 1394 OFFCURVE",
"510 1394 QCURVE SMOOTH",
"466 1394 LINE SMOOTH",
"224 1394 OFFCURVE",
"124 1378 QCURVE SMOOTH",
"68 1369 OFFCURVE",
"68 1331 QCURVE SMOOTH",
"68 1299 OFFCURVE",
"219 1196 OFFCURVE",
"276 1120 QCURVE SMOOTH",
"548 756 OFFCURVE",
"548 689 QCURVE SMOOTH",
"548 637 OFFCURVE",
"321 337 QCURVE SMOOTH",
"228 215 OFFCURVE",
"180 177 QCURVE SMOOTH",
"54 79 OFFCURVE",
"54 55 QCURVE SMOOTH",
"54 2 OFFCURVE",
"398 2 OFFCURVE",
"516 22 OFFCURVE",
"516 58 QCURVE SMOOTH",
"516 71 OFFCURVE",
"497 110 QCURVE SMOOTH",
"483 138 LINE",
"469 174 OFFCURVE",
"469 262 OFFCURVE",
"583 425 QCURVE SMOOTH",
"651 522 OFFCURVE",
"685 522 QCURVE SMOOTH",
"703 522 OFFCURVE",
"758 436 QCURVE SMOOTH",
"894 223 OFFCURVE",
"894 159 QCURVE",
"884 134 LINE",
"873 111 LINE",
"864 88 OFFCURVE",
"864 27 OFFCURVE",
"921 0 OFFCURVE",
"1295 0 OFFCURVE",
"1377 18 QCURVE SMOOTH",
"1414 26 OFFCURVE",
"1414 102 OFFCURVE",
"1327 154 QCURVE SMOOTH",
"1277 184 OFFCURVE",
"1237 232 QCURVE SMOOTH",
"1131 360 OFFCURVE",
"931 658 QCURVE SMOOTH",
"892 716 OFFCURVE",
"892 732 QCURVE SMOOTH",
"892 804 OFFCURVE",
"1138 1117 QCURVE SMOOTH",
"1201 1198 OFFCURVE",
"1346 1270 OFFCURVE",
"1376 1308 OFFCURVE",
"1376 1388 OFFCURVE",
"1115 1388 QCURVE SMOOTH",
"976 1388 OFFCURVE",
"926 1370 OFFCURVE",
"926 1324 OFFCURVE",
"961 1263 QCURVE SMOOTH",
"971 1246 OFFCURVE",
"971 1208 QCURVE SMOOTH",
"971 1145 OFFCURVE",
"837 969 QCURVE SMOOTH",
"796 915 OFFCURVE",
"761 915 QCURVE SMOOTH"
);
}
);
width = 1458;
},
{
layerId = "92A672BF-229C-4BEC-8D25-4DDBB2A38145";
paths = (
{
closed = 1;
nodes = (
"93 1317 OFFCURVE",
"222 1259 OFFCURVE",
"260 1214 QCURVE SMOOTH",
"375 1077 OFFCURVE",
"562 777 QCURVE SMOOTH",
"598 719 OFFCURVE",
"598 704 QCURVE SMOOTH",
"598 607 OFFCURVE",
"301 233 QCURVE SMOOTH",
"233 147 OFFCURVE",
"179 118 QCURVE SMOOTH",
"76 62 OFFCURVE",
"76 37 QCURVE SMOOTH",
"76 3 OFFCURVE",
"276 3 QCURVE SMOOTH",
"318 3 LINE SMOOTH",
"462 3 OFFCURVE",
"462 45 QCURVE SMOOTH",
"462 52 OFFCURVE",
"395 106 OFFCURVE",
"395 123 QCURVE SMOOTH",
"395 194 OFFCURVE",
"563 431 QCURVE SMOOTH",
"648 550 OFFCURVE",
"663 550 QCURVE SMOOTH",
"696 550 OFFCURVE",
"758 449 QCURVE SMOOTH",
"938 158 OFFCURVE",
"938 109 OFFCURVE",
"922 82 QCURVE",
"909 62 LINE",
"898 43 LINE",
"898 3 OFFCURVE",
"983 3 QCURVE SMOOTH",
"1065 3 LINE SMOOTH",
"1356 3 OFFCURVE",
"1356 47 QCURVE SMOOTH",
"1356 62 OFFCURVE",
"1258 122 QCURVE SMOOTH",
"1215 148 OFFCURVE",
"1174 204 QCURVE SMOOTH",
"839 662 OFFCURVE",
"839 838 OFFCURVE",
"1122 1187 QCURVE SMOOTH",
"1177 1255 OFFCURVE",
"1328 1325 OFFCURVE",
"1328 1352 QCURVE SMOOTH",
"1328 1394 OFFCURVE",
"1133 1394 QCURVE SMOOTH",
"1091 1394 LINE SMOOTH",
"944 1394 OFFCURVE",
"944 1352 QCURVE SMOOTH",
"944 1343 OFFCURVE",
"1010 1283 OFFCURVE",
"1010 1270 QCURVE SMOOTH",
"1010 1199 OFFCURVE",
"860 998 QCURVE SMOOTH",
"774 883 OFFCURVE",
"759 883 QCURVE SMOOTH",
"734 883 OFFCURVE",
"665 984 QCURVE SMOOTH",
"509 1213 OFFCURVE",
"509 1262 QCURVE SMOOTH",
"509 1275 OFFCURVE",
"563 1333 OFFCURVE",
"563 1345 QCURVE SMOOTH",
"563 1387 OFFCURVE",
"468 1387 QCURVE SMOOTH",
"341 1384 LINE SMOOTH",
"93 1384 OFFCURVE",
"93 1340 QCURVE SMOOTH"
);
}
);
width = 1428;
}
);
note = uni0058;
unicode = 0058;
},
{
glyphname = Y;
lastChange = "2018-12-06 23:43:23 +0000";
layers = (
{
layerId = "5CBF0BAD-1756-4F16-9711-93DC239D102B";
paths = (
{
closed = 1;
nodes = (
"870 510 OFFCURVE",
"938 653 QCURVE SMOOTH",
"1091 975 OFFCURVE",
"1203 1143 QCURVE SMOOTH",
"1228 1181 OFFCURVE",
"1316 1243 QCURVE SMOOTH",
"1364 1277 OFFCURVE",
"1364 1338 QCURVE SMOOTH",
"1364 1389 OFFCURVE",
"1239 1389 QCURVE SMOOTH",
"1067 1389 OFFCURVE",
"990 1366 QCURVE SMOOTH",
"939 1351 OFFCURVE",
"939 1307 QCURVE SMOOTH",
"939 1282 OFFCURVE",
"986 1183 OFFCURVE",
"986 1085 OFFCURVE",
"922 971 QCURVE SMOOTH",
"798 749 OFFCURVE",
"759 749 QCURVE SMOOTH",
"739 749 OFFCURVE",
"696 834 QCURVE SMOOTH",
"538 1145 OFFCURVE",
"538 1214 QCURVE SMOOTH",
"538 1229 OFFCURVE",
"547 1277 QCURVE",
"552 1298 LINE",
"556 1320 LINE",
"556 1392 OFFCURVE",
"413 1392 QCURVE SMOOTH",
"379 1392 LINE SMOOTH",
"162 1392 OFFCURVE",
"92 1366 QCURVE SMOOTH",
"45 1349 OFFCURVE",
"45 1263 OFFCURVE",
"177 1171 OFFCURVE",
"201 1138 QCURVE SMOOTH",
"289 1020 OFFCURVE",
"516 617 QCURVE SMOOTH",
"582 500 OFFCURVE",
"582 241 OFFCURVE",
"544 162 OFFCURVE",
"437 55 OFFCURVE",
"437 -2 OFFCURVE",
"469 -8 QCURVE SMOOTH",
"502 -14 OFFCURVE",
"694 -14 OFFCURVE",
"755 -18 QCURVE SMOOTH",
"818 -24 LINE SMOOTH",
"856 -27 OFFCURVE",
"885 -27 QCURVE SMOOTH",
"980 -27 OFFCURVE",
"980 31 QCURVE SMOOTH",
"980 51 OFFCURVE",
"918 115 OFFCURVE",
"904 134 QCURVE SMOOTH",
"870 181 OFFCURVE",
"870 258 QCURVE SMOOTH"
);
}
);
width = 1403;
},
{
layerId = "92A672BF-229C-4BEC-8D25-4DDBB2A38145";
paths = (
{
closed = 1;
nodes = (
"435 -3 OFFCURVE",
"625 -3 QCURVE SMOOTH",
"813 -8 LINE SMOOTH",
"923 -8 OFFCURVE",
"923 32 QCURVE SMOOTH",
"923 57 OFFCURVE",
"824 103 OFFCURVE",
"781 156 OFFCURVE",
"781 222 QCURVE SMOOTH",
"781 537 OFFCURVE",
"827 645 QCURVE SMOOTH",
"949 931 OFFCURVE",
"1119 1184 QCURVE SMOOTH",
"1156 1239 OFFCURVE",
"1294 1325 OFFCURVE",
"1294 1395 OFFCURVE",
"1174 1395 QCURVE SMOOTH",
"1142 1395 LINE SMOOTH",
"933 1395 OFFCURVE",
"933 1349 QCURVE SMOOTH",
"933 1332 OFFCURVE",
"973 1269 OFFCURVE",
"973 1247 QCURVE SMOOTH",
"973 1183 OFFCURVE",
"923 1083 QCURVE SMOOTH",
"751 739 OFFCURVE",
"709 739 QCURVE SMOOTH",
"691 739 OFFCURVE",
"625 854 QCURVE SMOOTH",
"438 1178 OFFCURVE",
"438 1258 QCURVE SMOOTH",
"438 1270 OFFCURVE",
"492 1332 OFFCURVE",
"492 1341 QCURVE SMOOTH",
"492 1385 OFFCURVE",
"378 1385 QCURVE SMOOTH",
"204 1385 OFFCURVE",
"63 1362 OFFCURVE",
"63 1297 OFFCURVE",
"182 1234 OFFCURVE",
"291 1082 OFFCURVE",
"487 716 QCURVE SMOOTH",
"574 553 OFFCURVE",
"574 220 OFFCURVE",
"540 128 OFFCURVE",
"435 62 OFFCURVE",
"435 27 QCURVE SMOOTH"
);
}
);
width = 1340;
}
);
note = uni0059;
unicode = 0059;
},
{
glyphname = Z;
lastChange = "2018-12-06 23:43:23 +0000";
layers = (
{
layerId = "5CBF0BAD-1756-4F16-9711-93DC239D102B";
paths = (
{
closed = 1;
nodes = (
"183 1389 OFFCURVE",
"158 1368 QCURVE SMOOTH",
"112 1330 OFFCURVE",
"112 1133 QCURVE SMOOTH",
"112 1047 OFFCURVE",
"160 1047 QCURVE SMOOTH",
"195 1047 OFFCURVE",
"397 1192 OFFCURVE",
"545 1244 OFFCURVE",
"785 1244 OFFCURVE",
"785 1190 QCURVE SMOOTH",
"785 1172 OFFCURVE",
"183 296 OFFCURVE",
"81 135 OFFCURVE",
"81 26 OFFCURVE",
"122 9 QCURVE SMOOTH",
"147 -1 OFFCURVE",
"231 -1 QCURVE SMOOTH",
"1003 -1 LINE SMOOTH",
"1128 -1 OFFCURVE",
"1156 45 QCURVE SMOOTH",
"1203 122 OFFCURVE",
"1203 295 QCURVE SMOOTH",
"1203 375 OFFCURVE",
"1156 375 QCURVE SMOOTH",
"1116 375 OFFCURVE",
"956 215 OFFCURVE",
"792 146 OFFCURVE",
"454 146 OFFCURVE",
"454 189 QCURVE SMOOTH",
"454 205 OFFCURVE",
"1164 1246 OFFCURVE",
"1164 1370 OFFCURVE",
"1093 1389 OFFCURVE",
"676 1389 QCURVE SMOOTH",
"483 1389 LINE SMOOTH"
);
}
);
width = 1278;
},
{
layerId = "92A672BF-229C-4BEC-8D25-4DDBB2A38145";
paths = (
{
closed = 1;
nodes = (
"109 30 OFFCURVE",
"166 1 OFFCURVE",
"283 1 QCURVE SMOOTH",
"710 -7 LINE",
"943 -7 LINE SMOOTH",
"1108 -7 OFFCURVE",
"1139 36 QCURVE SMOOTH",
"1187 102 OFFCURVE",
"1187 279 QCURVE SMOOTH",
"1187 335 OFFCURVE",
"1151 335 QCURVE SMOOTH",
"1127 335 OFFCURVE",
"1064 223 QCURVE SMOOTH",
"1027 157 OFFCURVE",
"971 135 QCURVE SMOOTH",
"881 100 OFFCURVE",
"409 100 OFFCURVE",
"409 123 QCURVE SMOOTH",
"409 158 OFFCURVE",
"1146 1297 OFFCURVE",
"1146 1390 OFFCURVE",
"969 1390 QCURVE SMOOTH",
"890 1390 OFFCURVE",
"850 1391 QCURVE SMOOTH",
"771 1393 LINE SMOOTH",
"731 1393 OFFCURVE",
"691 1394 QCURVE SMOOTH",
"611 1395 LINE",
"491 1395 LINE SMOOTH",
"189 1395 OFFCURVE",
"163 1369 QCURVE SMOOTH",
"120 1326 OFFCURVE",
"120 1126 QCURVE SMOOTH",
"120 1065 OFFCURVE",
"163 1065 QCURVE SMOOTH",
"197 1065 OFFCURVE",
"285 1221 OFFCURVE",
"323 1241 QCURVE SMOOTH",
"408 1285 OFFCURVE",
"694 1285 QCURVE SMOOTH",
"852 1285 OFFCURVE",
"852 1202 OFFCURVE",
"109 136 OFFCURVE",
"109 58 QCURVE SMOOTH"
);
}
);
width = 1273;
}
);
note = uni005A;
unicode = 005A;
},
{
glyphname = bracketleft;
lastChange = "2018-12-06 23:43:23 +0000";
layers = (
{
layerId = "5CBF0BAD-1756-4F16-9711-93DC239D102B";
paths = (
{
closed = 1;
nodes = (
"217 1526 OFFCURVE",
"179 1464 OFFCURVE",
"179 1308 QCURVE SMOOTH",
"179 -105 LINE SMOOTH",
"179 -242 OFFCURVE",
"220 -296 OFFCURVE",
"324 -296 QCURVE SMOOTH",
"501 -296 LINE SMOOTH",
"597 -296 OFFCURVE",
"658 -278 OFFCURVE",
"658 -197 OFFCURVE",
"604 -170 OFFCURVE",
"468 -145 OFFCURVE",
"451 -123 QCURVE SMOOTH",
"418 -80 OFFCURVE",
"418 76 QCURVE SMOOTH",
"418 99 OFFCURVE",
"417 124 QCURVE SMOOTH",
"416 149 LINE",
"416 872 LINE SMOOTH",
"416 1254 OFFCURVE",
"434 1319 QCURVE SMOOTH",
"448 1370 OFFCURVE",
"609 1404 OFFCURVE",
"656 1429 OFFCURVE",
"656 1508 OFFCURVE",
"601 1526 OFFCURVE",
"474 1526 QCURVE SMOOTH",
"347 1526 LINE SMOOTH"
);
}
);
width = 745;
},
{
layerId = "92A672BF-229C-4BEC-8D25-4DDBB2A38145";
paths = (
{
closed = 1;
nodes = (
"604 1508 OFFCURVE",
"528 1508 QCURVE SMOOTH",
"453 1507 LINE SMOOTH",
"292 1507 OFFCURVE",
"211 1496 OFFCURVE",
"178 1416 OFFCURVE",
"178 652 QCURVE SMOOTH",
"178 627 OFFCURVE",
"178 602 QCURVE",
"177 577 LINE",
"177 539 OFFCURVE",
"177 501 QCURVE SMOOTH",
"175 350 LINE SMOOTH",
"175 325 OFFCURVE",
"175 300 QCURVE",
"174 275 LINE",
"174 237 OFFCURVE",
"174 199 QCURVE SMOOTH",
"172 125 LINE SMOOTH",
"172 100 OFFCURVE",
"172 75 QCURVE",
"171 51 LINE",
"171 -74 LINE SMOOTH",
"171 -236 OFFCURVE",
"215 -317 OFFCURVE",
"335 -317 QCURVE SMOOTH",
"486 -317 LINE SMOOTH",
"597 -317 OFFCURVE",
"597 -279 QCURVE SMOOTH",
"597 -246 OFFCURVE",
"564 -230 OFFCURVE",
"421 -214 OFFCURVE",
"374 -191 OFFCURVE",
"350 -92 OFFCURVE",
"350 1274 OFFCURVE",
"375 1345 QCURVE SMOOTH",
"393 1396 OFFCURVE",
"604 1429 OFFCURVE",
"604 1464 QCURVE SMOOTH"
);
}
);
width = 672;
}
);
note = uni005B;
unicode = 005B;
},
{
glyphname = backslash;
lastChange = "2018-12-06 23:43:23 +0000";
layers = (
{
layerId = "5CBF0BAD-1756-4F16-9711-93DC239D102B";
paths = (
{
closed = 1;
nodes = (
"47 1455 OFFCURVE",
"86 1347 QCURVE SMOOTH",
"331 667 OFFCURVE",
"632 -34 QCURVE SMOOTH",
"668 -117 OFFCURVE",
"714 -168 OFFCURVE",
"845 -168 OFFCURVE",
"845 -147 QCURVE SMOOTH",
"845 -121 OFFCURVE",
"808 -26 QCURVE SMOOTH",
"361 1122 OFFCURVE",
"226 1439 OFFCURVE",
"211 1455 QCURVE SMOOTH",
"182 1487 OFFCURVE",
"47 1487 OFFCURVE",
"47 1468 QCURVE SMOOTH"
);
}
);
width = 894;
},
{
layerId = "92A672BF-229C-4BEC-8D25-4DDBB2A38145";
paths = (
{
closed = 1;
nodes = (
"44 1464 OFFCURVE",
"44 1434 QCURVE SMOOTH",
"44 1425 OFFCURVE",
"200 1035 OFFCURVE",
"252 892 QCURVE SMOOTH",
"321 714 LINE SMOOTH",
"335 679 OFFCURVE",
"608 -23 OFFCURVE",
"614 -37 QCURVE SMOOTH",
"683 -197 OFFCURVE",
"733 -197 QCURVE SMOOTH",
"791 -197 OFFCURVE",
"791 -166 QCURVE SMOOTH",
"791 -156 OFFCURVE",
"565 408 OFFCURVE",
"286 1159 OFFCURVE",
"200 1355 QCURVE SMOOTH",
"152 1464 OFFCURVE",
"101 1464 QCURVE SMOOTH"
);
}
);
width = 834;
}
);
note = uni005C;
unicode = 005C;
},
{
glyphname = bracketright;
lastChange = "2018-12-06 23:43:23 +0000";
layers = (
{
layerId = "5CBF0BAD-1756-4F16-9711-93DC239D102B";
paths = (
{
closed = 1;
nodes = (
"546 -295 OFFCURVE",
"558 -242 QCURVE SMOOTH",
"566 -208 OFFCURVE",
"566 484 QCURVE SMOOTH",
"566 1319 LINE SMOOTH",
"566 1474 OFFCURVE",
"516 1526 OFFCURVE",
"411 1526 QCURVE SMOOTH",
"260 1526 LINE SMOOTH",
"131 1526 OFFCURVE",
"87 1503 OFFCURVE",
"87 1466 QCURVE SMOOTH",
"87 1410 OFFCURVE",
"300 1372 OFFCURVE",
"329 1247 OFFCURVE",
"329 669 QCURVE SMOOTH",
"329 214 LINE",
"328 139 LINE",
"326 90 LINE",
"326 -68 OFFCURVE",
"300 -112 QCURVE SMOOTH",
"285 -137 OFFCURVE",
"169 -165 QCURVE SMOOTH",
"88 -184 OFFCURVE",
"88 -233 QCURVE SMOOTH",
"88 -271 OFFCURVE",
"110 -283 QCURVE SMOOTH",
"133 -295 OFFCURVE",
"228 -295 QCURVE SMOOTH",
"430 -295 LINE SMOOTH"
);
}
);
width = 747;
},
{
layerId = "92A672BF-229C-4BEC-8D25-4DDBB2A38145";
paths = (
{
closed = 1;
nodes = (
"84 1425 OFFCURVE",
"291 1398 OFFCURVE",
"307 1356 QCURVE SMOOTH",
"330 1295 OFFCURVE",
"330 654 QCURVE SMOOTH",
"330 579 LINE",
"329 503 LINE SMOOTH",
"329 478 OFFCURVE",
"329 453 QCURVE",
"328 428 LINE",
"328 134 LINE SMOOTH",
"328 102 OFFCURVE",
"327 78 QCURVE SMOOTH",
"326 54 LINE",
"326 -146 OFFCURVE",
"289 -188 QCURVE SMOOTH",
"271 -209 OFFCURVE",
"75 -235 OFFCURVE",
"75 -272 QCURVE SMOOTH",
"75 -290 LINE SMOOTH",
"75 -317 OFFCURVE",
"124 -317 QCURVE SMOOTH",
"246 -317 LINE SMOOTH",
"407 -317 OFFCURVE",
"474 -296 OFFCURVE",
"497 -206 OFFCURVE",
"497 178 QCURVE SMOOTH",
"497 588 OFFCURVE",
"497 588 QCURVE",
"498 639 LINE",
"498 714 LINE",
"500 865 LINE SMOOTH",
"500 890 OFFCURVE",
"500 915 QCURVE",
"501 940 LINE",
"501 978 OFFCURVE",
"501 1016 QCURVE SMOOTH",
"503 1140 LINE",
"504 1165 LINE",
"504 1264 LINE SMOOTH",
"504 1448 OFFCURVE",
"445 1507 OFFCURVE",
"266 1507 QCURVE",
"242 1508 LINE",
"168 1508 LINE SMOOTH",
"84 1508 OFFCURVE",
"84 1472 QCURVE SMOOTH"
);
}
);
width = 676;
}
);
note = uni005D;
unicode = 005D;
},
{
glyphname = asciicircum;
lastChange = "2018-12-06 23:43:23 +0000";
layers = (
{
layerId = "5CBF0BAD-1756-4F16-9711-93DC239D102B";
paths = (
{
closed = 1;
nodes = (
"915 753 LINE SMOOTH",
"976 753 OFFCURVE",
"976 786 QCURVE SMOOTH",
"976 810 OFFCURVE",
"930 887 QCURVE SMOOTH",
"673 1316 OFFCURVE",
"614 1395 OFFCURVE",
"566 1395 QCURVE SMOOTH",
"552 1395 LINE SMOOTH",
"486 1395 OFFCURVE",
"414 1292 OFFCURVE",
"125 810 OFFCURVE",
"125 799 QCURVE SMOOTH",
"125 788 LINE SMOOTH",
"125 756 OFFCURVE",
"249 756 OFFCURVE",
"294 809 QCURVE SMOOTH",
"313 832 OFFCURVE",
"538 1168 OFFCURVE",
"553 1168 OFFCURVE",
"756 851 OFFCURVE",
"840 753 OFFCURVE",
"902 753 QCURVE SMOOTH"
);
}
);
width = 1096;
},
{
layerId = "92A672BF-229C-4BEC-8D25-4DDBB2A38145";
paths = (
{
closed = 1;
nodes = (
"542 1189 OFFCURVE",
"816 751 OFFCURVE",
"859 751 QCURVE SMOOTH",
"926 751 OFFCURVE",
"926 780 QCURVE SMOOTH",
"926 788 OFFCURVE",
"678 1201 QCURVE SMOOTH",
"579 1366 OFFCURVE",
"544 1366 QCURVE SMOOTH",
"531 1366 LINE SMOOTH",
"492 1366 OFFCURVE",
"451 1303 QCURVE SMOOTH",
"129 809 OFFCURVE",
"129 776 QCURVE SMOOTH",
"129 748 OFFCURVE",
"185 748 QCURVE SMOOTH",
"222 748 OFFCURVE",
"528 1189 OFFCURVE",
"529 1189 QCURVE SMOOTH"
);
}
);
width = 1052;
}
);
note = uni005E;
unicode = 005E;
},
{
glyphname = underscore;
lastChange = "2018-12-06 23:43:23 +0000";
layers = (
{
layerId = "5CBF0BAD-1756-4F16-9711-93DC239D102B";
paths = (
{
closed = 1;
nodes = (
"90 -112 OFFCURVE",
"71 -117 QCURVE SMOOTH",
"39 -125 OFFCURVE",
"39 -196 QCURVE SMOOTH",
"39 -231 LINE SMOOTH",
"39 -266 OFFCURVE",
"101 -266 QCURVE SMOOTH",
"622 -266 LINE SMOOTH",
"1003 -266 OFFCURVE",
"1059 -252 OFFCURVE",
"1059 -181 QCURVE",
"1060 -169 LINE",
"1060 -158 LINE SMOOTH",
"1060 -112 OFFCURVE",
"976 -112 QCURVE SMOOTH",
"552 -112 LINE SMOOTH"
);
}
);
width = 1099;
},
{
layerId = "92A672BF-229C-4BEC-8D25-4DDBB2A38145";
paths = (
{
closed = 1;
nodes = (
"1029 -112 OFFCURVE",
"959 -112 QCURVE SMOOTH",
"884 -112 LINE",
"545 -113 LINE SMOOTH",
"86 -113 OFFCURVE",
"49 -123 OFFCURVE",
"49 -175 QCURVE SMOOTH",
"49 -186 LINE SMOOTH",
"49 -228 OFFCURVE",
"120 -228 QCURVE SMOOTH",
"217 -228 LINE",
"250 -227 LINE",
"532 -227 LINE SMOOTH",
"993 -227 OFFCURVE",
"1029 -217 OFFCURVE",
"1029 -176 QCURVE SMOOTH",
"1029 -143 LINE SMOOTH"
);
}
);
width = 1081;
}
);
note = uni005F;
unicode = 005F;
},
{
glyphname = grave;
lastChange = "2018-12-06 23:43:23 +0000";
layers = (
{
layerId = "5CBF0BAD-1756-4F16-9711-93DC239D102B";
paths = (
{
closed = 1;
nodes = (
"190 1478 OFFCURVE",
"140 1445 QCURVE SMOOTH",
"123 1434 OFFCURVE",
"123 1422 QCURVE",
"122 1417 LINE",
"122 1389 OFFCURVE",
"318 1193 QCURVE SMOOTH",
"416 1095 OFFCURVE",
"470 1095 QCURVE",
"476 1096 LINE",
"544 1096 OFFCURVE",
"544 1125 QCURVE SMOOTH",
"544 1130 LINE SMOOTH",
"544 1186 OFFCURVE",
"379 1422 QCURVE SMOOTH",
"341 1477 OFFCURVE",
"276 1477 QCURVE",
"270 1478 LINE",
"258 1478 LINE SMOOTH"
);
}
);
width = 731;
},
{
layerId = "92A672BF-229C-4BEC-8D25-4DDBB2A38145";
paths = (
{
closed = 1;
nodes = (
"130 1383 OFFCURVE",
"430 1117 OFFCURVE",
"464 1117 QCURVE SMOOTH",
"480 1117 LINE SMOOTH",
"510 1117 OFFCURVE",
"510 1142 QCURVE SMOOTH",
"510 1151 LINE SMOOTH",
"510 1184 OFFCURVE",
"323 1424 QCURVE SMOOTH",
"279 1481 OFFCURVE",
"227 1481 QCURVE SMOOTH",
"205 1481 LINE SMOOTH",
"130 1481 OFFCURVE",
"130 1425 QCURVE SMOOTH",
"130 1415 LINE SMOOTH"
);
}
);
width = 714;
}
);
note = uni0060;
unicode = 0060;
},
{
glyphname = a;
lastChange = "2018-12-06 23:43:23 +0000";
layers = (
{
layerId = "5CBF0BAD-1756-4F16-9711-93DC239D102B";
paths = (
{
closed = 1;
nodes = (
"645 404 OFFCURVE",
"647 394 QCURVE",
"647 350 LINE",
"646 334 LINE",
"646 291 LINE",
"644 275 LINE",
"644 269 OFFCURVE",
"640 249 QCURVE",
"640 210 OFFCURVE",
"546 128 OFFCURVE",
"480 128 QCURVE SMOOTH",
"448 128 LINE SMOOTH",
"402 128 OFFCURVE",
"338 202 OFFCURVE",
"338 253 QCURVE SMOOTH",
"338 276 LINE SMOOTH",
"338 343 OFFCURVE",
"462 449 OFFCURVE",
"553 449 QCURVE SMOOTH",
"566 449 OFFCURVE",
"591 454 QCURVE",
"617 454 LINE SMOOTH",
"645 454 OFFCURVE",
"645 409 QCURVE SMOOTH"
);
},
{
closed = 1;
nodes = (
"1051 121 OFFCURVE",
"952 158 OFFCURVE",
"919 237 OFFCURVE",
"919 757 OFFCURVE",
"833 907 OFFCURVE",
"676 980 OFFCURVE",
"590 980 QCURVE SMOOTH",
"538 980 LINE SMOOTH",
"367 980 OFFCURVE",
"214 894 QCURVE SMOOTH",
"122 842 OFFCURVE",
"122 754 QCURVE SMOOTH",
"122 725 OFFCURVE",
"173 670 OFFCURVE",
"223 670 QCURVE SMOOTH",
"308 670 OFFCURVE",
"436 839 OFFCURVE",
"515 839 QCURVE SMOOTH",
"565 839 OFFCURVE",
"640 766 OFFCURVE",
"640 600 OFFCURVE",
"582 576 QCURVE SMOOTH",
"563 568 OFFCURVE",
"467 553 QCURVE SMOOTH",
"67 486 OFFCURVE",
"67 226 QCURVE SMOOTH",
"68 105 OFFCURVE",
"224 -29 OFFCURVE",
"354 -29 QCURVE",
"355 -28 OFFCURVE",
"356 -28 QCURVE SMOOTH",
"488 -28 OFFCURVE",
"602 50 QCURVE SMOOTH",
"636 74 OFFCURVE",
"650 73 QCURVE",
"664 73 OFFCURVE",
"689 41 QCURVE SMOOTH",
"735 -16 OFFCURVE",
"798 -16 QCURVE SMOOTH",
"901 -16 OFFCURVE",
"1051 43 OFFCURVE",
"1051 77 QCURVE SMOOTH",
"1051 92 LINE SMOOTH"
);
}
);
width = 1109;
},
{
layerId = "92A672BF-229C-4BEC-8D25-4DDBB2A38145";
paths = (
{
closed = 1;
nodes = (
"577 462 OFFCURVE",
"595 465 QCURVE",
"620 465 LINE SMOOTH",
"646 465 OFFCURVE",
"646 421 QCURVE SMOOTH",
"646 352 LINE",
"645 333 LINE",
"645 302 LINE",
"643 276 LINE",
"643 270 OFFCURVE",
"641 258 QCURVE",
"641 194 OFFCURVE",
"581 152 QCURVE SMOOTH",
"498 94 OFFCURVE",
"432 94 QCURVE SMOOTH",
"400 94 LINE SMOOTH",
"358 94 OFFCURVE",
"273 160 OFFCURVE",
"273 208 QCURVE SMOOTH",
"273 216 OFFCURVE",
"271 228 QCURVE",
"271 262 LINE SMOOTH",
"271 336 OFFCURVE",
"433 462 OFFCURVE",
"563 462 QCURVE SMOOTH"
);
},
{
closed = 1;
nodes = (
"330 974 OFFCURVE",
"203 899 QCURVE SMOOTH",
"125 853 OFFCURVE",
"125 780 QCURVE SMOOTH",
"125 733 OFFCURVE",
"171 689 OFFCURVE",
"186 689 QCURVE SMOOTH",
"254 689 OFFCURVE",
"380 875 OFFCURVE",
"550 875 OFFCURVE",
"648 770 OFFCURVE",
"648 589 OFFCURVE",
"593 562 QCURVE SMOOTH",
"572 552 OFFCURVE",
"380 511 OFFCURVE",
"366 507 QCURVE SMOOTH",
"244 473 OFFCURVE",
"179 421 QCURVE SMOOTH",
"84 345 OFFCURVE",
"84 219 QCURVE SMOOTH",
"84 194 LINE SMOOTH",
"84 115 OFFCURVE",
"215 -20 OFFCURVE",
"311 -20 QCURVE SMOOTH",
"358 -20 LINE SMOOTH",
"421 -20 OFFCURVE",
"641 82 OFFCURVE",
"642 82 QCURVE SMOOTH",
"655 82 OFFCURVE",
"739 -9 OFFCURVE",
"791 -9 QCURVE SMOOTH",
"881 -9 OFFCURVE",
"973 45 OFFCURVE",
"973 65 QCURVE SMOOTH",
"973 80 LINE SMOOTH",
"973 89 OFFCURVE",
"901 114 QCURVE SMOOTH",
"857 129 OFFCURVE",
"844 174 QCURVE SMOOTH",
"836 201 OFFCURVE",
"836 769 OFFCURVE",
"789 847 QCURVE SMOOTH",
"712 974 OFFCURVE",
"503 974 QCURVE SMOOTH",
"478 974 LINE SMOOTH"
);
}
);
width = 1050;
}
);
note = uni0061;
unicode = 0061;
},
{
glyphname = b;
lastChange = "2018-12-06 23:43:23 +0000";
layers = (
{
layerId = "5CBF0BAD-1756-4F16-9711-93DC239D102B";
paths = (
{
closed = 1;
nodes = (
"431 299 OFFCURVE",
"430 309 QCURVE",
"426 376 LINE",
"426 386 OFFCURVE",
"426 396 QCURVE",
"425 406 LINE",
"425 455 LINE",
"424 465 LINE",
"424 485 LINE SMOOTH",
"424 700 OFFCURVE",
"500 835 OFFCURVE",
"599 835 QCURVE SMOOTH",
"616 835 LINE SMOOTH",
"704 835 OFFCURVE",
"825 653 OFFCURVE",
"825 501 QCURVE SMOOTH",
"825 434 LINE SMOOTH",
"825 297 OFFCURVE",
"708 110 OFFCURVE",
"629 110 QCURVE SMOOTH",
"583 110 LINE SMOOTH",
"512 110 OFFCURVE",
"431 205 OFFCURVE",
"431 290 QCURVE SMOOTH"
);
},
{
closed = 1;
nodes = (
"268 8 OFFCURVE",
"298 10 QCURVE SMOOTH",
"321 11 LINE",
"332 11 OFFCURVE",
"366 8 QCURVE SMOOTH",
"388 6 LINE",
"452 6 OFFCURVE",
"576 -20 OFFCURVE",
"606 -20 QCURVE SMOOTH",
"630 -20 LINE SMOOTH",
"721 -20 OFFCURVE",
"816 18 QCURVE SMOOTH",
"991 88 OFFCURVE",
"1072 279 QCURVE SMOOTH",
"1114 377 OFFCURVE",
"1114 479 QCURVE SMOOTH",
"1114 504 LINE SMOOTH",
"1114 695 OFFCURVE",
"902 964 OFFCURVE",
"721 964 QCURVE SMOOTH",
"637 964 OFFCURVE",
"518 922 QCURVE SMOOTH",
"492 913 OFFCURVE",
"492 913 QCURVE SMOOTH",
"448 913 OFFCURVE",
"440 948 QCURVE SMOOTH",
"435 970 OFFCURVE",
"435 1356 OFFCURVE",
"425 1396 QCURVE SMOOTH",
"410 1455 OFFCURVE",
"336 1455 QCURVE SMOOTH",
"313 1455 LINE SMOOTH",
"242 1455 OFFCURVE",
"126 1424 QCURVE SMOOTH",
"47 1403 OFFCURVE",
"47 1361 QCURVE SMOOTH",
"47 1343 OFFCURVE",
"114 1289 QCURVE SMOOTH",
"153 1258 OFFCURVE",
"173 1146 OFFCURVE",
"173 759 QCURVE SMOOTH",
"173 586 LINE",
"172 537 LINE",
"172 439 LINE",
"171 415 LINE",
"171 370 OFFCURVE",
"133 131 OFFCURVE",
"133 59 OFFCURVE",
"180 8 OFFCURVE",
"253 8 QCURVE SMOOTH"
);
}
);
width = 1200;
},
{
layerId = "92A672BF-229C-4BEC-8D25-4DDBB2A38145";
paths = (
{
closed = 1;
nodes = (
"357 403 LINE",
"358 436 LINE SMOOTH",
"358 702 OFFCURVE",
"408 793 OFFCURVE",
"530 860 OFFCURVE",
"592 860 QCURVE SMOOTH",
"602 860 LINE SMOOTH",
"712 860 OFFCURVE",
"845 655 OFFCURVE",
"845 482 QCURVE",
"846 470 LINE",
"846 458 LINE SMOOTH",
"846 296 OFFCURVE",
"780 184 QCURVE SMOOTH",
"748 130 OFFCURVE",
"643 72 OFFCURVE",
"605 72 QCURVE SMOOTH",
"572 72 LINE SMOOTH",
"450 72 OFFCURVE",
"394 142 QCURVE SMOOTH",
"357 188 OFFCURVE",
"357 358 QCURVE SMOOTH"
);
},
{
closed = 1;
nodes = (
"241 22 OFFCURVE",
"311 33 QCURVE",
"374 33 OFFCURVE",
"543 -13 OFFCURVE",
"588 -13 QCURVE SMOOTH",
"612 -13 LINE SMOOTH",
"705 -13 OFFCURVE",
"793 26 QCURVE SMOOTH",
"950 95 OFFCURVE",
"1014 274 QCURVE SMOOTH",
"1048 369 OFFCURVE",
"1048 474 QCURVE SMOOTH",
"1048 500 LINE SMOOTH",
"1048 683 OFFCURVE",
"843 945 OFFCURVE",
"676 945 QCURVE SMOOTH",
"590 945 OFFCURVE",
"403 877 OFFCURVE",
"397 877 QCURVE SMOOTH",
"357 877 OFFCURVE",
"357 1352 OFFCURVE",
"346 1395 QCURVE SMOOTH",
"331 1455 OFFCURVE",
"264 1455 QCURVE SMOOTH",
"129 1455 OFFCURVE",
"69 1424 QCURVE SMOOTH",
"45 1412 OFFCURVE",
"45 1368 OFFCURVE",
"141 1325 OFFCURVE",
"151 1306 QCURVE SMOOTH",
"171 1268 OFFCURVE",
"171 1150 OFFCURVE",
"172 1126 QCURVE SMOOTH",
"174 1053 LINE",
"174 1004 LINE",
"175 955 LINE",
"175 781 LINE",
"174 731 LINE",
"174 421 LINE SMOOTH",
"174 269 OFFCURVE",
"154 136 OFFCURVE",
"154 124 QCURVE SMOOTH",
"154 22 OFFCURVE",
"232 22 QCURVE SMOOTH"
);
}
);
width = 1149;
}
);
note = uni0062;
unicode = 0062;
},
{
glyphname = c;
lastChange = "2018-12-06 23:43:23 +0000";
layers = (
{
layerId = "5CBF0BAD-1756-4F16-9711-93DC239D102B";
paths = (
{
closed = 1;
nodes = (
"869 213 OFFCURVE",
"680 153 OFFCURVE",
"615 153 QCURVE SMOOTH",
"498 153 OFFCURVE",
"422 248 QCURVE SMOOTH",
"347 342 OFFCURVE",
"347 487 QCURVE SMOOTH",
"347 489 OFFCURVE",
"347 491 QCURVE SMOOTH",
"348 642 OFFCURVE",
"384 712 QCURVE SMOOTH",
"448 835 OFFCURVE",
"547 835 QCURVE SMOOTH",
"629 835 OFFCURVE",
"776 677 OFFCURVE",
"830 677 QCURVE SMOOTH",
"918 677 OFFCURVE",
"918 816 QCURVE SMOOTH",
"918 893 OFFCURVE",
"857 927 QCURVE SMOOTH",
"754 984 OFFCURVE",
"564 984 QCURVE SMOOTH",
"463 984 OFFCURVE",
"272 905 OFFCURVE",
"205 831 QCURVE SMOOTH",
"72 683 OFFCURVE",
"72 481 QCURVE SMOOTH",
"72 457 LINE SMOOTH",
"72 368 OFFCURVE",
"104 278 QCURVE SMOOTH",
"170 95 OFFCURVE",
"344 19 QCURVE SMOOTH",
"433 -20 OFFCURVE",
"532 -20 QCURVE SMOOTH",
"555 -20 LINE SMOOTH",
"675 -20 OFFCURVE",
"927 106 OFFCURVE",
"927 213 OFFCURVE",
"888 213 QCURVE SMOOTH"
);
}
);
width = 1005;
},
{
layerId = "92A672BF-229C-4BEC-8D25-4DDBB2A38145";
paths = (
{
closed = 1;
nodes = (
"887 873 OFFCURVE",
"829 909 QCURVE SMOOTH",
"735 967 OFFCURVE",
"582 967 QCURVE SMOOTH",
"559 967 LINE SMOOTH",
"455 967 OFFCURVE",
"264 881 OFFCURVE",
"204 810 QCURVE SMOOTH",
"86 671 OFFCURVE",
"86 246 OFFCURVE",
"332 -18 OFFCURVE",
"546 -18 QCURVE SMOOTH",
"569 -18 LINE SMOOTH",
"679 -18 OFFCURVE",
"888 103 OFFCURVE",
"888 153 QCURVE SMOOTH",
"888 169 LINE SMOOTH",
"888 189 OFFCURVE",
"840 189 OFFCURVE",
"785 154 QCURVE SMOOTH",
"690 93 OFFCURVE",
"600 93 QCURVE SMOOTH",
"447 93 OFFCURVE",
"283 301 OFFCURVE",
"283 652 OFFCURVE",
"412 874 OFFCURVE",
"653 874 OFFCURVE",
"719 756 QCURVE SMOOTH",
"750 699 OFFCURVE",
"790 686 QCURVE SMOOTH",
"802 682 OFFCURVE",
"813 682 QCURVE SMOOTH",
"838 682 OFFCURVE",
"858 704 QCURVE SMOOTH",
"886 735 OFFCURVE",
"887 804 QCURVE SMOOTH"
);
}
);
width = 973;
}
);
note = uni0063;
unicode = 0063;
},
{
glyphname = d;
lastChange = "2018-12-06 23:43:23 +0000";
layers = (
{
layerId = "5CBF0BAD-1756-4F16-9711-93DC239D102B";
paths = (
{
closed = 1;
nodes = (
"460 124 OFFCURVE",
"390 241 QCURVE SMOOTH",
"341 323 OFFCURVE",
"341 451 QCURVE SMOOTH",
"341 516 LINE SMOOTH",
"341 654 OFFCURVE",
"467 843 OFFCURVE",
"559 843 QCURVE SMOOTH",
"568 843 LINE SMOOTH",
"670 843 OFFCURVE",
"741 716 OFFCURVE",
"741 543 QCURVE SMOOTH",
"741 404 LINE SMOOTH",
"741 240 OFFCURVE",
"711 193 QCURVE SMOOTH",
"667 124 OFFCURVE",
"576 124 QCURVE SMOOTH",
"559 124 LINE SMOOTH"
);
},
{
closed = 1;
nodes = (
"698 957 OFFCURVE",
"664 961 QCURVE SMOOTH",
"643 963 LINE SMOOTH",
"629 964 OFFCURVE",
"552 964 QCURVE SMOOTH",
"241 964 OFFCURVE",
"124 673 QCURVE SMOOTH",
"83 572 OFFCURVE",
"83 457 QCURVE SMOOTH",
"83 455 OFFCURVE",
"83 452 QCURVE SMOOTH",
"83 425 LINE SMOOTH",
"83 336 OFFCURVE",
"114 248 QCURVE SMOOTH",
"175 78 OFFCURVE",
"324 8 QCURVE SMOOTH",
"396 -26 OFFCURVE",
"469 -26 QCURVE SMOOTH",
"495 -26 LINE SMOOTH",
"496 -26 OFFCURVE",
"498 -26 QCURVE SMOOTH",
"589 -26 OFFCURVE",
"696 32 QCURVE SMOOTH",
"742 56 OFFCURVE",
"761 57 QCURVE",
"763 57 OFFCURVE",
"819 -15 OFFCURVE",
"871 -15 QCURVE SMOOTH",
"1070 -15 OFFCURVE",
"1130 35 QCURVE SMOOTH",
"1150 52 OFFCURVE",
"1150 67 QCURVE SMOOTH",
"1150 84 LINE SMOOTH",
"1150 101 OFFCURVE",
"1078 153 OFFCURVE",
"1076 156 QCURVE",
"1046 193 OFFCURVE",
"1024 322 OFFCURVE",
"1024 1317 OFFCURVE",
"1007 1431 OFFCURVE",
"960 1465 OFFCURVE",
"806 1465 OFFCURVE",
"618 1405 OFFCURVE",
"618 1373 QCURVE SMOOTH",
"618 1357 OFFCURVE",
"675 1308 QCURVE SMOOTH",
"751 1241 OFFCURVE",
"751 1065 QCURVE SMOOTH",
"751 957 OFFCURVE",
"704 957 QCURVE SMOOTH"
);
}
);
width = 1218;
},
{
layerId = "92A672BF-229C-4BEC-8D25-4DDBB2A38145";
paths = (
{
closed = 1;
nodes = (
"408 88 OFFCURVE",
"274 294 OFFCURVE",
"274 445 QCURVE SMOOTH",
"274 506 LINE",
"276 530 LINE",
"276 685 OFFCURVE",
"428 872 OFFCURVE",
"534 872 QCURVE SMOOTH",
"555 872 LINE SMOOTH",
"664 872 OFFCURVE",
"728 798 QCURVE SMOOTH",
"761 760 OFFCURVE",
"761 637 QCURVE SMOOTH",
"761 429 LINE SMOOTH",
"761 233 OFFCURVE",
"701 145 OFFCURVE",
"592 88 OFFCURVE",
"546 88 QCURVE SMOOTH",
"515 88 LINE SMOOTH"
);
},
{
closed = 1;
nodes = (
"757 941 OFFCURVE",
"703 941 QCURVE SMOOTH",
"694 941 OFFCURVE",
"640 947 QCURVE SMOOTH",
"594 953 LINE",
"570 955 LINE",
"346 955 OFFCURVE",
"90 675 OFFCURVE",
"90 442 QCURVE SMOOTH",
"90 332 OFFCURVE",
"123 234 QCURVE SMOOTH",
"175 82 OFFCURVE",
"308 17 QCURVE SMOOTH",
"380 -18 OFFCURVE",
"444 -18 QCURVE SMOOTH",
"469 -18 LINE SMOOTH",
"553 -18 OFFCURVE",
"663 28 OFFCURVE",
"752 81 OFFCURVE",
"765 81 QCURVE SMOOTH",
"769 81 OFFCURVE",
"807 25 OFFCURVE",
"845 -7 OFFCURVE",
"1000 -7 OFFCURVE",
"1054 25 QCURVE SMOOTH",
"1076 38 OFFCURVE",
"1076 63 QCURVE SMOOTH",
"1076 67 OFFCURVE",
"1006 116 QCURVE SMOOTH",
"972 140 OFFCURVE",
"956 228 OFFCURVE",
"956 1382 OFFCURVE",
"955 1388 QCURVE SMOOTH",
"943 1462 OFFCURVE",
"874 1462 QCURVE SMOOTH",
"851 1462 LINE SMOOTH",
"711 1462 OFFCURVE",
"660 1423 QCURVE SMOOTH",
"647 1413 OFFCURVE",
"647 1399 QCURVE SMOOTH",
"647 1374 OFFCURVE",
"738 1333 OFFCURVE",
"772 1269 OFFCURVE",
"772 990 OFFCURVE",
"767 974 QCURVE SMOOTH"
);
}
);
width = 1176;
}
);
note = uni0064;
unicode = 0064;
},
{
glyphname = e;
lastChange = "2018-12-06 23:43:23 +0000";
layers = (
{
layerId = "5CBF0BAD-1756-4F16-9711-93DC239D102B";
paths = (
{
closed = 1;
nodes = (
"619 853 OFFCURVE",
"715 743 OFFCURVE",
"715 676 QCURVE SMOOTH",
"715 643 LINE SMOOTH",
"715 590 OFFCURVE",
"664 590 QCURVE SMOOTH",
"659 590 OFFCURVE",
"644 587 QCURVE",
"477 577 LINE",
"472 576 LINE",
"401 576 LINE",
"391 578 LINE",
"350 578 OFFCURVE",
"350 615 QCURVE SMOOTH",
"350 631 LINE SMOOTH",
"350 722 OFFCURVE",
"465 853 OFFCURVE",
"528 853 QCURVE SMOOTH",
"557 853 LINE SMOOTH"
);
},
{
closed = 1;
nodes = (
"362 424 OFFCURVE",
"414 463 OFFCURVE",
"492 463 QCURVE SMOOTH",
"784 463 OFFCURVE",
"892 498 QCURVE SMOOTH",
"969 523 OFFCURVE",
"969 680 OFFCURVE",
"906 832 OFFCURVE",
"847 886 QCURVE SMOOTH",
"735 987 OFFCURVE",
"572 987 QCURVE SMOOTH",
"549 987 LINE SMOOTH",
"439 987 OFFCURVE",
"339 941 QCURVE SMOOTH",
"172 863 OFFCURVE",
"106 686 QCURVE SMOOTH",
"71 592 OFFCURVE",
"71 491 QCURVE SMOOTH",
"71 445 LINE SMOOTH",
"71 346 OFFCURVE",
"119 236 QCURVE SMOOTH",
"189 76 OFFCURVE",
"355 12 QCURVE SMOOTH",
"439 -21 OFFCURVE",
"520 -21 QCURVE SMOOTH",
"523 -21 OFFCURVE",
"525 -21 QCURVE SMOOTH",
"569 -21 LINE SMOOTH",
"697 -21 OFFCURVE",
"936 98 OFFCURVE",
"936 156 QCURVE SMOOTH",
"936 205 OFFCURVE",
"891 205 QCURVE SMOOTH",
"876 205 OFFCURVE",
"683 149 OFFCURVE",
"634 149 QCURVE SMOOTH",
"526 149 OFFCURVE",
"456 204 QCURVE SMOOTH",
"362 277 OFFCURVE",
"362 377 QCURVE SMOOTH"
);
}
);
width = 1050;
},
{
layerId = "92A672BF-229C-4BEC-8D25-4DDBB2A38145";
paths = (
{
closed = 1;
nodes = (
"345 567 OFFCURVE",
"325 571 QCURVE",
"283 571 OFFCURVE",
"283 610 QCURVE SMOOTH",
"283 616 LINE",
"285 629 LINE",
"285 727 OFFCURVE",
"426 883 OFFCURVE",
"516 883 QCURVE SMOOTH",
"536 883 LINE SMOOTH",
"614 883 OFFCURVE",
"725 758 OFFCURVE",
"725 663 QCURVE SMOOTH",
"725 622 OFFCURVE",
"714 611 QCURVE SMOOTH",
"688 585 OFFCURVE",
"622 585 QCURVE SMOOTH",
"606 585 OFFCURVE",
"571 580 QCURVE",
"380 567 LINE",
"354 567 LINE SMOOTH"
);
},
{
closed = 1;
nodes = (
"277 457 OFFCURVE",
"337 474 QCURVE SMOOTH",
"365 482 OFFCURVE",
"816 514 OFFCURVE",
"852 529 QCURVE SMOOTH",
"914 555 OFFCURVE",
"914 631 QCURVE SMOOTH",
"914 652 LINE SMOOTH",
"914 705 OFFCURVE",
"856 843 OFFCURVE",
"804 888 QCURVE SMOOTH",
"707 972 OFFCURVE",
"576 972 QCURVE SMOOTH",
"532 972 LINE SMOOTH",
"448 972 OFFCURVE",
"347 927 QCURVE SMOOTH",
"186 855 OFFCURVE",
"112 664 QCURVE SMOOTH",
"77 575 OFFCURVE",
"77 487 QCURVE SMOOTH",
"77 484 OFFCURVE",
"77 482 QCURVE SMOOTH",
"77 459 LINE SMOOTH",
"77 246 OFFCURVE",
"317 -19 OFFCURVE",
"529 -19 QCURVE SMOOTH",
"552 -19 LINE SMOOTH",
"660 -19 OFFCURVE",
"755 27 QCURVE SMOOTH",
"894 95 OFFCURVE",
"894 157 QCURVE SMOOTH",
"894 190 OFFCURVE",
"859 190 QCURVE SMOOTH",
"856 190 OFFCURVE",
"660 100 OFFCURVE",
"600 100 QCURVE SMOOTH",
"455 100 OFFCURVE",
"277 260 OFFCURVE",
"277 399 QCURVE SMOOTH"
);
}
);
width = 1015;
}
);
note = uni0065;
unicode = 0065;
},
{
glyphname = f;
lastChange = "2018-12-06 23:43:23 +0000";
layers = (
{
layerId = "5CBF0BAD-1756-4F16-9711-93DC239D102B";
paths = (
{
closed = 1;
nodes = (
"550 1483 OFFCURVE",
"475 1450 QCURVE SMOOTH",
"268 1358 OFFCURVE",
"206 1080 QCURVE SMOOTH",
"194 1025 OFFCURVE",
"101 884 OFFCURVE",
"101 872 QCURVE SMOOTH",
"101 839 OFFCURVE",
"189 779 OFFCURVE",
"217 699 OFFCURVE",
"217 292 OFFCURVE",
"185 141 OFFCURVE",
"96 43 OFFCURVE",
"96 24 QCURVE SMOOTH",
"96 -19 OFFCURVE",
"140 -25 QCURVE SMOOTH",
"228 -37 OFFCURVE",
"369 -37 QCURVE SMOOTH",
"424 -37 LINE SMOOTH",
"525 -37 OFFCURVE",
"633 -15 OFFCURVE",
"633 62 OFFCURVE",
"516 171 OFFCURVE",
"511 182 QCURVE SMOOTH",
"488 229 OFFCURVE",
"488 326 QCURVE",
"487 378 LINE",
"488 404 LINE SMOOTH",
"489 430 OFFCURVE",
"489 484 QCURVE SMOOTH",
"489 685 OFFCURVE",
"513 741 QCURVE SMOOTH",
"524 766 OFFCURVE",
"689 831 OFFCURVE",
"689 866 QCURVE SMOOTH",
"689 915 OFFCURVE",
"621 955 QCURVE SMOOTH",
"524 1012 OFFCURVE",
"520 1019 QCURVE SMOOTH",
"497 1057 OFFCURVE",
"497 1201 OFFCURVE",
"558 1290 OFFCURVE",
"603 1290 QCURVE SMOOTH",
"609 1290 OFFCURVE",
"729 1251 OFFCURVE",
"818 1251 OFFCURVE",
"871 1322 OFFCURVE",
"871 1429 OFFCURVE",
"823 1451 QCURVE SMOOTH",
"755 1483 OFFCURVE",
"665 1483 QCURVE SMOOTH",
"637 1483 LINE SMOOTH"
);
}
);
width = 795;
},
{
layerId = "92A672BF-229C-4BEC-8D25-4DDBB2A38145";
paths = (
{
closed = 1;
nodes = (
"562 -27 OFFCURVE",
"562 7 QCURVE SMOOTH",
"562 30 OFFCURVE",
"447 94 OFFCURVE",
"419 180 OFFCURVE",
"419 719 OFFCURVE",
"447 776 QCURVE SMOOTH",
"465 813 OFFCURVE",
"624 861 OFFCURVE",
"624 907 OFFCURVE",
"476 982 OFFCURVE",
"468 990 QCURVE",
"427 1027 OFFCURVE",
"427 1195 OFFCURVE",
"491 1354 OFFCURVE",
"595 1354 OFFCURVE",
"708 1265 OFFCURVE",
"785 1265 OFFCURVE",
"829 1323 OFFCURVE",
"829 1406 OFFCURVE",
"727 1474 OFFCURVE",
"637 1474 QCURVE SMOOTH",
"438 1474 OFFCURVE",
"334 1336 QCURVE SMOOTH",
"284 1270 OFFCURVE",
"220 1052 QCURVE SMOOTH",
"203 997 OFFCURVE",
"133 896 OFFCURVE",
"133 856 OFFCURVE",
"206 796 OFFCURVE",
"230 722 OFFCURVE",
"230 198 OFFCURVE",
"207 96 OFFCURVE",
"100 38 OFFCURVE",
"100 18 QCURVE SMOOTH",
"100 -26 OFFCURVE",
"389 -26 QCURVE",
"415 -27 LINE",
"442 -27 LINE SMOOTH"
);
}
);
width = 738;
}
);
note = uni0066;
unicode = 0066;
},
{
glyphname = g;
lastChange = "2018-12-06 23:43:23 +0000";
layers = (
{
layerId = "5CBF0BAD-1756-4F16-9711-93DC239D102B";
paths = (
{
closed = 1;
nodes = (
"646 676 LINE",
"646 625 LINE",
"645 604 LINE",
"644 597 LINE",
"643 591 LINE",
"643 526 OFFCURVE",
"566 427 OFFCURVE",
"515 427 QCURVE SMOOTH",
"508 427 LINE SMOOTH",
"454 427 OFFCURVE",
"363 557 OFFCURVE",
"363 653 QCURVE SMOOTH",
"363 704 LINE SMOOTH",
"363 784 OFFCURVE",
"441 901 OFFCURVE",
"492 901 QCURVE SMOOTH",
"504 901 LINE SMOOTH",
"560 901 OFFCURVE",
"643 794 OFFCURVE",
"643 717 QCURVE",
"645 683 LINE"
);
},
{
closed = 1;
nodes = (
"754 -9 OFFCURVE",
"808 -63 OFFCURVE",
"808 -94 QCURVE",
"809 -101 LINE",
"809 -181 OFFCURVE",
"749 -225 QCURVE SMOOTH",
"653 -295 OFFCURVE",
"525 -295 QCURVE SMOOTH",
"481 -295 LINE SMOOTH",
"405 -295 OFFCURVE",
"306 -226 OFFCURVE",
"306 -162 QCURVE SMOOTH",
"306 -141 LINE SMOOTH",
"306 -82 OFFCURVE",
"384 3 OFFCURVE",
"432 3 QCURVE",
"459 6 LINE",
"480 7 LINE",
"487 8 LINE",
"509 8 LINE",
"542 5 LINE",
"548 5 OFFCURVE",
"556 4 QCURVE",
"601 1 LINE",
"608 0 LINE",
"616 -1 LINE",
"652 -1 OFFCURVE",
"700 -9 QCURVE"
);
},
{
closed = 1;
nodes = (
"758 954 LINE",
"751 954 OFFCURVE",
"706 959 QCURVE SMOOTH",
"652 965 LINE",
"542 973 OFFCURVE",
"534 973 QCURVE SMOOTH",
"504 973 LINE SMOOTH",
"349 973 OFFCURVE",
"232 900 QCURVE SMOOTH",
"147 848 OFFCURVE",
"109 752 QCURVE SMOOTH",
"86 694 OFFCURVE",
"86 637 QCURVE SMOOTH",
"86 633 OFFCURVE",
"86 630 QCURVE SMOOTH",
"86 599 OFFCURVE",
"94 570 QCURVE SMOOTH",
"118 484 OFFCURVE",
"170 424 QCURVE SMOOTH",
"223 366 OFFCURVE",
"223 348 OFFCURVE",
"115 208 OFFCURVE",
"115 106 OFFCURVE",
"187 5 OFFCURVE",
"187 3 QCURVE SMOOTH",
"187 -17 OFFCURVE",
"118 -93 OFFCURVE",
"110 -104 QCURVE SMOOTH",
"67 -164 OFFCURVE",
"67 -230 QCURVE SMOOTH",
"67 -329 OFFCURVE",
"262 -466 OFFCURVE",
"446 -466 QCURVE SMOOTH",
"477 -466 LINE SMOOTH",
"585 -466 OFFCURVE",
"685 -438 QCURVE SMOOTH",
"887 -382 OFFCURVE",
"981 -247 QCURVE SMOOTH",
"1027 -181 OFFCURVE",
"1027 -21 OFFCURVE",
"970 68 OFFCURVE",
"843 136 OFFCURVE",
"480 160 OFFCURVE",
"400 187 OFFCURVE",
"400 224 QCURVE SMOOTH",
"400 266 OFFCURVE",
"463 287 QCURVE",
"467 288 OFFCURVE",
"574 301 QCURVE SMOOTH",
"816 330 OFFCURVE",
"906 502 QCURVE SMOOTH",
"939 564 OFFCURVE",
"939 629 QCURVE SMOOTH",
"939 648 OFFCURVE",
"936 689 QCURVE SMOOTH",
"935 715 LINE",
"935 766 OFFCURVE",
"947 789 QCURVE SMOOTH",
"951 797 OFFCURVE",
"1019 827 QCURVE SMOOTH",
"1059 845 OFFCURVE",
"1059 927 OFFCURVE",
"1022 966 OFFCURVE",
"975 966 QCURVE"
);
}
);
width = 1123;
},
{
layerId = "92A672BF-229C-4BEC-8D25-4DDBB2A38145";
paths = (
{
closed = 1;
nodes = (
"687 607 LINE",
"686 576 LINE",
"685 568 LINE",
"684 561 LINE",
"684 488 OFFCURVE",
"576 389 OFFCURVE",
"505 389 QCURVE SMOOTH",
"481 389 LINE SMOOTH",
"389 389 OFFCURVE",
"304 522 OFFCURVE",
"304 614 QCURVE",
"303 623 LINE",
"303 667 LINE SMOOTH",
"303 773 OFFCURVE",
"410 915 OFFCURVE",
"471 915 QCURVE SMOOTH",
"505 915 LINE SMOOTH",
"571 915 OFFCURVE",
"618 852 QCURVE SMOOTH",
"684 764 OFFCURVE",
"684 657 QCURVE",
"686 616 LINE"
);
},
{
closed = 1;
nodes = (
"421 28 LINE",
"456 27 LINE",
"465 26 LINE",
"573 20 LINE",
"591 18 LINE",
"609 18 OFFCURVE",
"645 14 QCURVE",
"734 14 OFFCURVE",
"842 -67 OFFCURVE",
"842 -133 QCURVE SMOOTH",
"842 -141 LINE SMOOTH",
"842 -220 OFFCURVE",
"680 -357 OFFCURVE",
"562 -357 QCURVE SMOOTH",
"554 -357 OFFCURVE",
"534 -359 QCURVE",
"479 -359 LINE SMOOTH",
"364 -359 OFFCURVE",
"221 -249 OFFCURVE",
"221 -173 QCURVE",
"220 -165 LINE",
"220 -147 LINE SMOOTH",
"220 -71 OFFCURVE",
"286 -10 QCURVE SMOOTH",
"327 28 OFFCURVE",
"404 28 QCURVE SMOOTH"
);
},
{
closed = 1;
nodes = (
"569 972 LINE",
"267 972 OFFCURVE",
"166 773 QCURVE SMOOTH",
"132 706 OFFCURVE",
"132 639 QCURVE SMOOTH",
"132 526 OFFCURVE",
"216 410 QCURVE SMOOTH",
"242 374 OFFCURVE",
"241 356 QCURVE",
"241 336 OFFCURVE",
"154 214 OFFCURVE",
"154 124 OFFCURVE",
"180 88 QCURVE",
"215 50 LINE",
"221 33 LINE",
"221 16 OFFCURVE",
"83 -138 OFFCURVE",
"83 -283 OFFCURVE",
"124 -337 QCURVE SMOOTH",
"221 -465 OFFCURVE",
"506 -465 QCURVE SMOOTH",
"702 -465 OFFCURVE",
"846 -368 QCURVE SMOOTH",
"988 -271 OFFCURVE",
"988 30 OFFCURVE",
"852 92 QCURVE SMOOTH",
"780 124 OFFCURVE",
"600 136 QCURVE SMOOTH",
"419 148 OFFCURVE",
"395 154 QCURVE SMOOTH",
"307 173 OFFCURVE",
"307 271 OFFCURVE",
"354 295 QCURVE SMOOTH",
"379 307 OFFCURVE",
"492 313 QCURVE SMOOTH",
"761 325 OFFCURVE",
"854 504 QCURVE SMOOTH",
"887 566 OFFCURVE",
"887 623 QCURVE SMOOTH",
"887 684 OFFCURVE",
"876 730 QCURVE",
"861 782 LINE",
"856 804 LINE",
"856 847 OFFCURVE",
"1015 868 OFFCURVE",
"1015 925 QCURVE SMOOTH",
"1015 968 OFFCURVE",
"914 968 QCURVE",
"862 965 LINE SMOOTH",
"826 963 OFFCURVE",
"809 963 QCURVE",
"759 966 LINE",
"733 967 LINE SMOOTH",
"653 970 OFFCURVE",
"625 970 OFFCURVE",
"597 971 QCURVE SMOOTH"
);
}
);
width = 1085;
}
);
note = uni0067;
unicode = 0067;
},
{
glyphname = h;
lastChange = "2018-12-06 23:43:23 +0000";
layers = (
{
layerId = "5CBF0BAD-1756-4F16-9711-93DC239D102B";
paths = (
{
closed = 1;
nodes = (
"1210 76 OFFCURVE",
"1120 162 OFFCURVE",
"1092 228 OFFCURVE",
"1092 726 OFFCURVE",
"1038 829 QCURVE SMOOTH",
"963 972 OFFCURVE",
"782 972 QCURVE SMOOTH",
"682 972 OFFCURVE",
"560 916 QCURVE SMOOTH",
"516 896 OFFCURVE",
"503 896 QCURVE SMOOTH",
"472 896 OFFCURVE",
"462 931 QCURVE SMOOTH",
"458 945 OFFCURVE",
"458 1392 OFFCURVE",
"445 1425 QCURVE SMOOTH",
"424 1478 OFFCURVE",
"351 1478 QCURVE SMOOTH",
"199 1478 OFFCURVE",
"107 1439 QCURVE SMOOTH",
"64 1421 OFFCURVE",
"64 1380 QCURVE SMOOTH",
"64 1372 OFFCURVE",
"135 1308 QCURVE SMOOTH",
"165 1281 OFFCURVE",
"192 1175 OFFCURVE",
"192 311 OFFCURVE",
"179 215 OFFCURVE",
"86 85 OFFCURVE",
"86 50 QCURVE SMOOTH",
"86 1 OFFCURVE",
"405 1 OFFCURVE",
"484 18 QCURVE SMOOTH",
"538 30 OFFCURVE",
"538 75 QCURVE SMOOTH",
"538 81 OFFCURVE",
"486 205 OFFCURVE",
"458 443 OFFCURVE",
"458 500 QCURVE SMOOTH",
"458 673 OFFCURVE",
"561 804 OFFCURVE",
"756 804 OFFCURVE",
"826 657 OFFCURVE",
"826 239 OFFCURVE",
"806 172 OFFCURVE",
"754 74 OFFCURVE",
"754 58 QCURVE SMOOTH",
"754 20 OFFCURVE",
"828 -12 OFFCURVE",
"1076 -12 OFFCURVE",
"1210 17 OFFCURVE",
"1210 64 QCURVE SMOOTH"
);
}
);
width = 1269;
},
{
layerId = "92A672BF-229C-4BEC-8D25-4DDBB2A38145";
paths = (
{
closed = 1;
nodes = (
"109 3 OFFCURVE",
"501 3 OFFCURVE",
"501 45 QCURVE SMOOTH",
"501 56 OFFCURVE",
"427 119 OFFCURVE",
"402 171 OFFCURVE",
"402 658 OFFCURVE",
"450 770 OFFCURVE",
"583 845 OFFCURVE",
"750 845 OFFCURVE",
"831 711 OFFCURVE",
"831 485 QCURVE SMOOTH",
"830 372 LINE",
"832 299 LINE SMOOTH",
"832 158 OFFCURVE",
"818 127 OFFCURVE",
"753 47 OFFCURVE",
"753 31 QCURVE SMOOTH",
"753 -3 OFFCURVE",
"843 -3 QCURVE",
"949 1 LINE",
"984 3 LINE",
"1128 3 OFFCURVE",
"1128 42 QCURVE SMOOTH",
"1128 54 OFFCURVE",
"1043 115 OFFCURVE",
"1013 166 OFFCURVE",
"1013 266 QCURVE SMOOTH",
"1014 378 LINE",
"1015 415 LINE",
"1016 490 LINE SMOOTH",
"1016 750 OFFCURVE",
"958 846 QCURVE SMOOTH",
"886 963 OFFCURVE",
"724 963 QCURVE SMOOTH",
"648 963 OFFCURVE",
"431 879 OFFCURVE",
"425 879 QCURVE SMOOTH",
"392 879 OFFCURVE",
"392 997 QCURVE SMOOTH",
"392 1035 OFFCURVE",
"395 1146 QCURVE SMOOTH",
"398 1256 LINE SMOOTH",
"398 1383 OFFCURVE",
"384 1419 QCURVE SMOOTH",
"365 1468 OFFCURVE",
"295 1468 QCURVE SMOOTH",
"188 1468 OFFCURVE",
"92 1422 OFFCURVE",
"92 1404 QCURVE SMOOTH",
"92 1400 OFFCURVE",
"163 1350 QCURVE SMOOTH",
"190 1331 OFFCURVE",
"198 1275 QCURVE SMOOTH",
"215 1154 OFFCURVE",
"215 273 OFFCURVE",
"198 159 OFFCURVE",
"109 70 OFFCURVE",
"109 52 QCURVE SMOOTH"
);
}
);
width = 1216;
}
);
note = uni0068;
unicode = 0068;
},
{
glyphname = i;
lastChange = "2018-12-06 23:43:23 +0000";
layers = (
{
layerId = "5CBF0BAD-1756-4F16-9711-93DC239D102B";
paths = (
{
closed = 1;
nodes = (
"187 1271 LINE",
"189 1261 LINE",
"189 1215 OFFCURVE",
"270 1144 OFFCURVE",
"326 1144 QCURVE SMOOTH",
"357 1144 LINE SMOOTH",
"414 1144 OFFCURVE",
"508 1224 OFFCURVE",
"508 1266 QCURVE SMOOTH",
"508 1271 OFFCURVE",
"510 1281 QCURVE",
"510 1307 LINE SMOOTH",
"510 1346 OFFCURVE",
"436 1432 OFFCURVE",
"388 1432 QCURVE SMOOTH",
"378 1432 OFFCURVE",
"363 1435 QCURVE",
"331 1435 LINE SMOOTH",
"278 1435 OFFCURVE",
"187 1355 OFFCURVE",
"187 1297 QCURVE SMOOTH"
);
},
{
closed = 1;
nodes = (
"629 -4 OFFCURVE",
"629 32 QCURVE SMOOTH",
"629 44 LINE SMOOTH",
"629 59 OFFCURVE",
"517 177 OFFCURVE",
"490 282 OFFCURVE",
"490 897 OFFCURVE",
"485 925 QCURVE SMOOTH",
"476 974 OFFCURVE",
"418 974 QCURVE SMOOTH",
"403 974 LINE SMOOTH",
"258 974 OFFCURVE",
"138 934 QCURVE SMOOTH",
"85 916 OFFCURVE",
"85 839 OFFCURVE",
"200 784 OFFCURVE",
"222 708 OFFCURVE",
"222 283 OFFCURVE",
"196 182 OFFCURVE",
"96 82 OFFCURVE",
"96 11 OFFCURVE",
"149 -4 OFFCURVE",
"282 -4 QCURVE SMOOTH",
"377 -4 LINE SMOOTH"
);
}
);
width = 691;
},
{
layerId = "92A672BF-229C-4BEC-8D25-4DDBB2A38145";
paths = (
{
closed = 1;
nodes = (
"184 1236 OFFCURVE",
"249 1171 OFFCURVE",
"278 1171 QCURVE SMOOTH",
"282 1171 OFFCURVE",
"290 1169 QCURVE",
"298 1169 LINE",
"302 1168 LINE",
"306 1168 LINE",
"330 1171 LINE",
"360 1171 OFFCURVE",
"433 1231 OFFCURVE",
"433 1261 QCURVE",
"437 1284 LINE",
"437 1293 LINE",
"434 1317 LINE",
"434 1353 OFFCURVE",
"363 1412 OFFCURVE",
"322 1412 QCURVE SMOOTH",
"306 1412 LINE",
"286 1409 LINE",
"252 1409 OFFCURVE",
"186 1343 OFFCURVE",
"186 1312 OFFCURVE",
"184 1304 QCURVE",
"184 1276 LINE SMOOTH"
);
},
{
closed = 1;
nodes = (
"222 -7 LINE",
"326 -4 LINE",
"370 -4 LINE",
"415 -3 LINE SMOOTH",
"429 -3 OFFCURVE",
"459 -1 QCURVE",
"546 -1 OFFCURVE",
"546 28 QCURVE SMOOTH",
"546 39 LINE SMOOTH",
"546 57 OFFCURVE",
"433 102 OFFCURVE",
"411 179 OFFCURVE",
"411 899 OFFCURVE",
"406 920 QCURVE SMOOTH",
"396 961 OFFCURVE",
"338 961 QCURVE SMOOTH",
"179 961 OFFCURVE",
"109 919 QCURVE SMOOTH",
"87 906 OFFCURVE",
"87 885 QCURVE SMOOTH",
"87 859 OFFCURVE",
"189 831 OFFCURVE",
"224 789 OFFCURVE",
"224 709 QCURVE SMOOTH",
"227 617 LINE",
"227 555 LINE",
"226 524 LINE",
"226 493 LINE",
"225 462 LINE SMOOTH",
"225 195 OFFCURVE",
"200 106 OFFCURVE",
"96 59 OFFCURVE",
"96 33 QCURVE SMOOTH",
"96 -7 OFFCURVE",
"162 -7 QCURVE SMOOTH"
);
}
);
width = 628;
}
);
note = uni0069;
unicode = 0069;
},
{
glyphname = j;
lastChange = "2018-12-06 23:43:23 +0000";
layers = (
{
layerId = "5CBF0BAD-1756-4F16-9711-93DC239D102B";
paths = (
{
closed = 1;
nodes = (
"237 1178 OFFCURVE",
"296 1107 OFFCURVE",
"333 1107 QCURVE SMOOTH",
"350 1107 LINE",
"359 1109 LINE",
"436 1109 OFFCURVE",
"531 1193 OFFCURVE",
"531 1271 QCURVE SMOOTH",
"531 1282 LINE",
"528 1308 LINE",
"528 1334 OFFCURVE",
"449 1427 OFFCURVE",
"398 1427 QCURVE SMOOTH",
"369 1427 LINE SMOOTH",
"330 1427 OFFCURVE",
"240 1337 OFFCURVE",
"240 1290 QCURVE SMOOTH",
"240 1278 OFFCURVE",
"237 1263 QCURVE",
"237 1240 LINE SMOOTH"
);
},
{
closed = 1;
nodes = (
"528 456 LINE SMOOTH",
"528 808 OFFCURVE",
"511 924 QCURVE SMOOTH",
"502 988 OFFCURVE",
"436 988 QCURVE SMOOTH",
"418 988 LINE SMOOTH",
"294 988 OFFCURVE",
"189 953 QCURVE SMOOTH",
"132 934 OFFCURVE",
"132 903 QCURVE SMOOTH",
"132 899 OFFCURVE",
"235 760 OFFCURVE",
"258 648 OFFCURVE",
"258 -44 OFFCURVE",
"239 -99 QCURVE SMOOTH",
"214 -171 OFFCURVE",
"68 -214 OFFCURVE",
"18 -286 OFFCURVE",
"18 -307 QCURVE SMOOTH",
"18 -387 OFFCURVE",
"218 -387 OFFCURVE",
"413 -274 OFFCURVE",
"502 -111 OFFCURVE",
"528 85 OFFCURVE",
"528 303 QCURVE SMOOTH"
);
}
);
width = 664;
},
{
layerId = "92A672BF-229C-4BEC-8D25-4DDBB2A38145";
paths = (
{
closed = 1;
nodes = (
"190 1242 OFFCURVE",
"257 1175 OFFCURVE",
"308 1175 QCURVE SMOOTH",
"316 1175 LINE SMOOTH",
"371 1175 OFFCURVE",
"443 1247 OFFCURVE",
"443 1294 QCURVE SMOOTH",
"443 1298 LINE",
"440 1322 LINE",
"440 1357 OFFCURVE",
"372 1414 OFFCURVE",
"336 1414 OFFCURVE",
"324 1417 QCURVE",
"316 1417 LINE SMOOTH",
"274 1417 OFFCURVE",
"190 1357 OFFCURVE",
"190 1306 QCURVE SMOOTH",
"190 1282 LINE SMOOTH"
);
},
{
closed = 1;
nodes = (
"421 902 OFFCURVE",
"397 964 OFFCURVE",
"349 964 QCURVE SMOOTH",
"331 964 LINE SMOOTH",
"174 964 OFFCURVE",
"114 925 QCURVE SMOOTH",
"97 914 OFFCURVE",
"97 892 QCURVE SMOOTH",
"97 881 OFFCURVE",
"173 837 QCURVE SMOOTH",
"212 815 OFFCURVE",
"234 712 OFFCURVE",
"234 -36 OFFCURVE",
"197 -215 OFFCURVE",
"140 -276 OFFCURVE",
"24 -276 OFFCURVE",
"3 -286 QCURVE SMOOTH",
"-50 -312 OFFCURVE",
"-50 -360 QCURVE SMOOTH",
"-50 -424 OFFCURVE",
"34 -424 QCURVE SMOOTH",
"50 -424 LINE SMOOTH",
"161 -424 OFFCURVE",
"336 -287 OFFCURVE",
"421 -71 OFFCURVE",
"421 430 QCURVE SMOOTH",
"421 783 LINE SMOOTH"
);
}
);
width = 585;
}
);
note = uni006A;
unicode = 006A;
},
